<?xml version="1.0" encoding="UTF-8" standalone="no"?>
<svg
   xmlns:dc="http://purl.org/dc/elements/1.1/"
   xmlns:cc="http://creativecommons.org/ns#"
   xmlns:rdf="http://www.w3.org/1999/02/22-rdf-syntax-ns#"
   xmlns:svg="http://www.w3.org/2000/svg"
   xmlns="http://www.w3.org/2000/svg"
   xmlns:sodipodi="http://sodipodi.sourceforge.net/DTD/sodipodi-0.dtd"
   xmlns:inkscape="http://www.inkscape.org/namespaces/inkscape"
   width="317.11914"
   height="457.69122"
   id="svg2"
   version="1.1"
   inkscape:version="0.48.3.1 r9886"
   sodipodi:docname="Cube_initial.svg">
  <metadata
     id="metadata1825">
    <rdf:RDF>
      <cc:Work
         rdf:about="">
        <dc:format>image/svg+xml</dc:format>
        <dc:type
           rdf:resource="http://purl.org/dc/dcmitype/StillImage" />
      </cc:Work>
    </rdf:RDF>
  </metadata>
  <sodipodi:namedview
     pagecolor="#ffffff"
     bordercolor="#666666"
     borderopacity="1"
     objecttolerance="10"
     gridtolerance="10"
     guidetolerance="10"
     inkscape:pageopacity="0"
     inkscape:pageshadow="2"
     inkscape:window-width="1301"
     inkscape:window-height="744"
     id="namedview1823"
     showgrid="false"
     inkscape:zoom="1.4138271"
     inkscape:cx="158.55957"
     inkscape:cy="200.56582"
     inkscape:window-x="65"
     inkscape:window-y="24"
     inkscape:window-maximized="1"
     inkscape:current-layer="g21"
     fit-margin-top="5"
     fit-margin-left="5"
     fit-margin-bottom="5"
     fit-margin-right="5"
     units="mm" />
  <desc
     id="desc4">/home/atelier/LeCubeMedia/plans/LaserCube_Ray.dxf - scale = 1.000000</desc>
  <defs
     id="defs6">
    <marker
       refY="0"
       refX="0"
       style="overflow:visible"
       id="DistanceX"
       orient="auto">
      <path
         style="stroke:#000000;stroke-width:0.5"
         d="M 3,-3 -3,3 M 0,-5 0,5"
         id="path9"
         inkscape:connector-curvature="0" />
    </marker>
    <pattern
       height="8"
       width="8"
       patternUnits="userSpaceOnUse"
       y="0"
       x="0"
       id="Hatch">
      <path
         linecap="square"
         stroke="#000000"
         stroke-width="0.25"
         d="M8 4 l-4,4"
         id="path12" />
      <path
         linecap="square"
         stroke="#000000"
         stroke-width="0.25"
         d="M6 2 l-4,4"
         id="path14" />
      <path
         linecap="square"
         stroke="#000000"
         stroke-width="0.25"
         d="M4 0 l-4,4"
         id="path16" />
    </pattern>
    <symbol
       id="*Model_Space" />
    <symbol
       id="*Paper_Space" />
    <symbol
       id="*Paper_Space0" />
  </defs>
  <g
     inkscape:label="0"
     inkscape:groupmode="layer"
     id="g21"
     transform="translate(-59.963194,-567.01572)">
    <path
       id="path243"
       style="fill:none;stroke:#000000"
       d="m 347.63351,950.32897 11.23229,0 m -11.23229,44.92913 0,-11.23228 m 11.23229,-56.16142 -11.23229,0 m 11.23229,0 0,-11.23228 m 0,67.3937 0,-11.23229 m 0,0 0,-11.23228 m 0,-56.16142 0,-11.23228 m 0,0 -11.23229,0 m 11.23229,22.46457 0,-11.23229 m 0,56.16142 0,-11.23228 m 0,33.69685 -11.23229,0 m 0,-44.92914 0,-11.23228 m 0,22.46457 0,-11.23229 m 0,-44.92913 0,-11.23228 m -112.32283,44.92913 -11.23229,0 m 112.32284,78.626 -11.23228,0 m 22.46456,-11.2323 -11.23228,0 m -89.85827,0 -11.23228,0 m 11.23228,11.2323 0,-11.2323 m 33.69685,11.2323 0,-11.2323 m 11.23228,0 -11.23228,0 m 22.46457,0 -11.23229,0 m 11.23229,11.2323 0,-11.2323 m 33.69685,11.2323 0,-11.2323 m -11.23228,11.2323 -11.23229,0 m 0,0 -11.23228,0 m -22.46457,0 -11.23228,0 m 0,0 -11.23229,0 m 0,0 -11.23228,0 m 11.23228,-134.78742 -11.23228,0 m -22.46457,33.69685 0,-11.23228 m 0,22.46457 0,-11.23229 m 22.46457,-22.46456 -11.23228,0 m 0,11.23228 0,-11.23228 m 0,67.3937 -11.23229,0 m 0,11.23228 0,-11.23228 m 11.23229,33.69685 -11.23229,0 m 11.23229,11.23228 0,-11.23228 m 0,-33.69685 0,-11.23229 m 0,0 0,-11.23228 m -11.23229,0 0,-11.23228 m 0,56.16141 0,-11.23228 m 0,22.46457 0,-11.23229 m 44.92914,-101.09055 -11.23229,0 m 22.46457,0 -11.23228,0 m 11.23228,11.23229 0,-11.23229 m 11.23228,11.23229 -11.23228,0 m 22.46457,0 -11.23229,0 m 11.23229,0 0,-11.23229 m 11.23228,0 -11.23228,0 m 22.46457,0 -11.23229,0 m 22.46457,0 -11.23228,0 m 11.23228,11.23229 0,-11.23229 m 11.23228,11.23229 -11.23228,0 m -89.85827,0 0,-11.23229 m -22.46457,22.46457 11.23229,0"
       inkscape:connector-curvature="0" />
    <path
       id="path257"
       style="fill:none;stroke:#000000"
       d="m 168.038,995.2581 -11.23229,0 m 33.69685,0 -11.23228,0 m 22.46457,-11.23228 0,-11.23229 m 0,0 0,-11.23228 m 0,-22.46457 0,-11.23228 m 0,0 0,-11.23228 m 11.23228,89.85828 0,-11.2323 m 0,-11.23228 -11.23228,0 m 11.23228,11.23228 0,-11.23228 m 0,-22.46457 -11.23228,0 m 11.23228,0 0,-11.23228 m 0,-11.23229 -11.23228,0 m 11.23228,11.23229 0,-11.23229 m 0,67.39372 -11.23228,0 m 0,0 -11.23229,0 m -44.92913,0 -11.23228,0 m 22.46456,0 -11.23228,0 m 44.92913,0 0,-11.2323 m -11.23228,0 -11.23228,0 m -11.23229,11.2323 0,-11.2323 m -22.46456,11.2323 0,-11.2323 m 0,0 -11.23229,0 m 0,0 -11.23228,0 m -11.23228,11.2323 0,-11.2323 m 11.23228,0 -11.23228,0 m -11.232287,11.2323 0,-11.2323 m -11.232284,-101.09055 11.232284,0 m -11.232284,0 0,-11.23228 m 0,0 0,-11.23229 m 11.232284,0 -11.232284,0 m 0,112.32284 0,-11.23229 m 0,0 0,-11.23228 m 0,-22.46457 0,-11.23228 m 0,0 0,-11.23228 m 11.232284,-11.23229 0,-11.23228 m 0,22.46457 0,-11.23229 m 0,11.23229 -11.232284,0 m 11.232284,33.69685 0,-11.23229 m 0,0 -11.232284,0 m 11.232284,22.46457 0,-11.23228 m 0,11.23228 -11.232284,0 m 11.232284,33.69685 0,-11.23228 m 0,0 -11.232284,0 m 22.464571,22.46458 -11.232287,0 m 11.232287,-134.78742 -11.232287,0 m 11.232287,11.23229 0,-11.23229 m 11.23228,11.23229 -11.23228,0 m 89.85826,0 0,-11.23229 m 11.23229,11.23229 0,-11.23229 m -22.46457,11.23229 11.23228,0 m 11.23229,11.23228 0,-11.23228 m 0,-11.23229 -11.23229,0 m -11.23228,11.23229 -22.46457,0 m 0,0 0,-11.23229 m 0,0 -11.23228,0 m 0,0 -11.23228,0 m 0,11.23229 0,-11.23229 m 0,11.23229 -22.46457,0 m 101.09055,33.69685 -11.23228,0 m 11.23228,0 0,-11.23229 m 0,-11.23228 -11.23228,0 m 11.23228,11.23228 0,-11.23228"
       inkscape:connector-curvature="0" />
    <path
       id="path1105"
       style="fill:none;stroke:#000000"
       d="m 224.07839,750.93219 11.23229,0 m 11.23228,-11.23228 0,-11.23229 m 101.09055,22.46457 0,-11.23228 m 0,67.3937 0,-11.23229 m 0,0 0,-11.23228 m 11.23229,56.16142 -11.23229,0 m 11.23229,-22.46457 0,-11.23228 m 0,-33.69685 0,-11.23229 m 0,-11.23228 -11.23229,0 m 11.23229,11.23228 0,-11.23228 m 0,78.62598 0,-11.23228 m 0,22.46457 0,-11.23229 m 0,-44.92913 0,-11.23228 m 0,11.23228 -11.23229,0 m 0,67.3937 0,-11.23228 m 0,-33.69685 11.23229,0 m -11.23229,-67.3937 -11.23228,0 m 0,0 0,-11.23229 m 0,0 -11.23228,0 m 0,0 -11.23229,0 m 0,0 -11.23228,0 m 0,11.23229 0,-11.23229 m 0,11.23229 -11.23229,0 m 0,0 -11.23228,0 m 0,0 0,-11.23229 m 0,0 -11.23228,0 m 0,0 -11.23229,0 m 0,134.7874 -11.23228,0 m 22.46457,0 -11.23229,0 m 22.46457,0 -11.23228,0 m 44.92913,0 -11.23228,0 m 22.46457,0 -11.23229,0 m -89.85827,-22.46456 0,-11.23229 m 0,0 0,-11.23228 m 0,-33.69685 0,-11.23228 m 112.32284,89.85826 0,-11.23228 m -33.69685,11.23228 0,-11.23228 m 0,0 -11.23229,0 m 0,0 -11.23228,0 m 0,11.23228 0,-11.23228 m -33.69685,11.23228 0,-11.23228 m 0,0 -11.23228,0 m 0,-56.16142 0,-11.23228 m 0,22.46457 0,-11.23229 m 0,56.16142 0,-11.23228 m 0,0 -11.23229,0 m 0,-22.46457 0,-11.23228 m 11.23229,0 -11.23229,0 m 11.23229,-56.16142 0,-11.23228 m 11.23228,0 -11.23228,0 m -11.23229,33.69685 0,-11.23229 m 0,0 0,-11.23228 m 123.55512,101.09055 -11.23228,0 m -78.62599,-123.55512 -11.23228,0 m 89.85827,134.7874 -11.23228,0 m -89.85827,-78.62598 -11.23229,0"
       inkscape:connector-curvature="0" />
    <path
       id="path1213"
       style="fill:none;stroke:#000000"
       d="m 89.412013,840.79046 -11.232284,0 m 11.232284,11.23228 0,-11.23228 m 0,-22.46457 -11.232284,0 m 11.232284,0 0,-11.23228 m 0,-11.23229 -11.232284,0 m 11.232284,11.23229 0,-11.23229 m 0,-22.46456 -11.232284,0 m 11.232284,0 0,-11.23229 m 0,0 0,-11.23228 m -11.232284,33.69685 0,-11.23228 m 0,22.46456 0,-11.23228 m 0,44.92913 0,-11.23228 m 0,22.46457 0,-11.23229 m 0,-78.62598 0,-11.23228 m 0,11.23228 11.232284,0 m 0,112.32283 0,-11.23228 m 33.696847,0 -11.23228,0 m 22.46457,0 -11.23229,0 m 11.23229,11.23228 0,-11.23228 m 22.46456,11.23228 0,-11.23228 m 22.46457,0 -11.23228,0 m 22.46456,11.23228 0,-11.23228 m -33.69685,11.23228 -11.23228,0 m 0,0 -11.23228,0 m 67.3937,0 -11.23229,0 m 22.46457,0 -11.23228,0 m 11.23228,0 0,-11.23228 m -22.46457,0 -11.23228,0 m -78.62598,11.23228 -11.232287,0 m 22.464567,-11.23228 -11.23228,0 m 0,11.23228 0,-11.23228 m 67.3937,0 -11.23229,0 m 56.16142,-89.85827 0,-11.23228 m 0,0 -11.23228,0 m 11.23228,22.46457 0,-11.23229 m 0,11.23229 -11.23228,0 m 11.23228,33.69685 0,-11.23229 m 0,0 -11.23228,0 m 11.23228,22.46457 0,-11.23228 m 0,11.23228 -11.23228,0 m 11.23228,33.69685 0,-11.23228 m 0,0 -11.23228,0 m 0,-56.16142 0,-11.23228 m 0,22.46456 0,-11.23228 m 0,44.92913 0,-11.23228 m 0,22.46457 0,-11.23229 m -89.85827,-89.85826 -11.23228,0 m 33.69685,0 -22.46457,0 m 22.46457,0 0,-11.23229 m 11.23228,0 -11.23228,0 m 22.46456,0 -11.23228,0 m 11.23228,11.23229 0,-11.23229 m 22.46457,11.23229 -22.46457,0 m 44.92914,-11.23229 -11.23229,0 m -89.85826,11.23229 0,-11.23229 m -11.232287,0 -11.232284,0 m 0,11.23229 0,-11.23229 m 22.464571,0 -11.232287,0 m 89.858267,11.23229 11.23228,0 m 11.23229,0 0,-11.23229 m -11.23229,11.23229 0,-11.23229 m 11.23229,22.46457 0,-11.23228"
       inkscape:connector-curvature="0" />
    <path
       id="path1337"
       style="fill:none;stroke:#000000"
       d="m 168.038,708.78738 -11.23229,0 m -56.16141,11.23228 0,-11.23228 m 11.23228,0 -11.23228,0 m 89.85826,-112.32283 0,-11.23229 m 11.23229,11.23229 0,-11.23229 m -22.46457,11.23229 11.23228,0 m -89.85826,-11.23229 -11.232287,0 m -11.232284,11.23229 0,-11.23229 m 11.232284,0 -11.232284,0 m 22.464571,11.23229 0,-11.23229 m 101.09055,0 -11.23229,0 m -11.23228,11.23229 -22.46457,0 m 0,0 0,-11.23229 m 0,0 -11.23228,0 m 0,0 -11.23228,0 m 0,11.23229 0,-11.23229 m 0,11.23229 -22.46457,0 m 0,0 -11.23228,0 m -11.232287,123.55511 0,-11.23228 m -11.232284,-101.09055 11.232284,0 m -11.232284,0 0,-11.23228 m 0,101.09055 0,-11.23229 m 0,0 0,-11.23228 m 0,-22.46457 0,-11.23228 m 0,0 0,-11.23228 m 11.232284,-11.23229 0,-11.23228 m 0,22.46457 0,-11.23229 m 0,11.23229 -11.232284,0 m 11.232284,33.69685 0,-11.23229 m 0,0 -11.232284,0 m 11.232284,22.46457 0,-11.23228 m 0,11.23228 -11.232284,0 m 11.232284,33.69685 0,-11.23228 m 0,0 -11.232284,0 m 22.464571,22.46456 -11.232287,0 m 101.090547,-11.23228 -11.23228,0 m 22.46457,-101.09055 0,-11.23228 m 0,101.09055 0,-11.23229 m 0,0 0,-11.23228 m 0,-22.46457 0,-11.23228 m 0,0 0,-11.23228 m 11.23228,89.85826 0,-11.23228 m 0,-11.23228 -11.23228,0 m 11.23228,11.23228 0,-11.23228 m 0,-22.46457 -11.23228,0 m 11.23228,0 0,-11.23228 m 0,-11.23229 -11.23228,0 m 11.23228,11.23229 0,-11.23229 m 0,-22.46456 -11.23228,0 m 11.23228,0 0,-11.23229 m 0,-11.23228 -11.23228,0 m 11.23228,11.23228 0,-11.23228 m 0,112.32283 -11.23228,0 m 0,0 -11.23229,0 m -44.92913,0 -11.23228,0 m 22.46456,0 -11.23228,0 m 44.92913,0 0,-11.23228 m -11.23228,0 -11.23228,0 m -11.23229,11.23228 0,-11.23228 m -22.46456,11.23228 0,-11.23228 m 0,0 -11.23229,0 m 0,0 -11.23228,0"
       inkscape:connector-curvature="0" />
    <path
       id="path1641"
       style="fill:none;stroke:#000000"
       d="m 313.93666,708.78738 -11.23228,0 m -56.16142,11.23228 0,-11.23228 m 11.23228,0 -11.23228,0 m -11.23228,11.23228 0,-11.23228 m 11.23228,11.23228 -11.23228,0 m 101.09055,-11.23228 -11.23228,0 m 22.46456,11.23228 -11.23228,0 m -44.92914,0 -11.23228,0 m 22.46457,0 -11.23229,0 m 44.92914,0 0,-11.23228 m -11.23228,0 -11.23229,0 m -11.23228,11.23228 0,-11.23228 m -22.46457,11.23228 0,-11.23228 m 0,0 -11.23228,0 m 0,0 -11.23229,0 m 78.62599,-112.32283 0,-11.23229 m 11.23228,11.23229 0,-11.23229 m 0,22.46457 0,-11.23228 m 0,101.09055 0,-11.23229 m 0,0 0,-11.23228 m 0,-22.46457 0,-11.23228 m 0,0 0,-11.23228 m 11.23229,89.85826 0,-11.23228 m 0,-11.23228 -11.23229,0 m 11.23229,11.23228 0,-11.23228 m 0,-22.46457 -11.23229,0 m 11.23229,0 0,-11.23228 m 0,-11.23229 -11.23229,0 m 11.23229,11.23229 0,-11.23229 m 0,-22.46456 -11.23229,0 m 11.23229,0 0,-11.23229 m 0,-11.23228 -11.23229,0 m 11.23229,11.23228 0,-11.23228 m 0,112.32283 -11.23229,0 m -22.46456,-123.55511 11.23228,0 m -89.85827,-11.23229 -11.23228,0 m -11.23229,22.46457 11.23229,0 m -11.23229,0 0,-11.23228 m 0,0 0,-11.23229 m 11.23229,0 -11.23229,0 m 22.46457,11.23229 0,-11.23229 m 101.09055,0 -11.23228,0 m -11.23228,11.23229 -22.46457,0 m 0,0 0,-11.23229 m 0,0 -11.23229,0 m 0,0 -11.23228,0 m 0,11.23229 0,-11.23229 m 0,11.23229 -22.46457,0 m 0,0 -11.23228,0 m -22.46457,101.09055 0,-11.23229 m 0,0 0,-11.23228 m 0,-22.46457 0,-11.23228 m 0,0 0,-11.23228 m 11.23229,-11.23229 0,-11.23228 m 0,22.46457 0,-11.23229 m 0,11.23229 -11.23229,0 m 11.23229,33.69685 0,-11.23229 m 0,0 -11.23229,0 m 11.23229,22.46457 0,-11.23228 m 0,11.23228 -11.23229,0 m 11.23229,33.69685 0,-11.23228 m 0,0 -11.23229,0"
       inkscape:connector-curvature="0" />
  </g>
</svg>
