999
Inkscape export via "Better DXF Output" (bob@bobcookdev.com)
  0
SECTION
  2
HEADER
  9
$ACADVER
  1
AC1014
  9
$HANDSEED
  5
FFFF
  0
ENDSEC
  0
SECTION
  2
TABLES
  0
TABLE
  2
VPORT
  5
8
330
0
100
AcDbSymbolTable
 70
     4
  0
VPORT
  5
2E
330
8
100
AcDbSymbolTableRecord
100
AcDbViewportTableRecord
  2
*ACTIVE
 70
     0
 10
0.0
 20
0.0
 11
1.0
 21
1.0
 12
4.25
 22
5.5
 13
0.0
 23
0.0
 14
10.0
 24
10.0
 15
10.0
 25
10.0
 16
0.0
 26
0.0
 36
1.0
 17
0.0
 27
0.0
 37
0.0
 40
11
 41
1.24
 42
50.0
 43
0.0
 44
0.0
 50
0.0
 51
0.0
 71
     0
 72
   100
 73
     1
 74
     3
 75
     0
 76
     0
 77
     0
 78
     0
  0
ENDTAB
  0
TABLE
  2
LTYPE
  5
5
330
0
100
AcDbSymbolTable
 70
     1
  0
LTYPE
  5
14
330
5
100
AcDbSymbolTableRecord
100
AcDbLinetypeTableRecord
  2
BYBLOCK
 70
     0
  3

 72
    65
 73
     0
 40
0.0
  0
LTYPE
  5
15
330
5
100
AcDbSymbolTableRecord
100
AcDbLinetypeTableRecord
  2
BYLAYER
 70
     0
  3

 72
    65
 73
     0
 40
0.0
  0
LTYPE
  5
16
330
5
100
AcDbSymbolTableRecord
100
AcDbLinetypeTableRecord
  2
CONTINUOUS
 70
     0
  3
Solid line
 72
    65
 73
     0
 40
0.0
  0
ENDTAB
  0
TABLE
  2
LAYER
  5
2
330
0
100
AcDbSymbolTable
 70
1
  0
LAYER
  5
10
330
2
100
AcDbSymbolTableRecord
100
AcDbLayerTableRecord
  2
0
 70
     0
 62
     7
  6
CONTINUOUS
  0
ENDTAB
  0
TABLE
  2
STYLE
  5
3
330
0
100
AcDbSymbolTable
 70
     1
  0
STYLE
  5
11
330
3
100
AcDbSymbolTableRecord
100
AcDbTextStyleTableRecord
  2
STANDARD
 70
     0
 40
0.0
 41
1.0
 50
0.0
 71
     0
 42
2.5
  3
txt
  4

  0
ENDTAB
  0
TABLE
  2
VIEW
  5
6
330
0
100
AcDbSymbolTable
 70
     0
  0
ENDTAB
  0
TABLE
  2
UCS
  5
7
330
0
100
AcDbSymbolTable
 70
     0
  0
ENDTAB
  0
TABLE
  2
APPID
  5
9
330
0
100
AcDbSymbolTable
 70
     2
  0
APPID
  5
12
330
9
100
AcDbSymbolTableRecord
100
AcDbRegAppTableRecord
  2
ACAD
 70
     0
  0
ENDTAB
  0
TABLE
  2
DIMSTYLE
  5
A
330
0
100
AcDbSymbolTable
 70
     1
  0
DIMSTYLE
105
27
330
A
100
AcDbSymbolTableRecord
100
AcDbDimStyleTableRecord
  2
ISO-25
 70
     0
  3

  4

  5

  6

  7

 40
1.0
 41
2.5
 42
0.625
 43
3.75
 44
1.25
 45
0.0
 46
0.0
 47
0.0
 48
0.0
140
2.5
141
2.5
142
0.0
143
0.03937007874016
144
1.0
145
0.0
146
1.0
147
0.625
 71
     0
 72
     0
 73
     0
 74
     0
 75
     0
 76
     0
 77
     1
 78
     8
170
     0
171
     3
172
     1
173
     0
174
     0
175
     0
176
     0
177
     0
178
     0
270
     2
271
     2
272
     2
273
     2
274
     3
340
11
275
     0
280
     0
281
     0
282
     0
283
     0
284
     8
285
     0
286
     0
287
     3
288
     0
  0
ENDTAB
  0
TABLE
  2
BLOCK_RECORD
  5
1
330
0
100
AcDbSymbolTable
 70
     1
  0
BLOCK_RECORD
  5
1F
330
1
100
AcDbSymbolTableRecord
100
AcDbBlockTableRecord
  2
*MODEL_SPACE
  0
BLOCK_RECORD
  5
1B
330
1
100
AcDbSymbolTableRecord
100
AcDbBlockTableRecord
  2
*PAPER_SPACE
  0
ENDTAB
  0
ENDSEC
  0
SECTION
  2
BLOCKS
  0
BLOCK
  5
20
330
1F
100
AcDbEntity
  8
0
100
AcDbBlockBegin
  2
*MODEL_SPACE
 70
     0
 10
0.0
 20
0.0
 30
0.0
  3
*MODEL_SPACE
  1

  0
ENDBLK
  5
21
330
1F
100
AcDbEntity
  8
0
100
AcDbBlockEnd
  0
BLOCK
  5
1C
330
1B
100
AcDbEntity
 67
     1
  8
0
100
AcDbBlockBegin
  2
*PAPER_SPACE
  1

  0
ENDBLK
  5
1D
330
1B
100
AcDbEntity
 67
     1
  8
0
100
AcDbBlockEnd
  0
ENDSEC
  0
SECTION
  2
ENTITIES
0
LINE
8
Layer 1
62
4
5
100
100
AcDbEntity
100
AcDbLine
10
0.846667
20
130.017300
30
0.0
11
-0.846667
21
128.323967
31
0.0
0
LINE
8
Layer 1
62
4
5
101
100
AcDbEntity
100
AcDbLine
10
0.000000
20
130.581744
30
0.0
11
0.000000
21
127.759522
31
0.0
0
LINE
8
Layer 1
62
4
5
102
100
AcDbEntity
100
AcDbLine
10
2.257778
20
128.041744
30
0.0
11
1.128889
21
126.912855
31
0.0
0
LINE
8
Layer 1
62
4
5
103
100
AcDbEntity
100
AcDbLine
10
1.693333
20
128.606189
30
0.0
11
0.564444
21
127.477300
31
0.0
0
LINE
8
Layer 1
62
4
5
104
100
AcDbEntity
100
AcDbLine
10
1.128889
20
129.170633
30
0.0
11
0.000000
21
128.041744
31
0.0
0
LINE
8
0
62
4
5
105
100
AcDbEntity
100
AcDbLine
10
98.109902
20
-139.033321
30
0.0
11
101.279904
21
-139.033321
31
0.0
0
LINE
8
0
62
4
5
106
100
AcDbEntity
100
AcDbLine
10
98.109902
20
-151.713319
30
0.0
11
98.109902
21
-148.543320
31
0.0
0
LINE
8
0
62
4
5
107
100
AcDbEntity
100
AcDbLine
10
101.279904
20
-132.693320
30
0.0
11
98.109902
21
-132.693320
31
0.0
0
LINE
8
0
62
4
5
108
100
AcDbEntity
100
AcDbLine
10
101.279904
20
-132.693320
30
0.0
11
101.279904
21
-129.523321
31
0.0
0
LINE
8
0
62
4
5
109
100
AcDbEntity
100
AcDbLine
10
101.279904
20
-148.543320
30
0.0
11
101.279904
21
-145.373319
31
0.0
0
LINE
8
0
62
4
5
10a
100
AcDbEntity
100
AcDbLine
10
101.279904
20
-145.373319
30
0.0
11
101.279904
21
-142.203320
31
0.0
0
LINE
8
0
62
4
5
10b
100
AcDbEntity
100
AcDbLine
10
101.279904
20
-126.353319
30
0.0
11
101.279904
21
-123.183320
31
0.0
0
LINE
8
0
62
4
5
10c
100
AcDbEntity
100
AcDbLine
10
101.279904
20
-123.183320
30
0.0
11
98.109902
21
-123.183320
31
0.0
0
LINE
8
0
62
4
5
10d
100
AcDbEntity
100
AcDbLine
10
101.279904
20
-129.523321
30
0.0
11
101.279904
21
-126.353319
31
0.0
0
LINE
8
0
62
4
5
10e
100
AcDbEntity
100
AcDbLine
10
101.279904
20
-142.203320
30
0.0
11
101.279904
21
-139.033321
31
0.0
0
LINE
8
0
62
4
5
10f
100
AcDbEntity
100
AcDbLine
10
101.279904
20
-148.543320
30
0.0
11
98.109902
21
-148.543320
31
0.0
0
LINE
8
0
62
4
5
110
100
AcDbEntity
100
AcDbLine
10
98.109902
20
-135.863319
30
0.0
11
98.109902
21
-132.693320
31
0.0
0
LINE
8
0
62
4
5
111
100
AcDbEntity
100
AcDbLine
10
98.109902
20
-139.033321
30
0.0
11
98.109902
21
-135.863319
31
0.0
0
LINE
8
0
62
4
5
112
100
AcDbEntity
100
AcDbLine
10
98.109902
20
-123.183320
30
0.0
11
98.109902
21
-120.013321
31
0.0
0
LINE
8
0
62
4
5
113
100
AcDbEntity
100
AcDbLine
10
66.409903
20
-132.693320
30
0.0
11
63.239901
21
-132.693320
31
0.0
0
LINE
8
0
62
4
5
114
100
AcDbEntity
100
AcDbLine
10
94.939903
20
-154.883324
30
0.0
11
91.769904
21
-154.883324
31
0.0
0
LINE
8
0
62
4
5
115
100
AcDbEntity
100
AcDbLine
10
98.109902
20
-151.713319
30
0.0
11
94.939903
21
-151.713319
31
0.0
0
LINE
8
0
62
4
5
116
100
AcDbEntity
100
AcDbLine
10
69.579902
20
-151.713319
30
0.0
11
66.409903
21
-151.713319
31
0.0
0
LINE
8
0
62
4
5
117
100
AcDbEntity
100
AcDbLine
10
69.579902
20
-154.883324
30
0.0
11
69.579902
21
-151.713319
31
0.0
0
LINE
8
0
62
4
5
118
100
AcDbEntity
100
AcDbLine
10
79.089902
20
-154.883324
30
0.0
11
79.089902
21
-151.713319
31
0.0
0
LINE
8
0
62
4
5
119
100
AcDbEntity
100
AcDbLine
10
82.259901
20
-151.713319
30
0.0
11
79.089902
21
-151.713319
31
0.0
0
LINE
8
0
62
4
5
11a
100
AcDbEntity
100
AcDbLine
10
85.429903
20
-151.713319
30
0.0
11
82.259901
21
-151.713319
31
0.0
0
LINE
8
0
62
4
5
11b
100
AcDbEntity
100
AcDbLine
10
85.429903
20
-154.883324
30
0.0
11
85.429903
21
-151.713319
31
0.0
0
LINE
8
0
62
4
5
11c
100
AcDbEntity
100
AcDbLine
10
94.939903
20
-154.883324
30
0.0
11
94.939903
21
-151.713319
31
0.0
0
LINE
8
0
62
4
5
11d
100
AcDbEntity
100
AcDbLine
10
91.769904
20
-154.883324
30
0.0
11
88.599902
21
-154.883324
31
0.0
0
LINE
8
0
62
4
5
11e
100
AcDbEntity
100
AcDbLine
10
88.599902
20
-154.883324
30
0.0
11
85.429903
21
-154.883324
31
0.0
0
LINE
8
0
62
4
5
11f
100
AcDbEntity
100
AcDbLine
10
79.089902
20
-154.883324
30
0.0
11
75.919903
21
-154.883324
31
0.0
0
LINE
8
0
62
4
5
120
100
AcDbEntity
100
AcDbLine
10
75.919903
20
-154.883324
30
0.0
11
72.749901
21
-154.883324
31
0.0
0
LINE
8
0
62
4
5
121
100
AcDbEntity
100
AcDbLine
10
72.749901
20
-154.883324
30
0.0
11
69.579902
21
-154.883324
31
0.0
0
LINE
8
0
62
4
5
122
100
AcDbEntity
100
AcDbLine
10
72.749901
20
-116.843319
30
0.0
11
69.579902
21
-116.843319
31
0.0
0
LINE
8
0
62
4
5
123
100
AcDbEntity
100
AcDbLine
10
63.239901
20
-126.353319
30
0.0
11
63.239901
21
-123.183320
31
0.0
0
LINE
8
0
62
4
5
124
100
AcDbEntity
100
AcDbLine
10
63.239901
20
-129.523321
30
0.0
11
63.239901
21
-126.353319
31
0.0
0
LINE
8
0
62
4
5
125
100
AcDbEntity
100
AcDbLine
10
69.579902
20
-120.013321
30
0.0
11
66.409903
21
-120.013321
31
0.0
0
LINE
8
0
62
4
5
126
100
AcDbEntity
100
AcDbLine
10
66.409903
20
-123.183320
30
0.0
11
66.409903
21
-120.013321
31
0.0
0
LINE
8
0
62
4
5
127
100
AcDbEntity
100
AcDbLine
10
66.409903
20
-139.033321
30
0.0
11
63.239901
21
-139.033321
31
0.0
0
LINE
8
0
62
4
5
128
100
AcDbEntity
100
AcDbLine
10
63.239901
20
-142.203320
30
0.0
11
63.239901
21
-139.033321
31
0.0
0
LINE
8
0
62
4
5
129
100
AcDbEntity
100
AcDbLine
10
66.409903
20
-148.543320
30
0.0
11
63.239901
21
-148.543320
31
0.0
0
LINE
8
0
62
4
5
12a
100
AcDbEntity
100
AcDbLine
10
66.409903
20
-151.713319
30
0.0
11
66.409903
21
-148.543320
31
0.0
0
LINE
8
0
62
4
5
12b
100
AcDbEntity
100
AcDbLine
10
66.409903
20
-139.033321
30
0.0
11
66.409903
21
-135.863319
31
0.0
0
LINE
8
0
62
4
5
12c
100
AcDbEntity
100
AcDbLine
10
66.409903
20
-135.863319
30
0.0
11
66.409903
21
-132.693320
31
0.0
0
LINE
8
0
62
4
5
12d
100
AcDbEntity
100
AcDbLine
10
63.239901
20
-132.693320
30
0.0
11
63.239901
21
-129.523321
31
0.0
0
LINE
8
0
62
4
5
12e
100
AcDbEntity
100
AcDbLine
10
63.239901
20
-145.373319
30
0.0
11
63.239901
21
-142.203320
31
0.0
0
LINE
8
0
62
4
5
12f
100
AcDbEntity
100
AcDbLine
10
63.239901
20
-148.543320
30
0.0
11
63.239901
21
-145.373319
31
0.0
0
LINE
8
0
62
4
5
130
100
AcDbEntity
100
AcDbLine
10
75.919903
20
-116.843319
30
0.0
11
72.749901
21
-116.843319
31
0.0
0
LINE
8
0
62
4
5
131
100
AcDbEntity
100
AcDbLine
10
79.089902
20
-116.843319
30
0.0
11
75.919903
21
-116.843319
31
0.0
0
LINE
8
0
62
4
5
132
100
AcDbEntity
100
AcDbLine
10
79.089902
20
-120.013321
30
0.0
11
79.089902
21
-116.843319
31
0.0
0
LINE
8
0
62
4
5
133
100
AcDbEntity
100
AcDbLine
10
82.259901
20
-120.013321
30
0.0
11
79.089902
21
-120.013321
31
0.0
0
LINE
8
0
62
4
5
134
100
AcDbEntity
100
AcDbLine
10
85.429903
20
-120.013321
30
0.0
11
82.259901
21
-120.013321
31
0.0
0
LINE
8
0
62
4
5
135
100
AcDbEntity
100
AcDbLine
10
85.429903
20
-120.013321
30
0.0
11
85.429903
21
-116.843319
31
0.0
0
LINE
8
0
62
4
5
136
100
AcDbEntity
100
AcDbLine
10
88.599902
20
-116.843319
30
0.0
11
85.429903
21
-116.843319
31
0.0
0
LINE
8
0
62
4
5
137
100
AcDbEntity
100
AcDbLine
10
91.769904
20
-116.843319
30
0.0
11
88.599902
21
-116.843319
31
0.0
0
LINE
8
0
62
4
5
138
100
AcDbEntity
100
AcDbLine
10
94.939903
20
-116.843319
30
0.0
11
91.769904
21
-116.843319
31
0.0
0
LINE
8
0
62
4
5
139
100
AcDbEntity
100
AcDbLine
10
94.939903
20
-120.013321
30
0.0
11
94.939903
21
-116.843319
31
0.0
0
LINE
8
0
62
4
5
13a
100
AcDbEntity
100
AcDbLine
10
98.109902
20
-120.013321
30
0.0
11
94.939903
21
-120.013321
31
0.0
0
LINE
8
0
62
4
5
13b
100
AcDbEntity
100
AcDbLine
10
69.579902
20
-120.013321
30
0.0
11
69.579902
21
-116.843319
31
0.0
0
LINE
8
0
62
4
5
13c
100
AcDbEntity
100
AcDbLine
10
63.239901
20
-123.183320
30
0.0
11
66.409903
21
-123.183320
31
0.0
0
LINE
8
0
62
4
5
13d
100
AcDbEntity
100
AcDbLine
10
47.424058
20
-151.713319
30
0.0
11
44.254056
21
-151.713319
31
0.0
0
LINE
8
0
62
4
5
13e
100
AcDbEntity
100
AcDbLine
10
53.764056
20
-151.713319
30
0.0
11
50.594057
21
-151.713319
31
0.0
0
LINE
8
0
62
4
5
13f
100
AcDbEntity
100
AcDbLine
10
56.934058
20
-148.543320
30
0.0
11
56.934058
21
-145.373319
31
0.0
0
LINE
8
0
62
4
5
140
100
AcDbEntity
100
AcDbLine
10
56.934058
20
-145.373319
30
0.0
11
56.934058
21
-142.203320
31
0.0
0
LINE
8
0
62
4
5
141
100
AcDbEntity
100
AcDbLine
10
56.934058
20
-135.863319
30
0.0
11
56.934058
21
-132.693320
31
0.0
0
LINE
8
0
62
4
5
142
100
AcDbEntity
100
AcDbLine
10
56.934058
20
-132.693320
30
0.0
11
56.934058
21
-129.523321
31
0.0
0
LINE
8
0
62
4
5
143
100
AcDbEntity
100
AcDbLine
10
60.104057
20
-154.883324
30
0.0
11
60.104057
21
-151.713319
31
0.0
0
LINE
8
0
62
4
5
144
100
AcDbEntity
100
AcDbLine
10
60.104057
20
-148.543320
30
0.0
11
56.934058
21
-148.543320
31
0.0
0
LINE
8
0
62
4
5
145
100
AcDbEntity
100
AcDbLine
10
60.104057
20
-151.713319
30
0.0
11
60.104057
21
-148.543320
31
0.0
0
LINE
8
0
62
4
5
146
100
AcDbEntity
100
AcDbLine
10
60.104057
20
-142.203320
30
0.0
11
56.934058
21
-142.203320
31
0.0
0
LINE
8
0
62
4
5
147
100
AcDbEntity
100
AcDbLine
10
60.104057
20
-142.203320
30
0.0
11
60.104057
21
-139.033321
31
0.0
0
LINE
8
0
62
4
5
148
100
AcDbEntity
100
AcDbLine
10
60.104057
20
-135.863319
30
0.0
11
56.934058
21
-135.863319
31
0.0
0
LINE
8
0
62
4
5
149
100
AcDbEntity
100
AcDbLine
10
60.104057
20
-139.033321
30
0.0
11
60.104057
21
-135.863319
31
0.0
0
LINE
8
0
62
4
5
14a
100
AcDbEntity
100
AcDbLine
10
60.104057
20
-154.883324
30
0.0
11
56.934058
21
-154.883324
31
0.0
0
LINE
8
0
62
4
5
14b
100
AcDbEntity
100
AcDbLine
10
56.934058
20
-154.883324
30
0.0
11
53.764056
21
-154.883324
31
0.0
0
LINE
8
0
62
4
5
14c
100
AcDbEntity
100
AcDbLine
10
41.084057
20
-154.883324
30
0.0
11
37.914058
21
-154.883324
31
0.0
0
LINE
8
0
62
4
5
14d
100
AcDbEntity
100
AcDbLine
10
44.254056
20
-154.883324
30
0.0
11
41.084057
21
-154.883324
31
0.0
0
LINE
8
0
62
4
5
14e
100
AcDbEntity
100
AcDbLine
10
53.764056
20
-154.883324
30
0.0
11
53.764056
21
-151.713319
31
0.0
0
LINE
8
0
62
4
5
14f
100
AcDbEntity
100
AcDbLine
10
50.594057
20
-151.713319
30
0.0
11
47.424058
21
-151.713319
31
0.0
0
LINE
8
0
62
4
5
150
100
AcDbEntity
100
AcDbLine
10
44.254056
20
-154.883324
30
0.0
11
44.254056
21
-151.713319
31
0.0
0
LINE
8
0
62
4
5
151
100
AcDbEntity
100
AcDbLine
10
37.914058
20
-154.883324
30
0.0
11
37.914058
21
-151.713319
31
0.0
0
LINE
8
0
62
4
5
152
100
AcDbEntity
100
AcDbLine
10
37.914058
20
-151.713319
30
0.0
11
34.744056
21
-151.713319
31
0.0
0
LINE
8
0
62
4
5
153
100
AcDbEntity
100
AcDbLine
10
34.744056
20
-151.713319
30
0.0
11
31.574057
21
-151.713319
31
0.0
0
LINE
8
0
62
4
5
154
100
AcDbEntity
100
AcDbLine
10
28.404058
20
-154.883324
30
0.0
11
28.404058
21
-151.713319
31
0.0
0
LINE
8
0
62
4
5
155
100
AcDbEntity
100
AcDbLine
10
31.574057
20
-151.713319
30
0.0
11
28.404058
21
-151.713319
31
0.0
0
LINE
8
0
62
4
5
156
100
AcDbEntity
100
AcDbLine
10
25.234057
20
-154.883324
30
0.0
11
25.234057
21
-151.713319
31
0.0
0
LINE
8
0
62
4
5
157
100
AcDbEntity
100
AcDbLine
10
22.064057
20
-123.183320
30
0.0
11
25.234057
21
-123.183320
31
0.0
0
LINE
8
0
62
4
5
158
100
AcDbEntity
100
AcDbLine
10
22.064057
20
-123.183320
30
0.0
11
22.064057
21
-120.013321
31
0.0
0
LINE
8
0
62
4
5
159
100
AcDbEntity
100
AcDbLine
10
22.064057
20
-120.013321
30
0.0
11
22.064057
21
-116.843319
31
0.0
0
LINE
8
0
62
4
5
15a
100
AcDbEntity
100
AcDbLine
10
25.234057
20
-116.843319
30
0.0
11
22.064057
21
-116.843319
31
0.0
0
LINE
8
0
62
4
5
15b
100
AcDbEntity
100
AcDbLine
10
22.064057
20
-148.543320
30
0.0
11
22.064057
21
-145.373319
31
0.0
0
LINE
8
0
62
4
5
15c
100
AcDbEntity
100
AcDbLine
10
22.064057
20
-145.373319
30
0.0
11
22.064057
21
-142.203320
31
0.0
0
LINE
8
0
62
4
5
15d
100
AcDbEntity
100
AcDbLine
10
22.064057
20
-135.863319
30
0.0
11
22.064057
21
-132.693320
31
0.0
0
LINE
8
0
62
4
5
15e
100
AcDbEntity
100
AcDbLine
10
22.064057
20
-132.693320
30
0.0
11
22.064057
21
-129.523321
31
0.0
0
LINE
8
0
62
4
5
15f
100
AcDbEntity
100
AcDbLine
10
25.234057
20
-126.353319
30
0.0
11
25.234057
21
-123.183320
31
0.0
0
LINE
8
0
62
4
5
160
100
AcDbEntity
100
AcDbLine
10
25.234057
20
-129.523321
30
0.0
11
25.234057
21
-126.353319
31
0.0
0
LINE
8
0
62
4
5
161
100
AcDbEntity
100
AcDbLine
10
25.234057
20
-129.523321
30
0.0
11
22.064057
21
-129.523321
31
0.0
0
LINE
8
0
62
4
5
162
100
AcDbEntity
100
AcDbLine
10
25.234057
20
-139.033321
30
0.0
11
25.234057
21
-135.863319
31
0.0
0
LINE
8
0
62
4
5
163
100
AcDbEntity
100
AcDbLine
10
25.234057
20
-135.863319
30
0.0
11
22.064057
21
-135.863319
31
0.0
0
LINE
8
0
62
4
5
164
100
AcDbEntity
100
AcDbLine
10
25.234057
20
-142.203320
30
0.0
11
25.234057
21
-139.033321
31
0.0
0
LINE
8
0
62
4
5
165
100
AcDbEntity
100
AcDbLine
10
25.234057
20
-142.203320
30
0.0
11
22.064057
21
-142.203320
31
0.0
0
LINE
8
0
62
4
5
166
100
AcDbEntity
100
AcDbLine
10
25.234057
20
-151.713319
30
0.0
11
25.234057
21
-148.543320
31
0.0
0
LINE
8
0
62
4
5
167
100
AcDbEntity
100
AcDbLine
10
25.234057
20
-148.543320
30
0.0
11
22.064057
21
-148.543320
31
0.0
0
LINE
8
0
62
4
5
168
100
AcDbEntity
100
AcDbLine
10
28.404058
20
-154.883324
30
0.0
11
25.234057
21
-154.883324
31
0.0
0
LINE
8
0
62
4
5
169
100
AcDbEntity
100
AcDbLine
10
28.404058
20
-116.843319
30
0.0
11
25.234057
21
-116.843319
31
0.0
0
LINE
8
0
62
4
5
16a
100
AcDbEntity
100
AcDbLine
10
28.404058
20
-120.013321
30
0.0
11
28.404058
21
-116.843319
31
0.0
0
LINE
8
0
62
4
5
16b
100
AcDbEntity
100
AcDbLine
10
31.574057
20
-120.013321
30
0.0
11
28.404058
21
-120.013321
31
0.0
0
LINE
8
0
62
4
5
16c
100
AcDbEntity
100
AcDbLine
10
53.764056
20
-120.013321
30
0.0
11
53.764056
21
-116.843319
31
0.0
0
LINE
8
0
62
4
5
16d
100
AcDbEntity
100
AcDbLine
10
56.934058
20
-120.013321
30
0.0
11
56.934058
21
-116.843319
31
0.0
0
LINE
8
0
62
4
5
16e
100
AcDbEntity
100
AcDbLine
10
50.594057
20
-120.013321
30
0.0
11
53.764056
21
-120.013321
31
0.0
0
LINE
8
0
62
4
5
16f
100
AcDbEntity
100
AcDbLine
10
56.934058
20
-123.183320
30
0.0
11
56.934058
21
-120.013321
31
0.0
0
LINE
8
0
62
4
5
170
100
AcDbEntity
100
AcDbLine
10
56.934058
20
-116.843319
30
0.0
11
53.764056
21
-116.843319
31
0.0
0
LINE
8
0
62
4
5
171
100
AcDbEntity
100
AcDbLine
10
50.594057
20
-120.013321
30
0.0
11
44.254056
21
-120.013321
31
0.0
0
LINE
8
0
62
4
5
172
100
AcDbEntity
100
AcDbLine
10
44.254056
20
-120.013321
30
0.0
11
44.254056
21
-116.843319
31
0.0
0
LINE
8
0
62
4
5
173
100
AcDbEntity
100
AcDbLine
10
44.254056
20
-116.843319
30
0.0
11
41.084057
21
-116.843319
31
0.0
0
LINE
8
0
62
4
5
174
100
AcDbEntity
100
AcDbLine
10
41.084057
20
-116.843319
30
0.0
11
37.914058
21
-116.843319
31
0.0
0
LINE
8
0
62
4
5
175
100
AcDbEntity
100
AcDbLine
10
37.914058
20
-120.013321
30
0.0
11
37.914058
21
-116.843319
31
0.0
0
LINE
8
0
62
4
5
176
100
AcDbEntity
100
AcDbLine
10
37.914058
20
-120.013321
30
0.0
11
31.574057
21
-120.013321
31
0.0
0
LINE
8
0
62
4
5
177
100
AcDbEntity
100
AcDbLine
10
60.104057
20
-129.523321
30
0.0
11
56.934058
21
-129.523321
31
0.0
0
LINE
8
0
62
4
5
178
100
AcDbEntity
100
AcDbLine
10
60.104057
20
-129.523321
30
0.0
11
60.104057
21
-126.353319
31
0.0
0
LINE
8
0
62
4
5
179
100
AcDbEntity
100
AcDbLine
10
60.104057
20
-123.183320
30
0.0
11
56.934058
21
-123.183320
31
0.0
0
LINE
8
0
62
4
5
17a
100
AcDbEntity
100
AcDbLine
10
60.104057
20
-126.353319
30
0.0
11
60.104057
21
-123.183320
31
0.0
0
LINE
8
0
62
4
5
17b
100
AcDbEntity
100
AcDbLine
10
63.239901
20
-82.759118
30
0.0
11
66.409903
21
-82.759118
31
0.0
0
LINE
8
0
62
4
5
17c
100
AcDbEntity
100
AcDbLine
10
69.579902
20
-79.589119
30
0.0
11
69.579902
21
-76.419117
31
0.0
0
LINE
8
0
62
4
5
17d
100
AcDbEntity
100
AcDbLine
10
98.109902
20
-82.759118
30
0.0
11
98.109902
21
-79.589119
31
0.0
0
LINE
8
0
62
4
5
17e
100
AcDbEntity
100
AcDbLine
10
98.109902
20
-98.609119
30
0.0
11
98.109902
21
-95.439117
31
0.0
0
LINE
8
0
62
4
5
17f
100
AcDbEntity
100
AcDbLine
10
98.109902
20
-95.439117
30
0.0
11
98.109902
21
-92.269118
31
0.0
0
LINE
8
0
62
4
5
180
100
AcDbEntity
100
AcDbLine
10
101.279904
20
-108.119119
30
0.0
11
98.109902
21
-108.119119
31
0.0
0
LINE
8
0
62
4
5
181
100
AcDbEntity
100
AcDbLine
10
101.279904
20
-101.779118
30
0.0
11
101.279904
21
-98.609119
31
0.0
0
LINE
8
0
62
4
5
182
100
AcDbEntity
100
AcDbLine
10
101.279904
20
-89.099119
30
0.0
11
101.279904
21
-85.929117
31
0.0
0
LINE
8
0
62
4
5
183
100
AcDbEntity
100
AcDbLine
10
101.279904
20
-82.759118
30
0.0
11
98.109902
21
-82.759118
31
0.0
0
LINE
8
0
62
4
5
184
100
AcDbEntity
100
AcDbLine
10
101.279904
20
-85.929117
30
0.0
11
101.279904
21
-82.759118
31
0.0
0
LINE
8
0
62
4
5
185
100
AcDbEntity
100
AcDbLine
10
101.279904
20
-104.949117
30
0.0
11
101.279904
21
-101.779118
31
0.0
0
LINE
8
0
62
4
5
186
100
AcDbEntity
100
AcDbLine
10
101.279904
20
-108.119119
30
0.0
11
101.279904
21
-104.949117
31
0.0
0
LINE
8
0
62
4
5
187
100
AcDbEntity
100
AcDbLine
10
101.279904
20
-92.269118
30
0.0
11
101.279904
21
-89.099119
31
0.0
0
LINE
8
0
62
4
5
188
100
AcDbEntity
100
AcDbLine
10
101.279904
20
-92.269118
30
0.0
11
98.109902
21
-92.269118
31
0.0
0
LINE
8
0
62
4
5
189
100
AcDbEntity
100
AcDbLine
10
98.109902
20
-111.289118
30
0.0
11
98.109902
21
-108.119119
31
0.0
0
LINE
8
0
62
4
5
18a
100
AcDbEntity
100
AcDbLine
10
98.109902
20
-98.609119
30
0.0
11
101.279904
21
-98.609119
31
0.0
0
LINE
8
0
62
4
5
18b
100
AcDbEntity
100
AcDbLine
10
98.109902
20
-79.589119
30
0.0
11
94.939903
21
-79.589119
31
0.0
0
LINE
8
0
62
4
5
18c
100
AcDbEntity
100
AcDbLine
10
94.939903
20
-79.589119
30
0.0
11
94.939903
21
-76.419117
31
0.0
0
LINE
8
0
62
4
5
18d
100
AcDbEntity
100
AcDbLine
10
94.939903
20
-76.419117
30
0.0
11
91.769904
21
-76.419117
31
0.0
0
LINE
8
0
62
4
5
18e
100
AcDbEntity
100
AcDbLine
10
91.769904
20
-76.419117
30
0.0
11
88.599902
21
-76.419117
31
0.0
0
LINE
8
0
62
4
5
18f
100
AcDbEntity
100
AcDbLine
10
88.599902
20
-76.419117
30
0.0
11
85.429903
21
-76.419117
31
0.0
0
LINE
8
0
62
4
5
190
100
AcDbEntity
100
AcDbLine
10
85.429903
20
-79.589119
30
0.0
11
85.429903
21
-76.419117
31
0.0
0
LINE
8
0
62
4
5
191
100
AcDbEntity
100
AcDbLine
10
85.429903
20
-79.589119
30
0.0
11
82.259901
21
-79.589119
31
0.0
0
LINE
8
0
62
4
5
192
100
AcDbEntity
100
AcDbLine
10
82.259901
20
-79.589119
30
0.0
11
79.089902
21
-79.589119
31
0.0
0
LINE
8
0
62
4
5
193
100
AcDbEntity
100
AcDbLine
10
79.089902
20
-79.589119
30
0.0
11
79.089902
21
-76.419117
31
0.0
0
LINE
8
0
62
4
5
194
100
AcDbEntity
100
AcDbLine
10
79.089902
20
-76.419117
30
0.0
11
75.919903
21
-76.419117
31
0.0
0
LINE
8
0
62
4
5
195
100
AcDbEntity
100
AcDbLine
10
75.919903
20
-76.419117
30
0.0
11
72.749901
21
-76.419117
31
0.0
0
LINE
8
0
62
4
5
196
100
AcDbEntity
100
AcDbLine
10
72.749901
20
-114.459117
30
0.0
11
69.579902
21
-114.459117
31
0.0
0
LINE
8
0
62
4
5
197
100
AcDbEntity
100
AcDbLine
10
75.919903
20
-114.459117
30
0.0
11
72.749901
21
-114.459117
31
0.0
0
LINE
8
0
62
4
5
198
100
AcDbEntity
100
AcDbLine
10
79.089902
20
-114.459117
30
0.0
11
75.919903
21
-114.459117
31
0.0
0
LINE
8
0
62
4
5
199
100
AcDbEntity
100
AcDbLine
10
88.599902
20
-114.459117
30
0.0
11
85.429903
21
-114.459117
31
0.0
0
LINE
8
0
62
4
5
19a
100
AcDbEntity
100
AcDbLine
10
91.769904
20
-114.459117
30
0.0
11
88.599902
21
-114.459117
31
0.0
0
LINE
8
0
62
4
5
19b
100
AcDbEntity
100
AcDbLine
10
63.239901
20
-108.119119
30
0.0
11
63.239901
21
-104.949117
31
0.0
0
LINE
8
0
62
4
5
19c
100
AcDbEntity
100
AcDbLine
10
63.239901
20
-104.949117
30
0.0
11
63.239901
21
-101.779118
31
0.0
0
LINE
8
0
62
4
5
19d
100
AcDbEntity
100
AcDbLine
10
63.239901
20
-92.269118
30
0.0
11
63.239901
21
-89.099119
31
0.0
0
LINE
8
0
62
4
5
19e
100
AcDbEntity
100
AcDbLine
10
94.939903
20
-114.459117
30
0.0
11
94.939903
21
-111.289118
31
0.0
0
LINE
8
0
62
4
5
19f
100
AcDbEntity
100
AcDbLine
10
85.429903
20
-114.459117
30
0.0
11
85.429903
21
-111.289118
31
0.0
0
LINE
8
0
62
4
5
1a0
100
AcDbEntity
100
AcDbLine
10
85.429903
20
-111.289118
30
0.0
11
82.259901
21
-111.289118
31
0.0
0
LINE
8
0
62
4
5
1a1
100
AcDbEntity
100
AcDbLine
10
82.259901
20
-111.289118
30
0.0
11
79.089902
21
-111.289118
31
0.0
0
LINE
8
0
62
4
5
1a2
100
AcDbEntity
100
AcDbLine
10
79.089902
20
-114.459117
30
0.0
11
79.089902
21
-111.289118
31
0.0
0
LINE
8
0
62
4
5
1a3
100
AcDbEntity
100
AcDbLine
10
69.579902
20
-114.459117
30
0.0
11
69.579902
21
-111.289118
31
0.0
0
LINE
8
0
62
4
5
1a4
100
AcDbEntity
100
AcDbLine
10
69.579902
20
-111.289118
30
0.0
11
66.409903
21
-111.289118
31
0.0
0
LINE
8
0
62
4
5
1a5
100
AcDbEntity
100
AcDbLine
10
66.409903
20
-95.439117
30
0.0
11
66.409903
21
-92.269118
31
0.0
0
LINE
8
0
62
4
5
1a6
100
AcDbEntity
100
AcDbLine
10
66.409903
20
-98.609119
30
0.0
11
66.409903
21
-95.439117
31
0.0
0
LINE
8
0
62
4
5
1a7
100
AcDbEntity
100
AcDbLine
10
66.409903
20
-111.289118
30
0.0
11
66.409903
21
-108.119119
31
0.0
0
LINE
8
0
62
4
5
1a8
100
AcDbEntity
100
AcDbLine
10
66.409903
20
-108.119119
30
0.0
11
63.239901
21
-108.119119
31
0.0
0
LINE
8
0
62
4
5
1a9
100
AcDbEntity
100
AcDbLine
10
63.239901
20
-101.779118
30
0.0
11
63.239901
21
-98.609119
31
0.0
0
LINE
8
0
62
4
5
1aa
100
AcDbEntity
100
AcDbLine
10
66.409903
20
-98.609119
30
0.0
11
63.239901
21
-98.609119
31
0.0
0
LINE
8
0
62
4
5
1ab
100
AcDbEntity
100
AcDbLine
10
66.409903
20
-82.759118
30
0.0
11
66.409903
21
-79.589119
31
0.0
0
LINE
8
0
62
4
5
1ac
100
AcDbEntity
100
AcDbLine
10
69.579902
20
-79.589119
30
0.0
11
66.409903
21
-79.589119
31
0.0
0
LINE
8
0
62
4
5
1ad
100
AcDbEntity
100
AcDbLine
10
63.239901
20
-89.099119
30
0.0
11
63.239901
21
-85.929117
31
0.0
0
LINE
8
0
62
4
5
1ae
100
AcDbEntity
100
AcDbLine
10
63.239901
20
-85.929117
30
0.0
11
63.239901
21
-82.759118
31
0.0
0
LINE
8
0
62
4
5
1af
100
AcDbEntity
100
AcDbLine
10
98.109902
20
-111.289118
30
0.0
11
94.939903
21
-111.289118
31
0.0
0
LINE
8
0
62
4
5
1b0
100
AcDbEntity
100
AcDbLine
10
72.749901
20
-76.419117
30
0.0
11
69.579902
21
-76.419117
31
0.0
0
LINE
8
0
62
4
5
1b1
100
AcDbEntity
100
AcDbLine
10
94.939903
20
-114.459117
30
0.0
11
91.769904
21
-114.459117
31
0.0
0
LINE
8
0
62
4
5
1b2
100
AcDbEntity
100
AcDbLine
10
66.409903
20
-92.269118
30
0.0
11
63.239901
21
-92.269118
31
0.0
0
LINE
8
0
62
4
5
1b3
100
AcDbEntity
100
AcDbLine
10
25.234057
20
-108.119119
30
0.0
11
22.064057
21
-108.119119
31
0.0
0
LINE
8
0
62
4
5
1b4
100
AcDbEntity
100
AcDbLine
10
25.234057
20
-111.289118
30
0.0
11
25.234057
21
-108.119119
31
0.0
0
LINE
8
0
62
4
5
1b5
100
AcDbEntity
100
AcDbLine
10
25.234057
20
-101.779118
30
0.0
11
22.064057
21
-101.779118
31
0.0
0
LINE
8
0
62
4
5
1b6
100
AcDbEntity
100
AcDbLine
10
25.234057
20
-101.779118
30
0.0
11
25.234057
21
-98.609119
31
0.0
0
LINE
8
0
62
4
5
1b7
100
AcDbEntity
100
AcDbLine
10
25.234057
20
-95.439117
30
0.0
11
22.064057
21
-95.439117
31
0.0
0
LINE
8
0
62
4
5
1b8
100
AcDbEntity
100
AcDbLine
10
25.234057
20
-98.609119
30
0.0
11
25.234057
21
-95.439117
31
0.0
0
LINE
8
0
62
4
5
1b9
100
AcDbEntity
100
AcDbLine
10
25.234057
20
-89.099119
30
0.0
11
22.064057
21
-89.099119
31
0.0
0
LINE
8
0
62
4
5
1ba
100
AcDbEntity
100
AcDbLine
10
25.234057
20
-89.099119
30
0.0
11
25.234057
21
-85.929117
31
0.0
0
LINE
8
0
62
4
5
1bb
100
AcDbEntity
100
AcDbLine
10
25.234057
20
-85.929117
30
0.0
11
25.234057
21
-82.759118
31
0.0
0
LINE
8
0
62
4
5
1bc
100
AcDbEntity
100
AcDbLine
10
22.064057
20
-92.269118
30
0.0
11
22.064057
21
-89.099119
31
0.0
0
LINE
8
0
62
4
5
1bd
100
AcDbEntity
100
AcDbLine
10
22.064057
20
-95.439117
30
0.0
11
22.064057
21
-92.269118
31
0.0
0
LINE
8
0
62
4
5
1be
100
AcDbEntity
100
AcDbLine
10
22.064057
20
-104.949117
30
0.0
11
22.064057
21
-101.779118
31
0.0
0
LINE
8
0
62
4
5
1bf
100
AcDbEntity
100
AcDbLine
10
22.064057
20
-108.119119
30
0.0
11
22.064057
21
-104.949117
31
0.0
0
LINE
8
0
62
4
5
1c0
100
AcDbEntity
100
AcDbLine
10
22.064057
20
-82.759118
30
0.0
11
22.064057
21
-79.589119
31
0.0
0
LINE
8
0
62
4
5
1c1
100
AcDbEntity
100
AcDbLine
10
22.064057
20
-82.759118
30
0.0
11
25.234057
21
-82.759118
31
0.0
0
LINE
8
0
62
4
5
1c2
100
AcDbEntity
100
AcDbLine
10
25.234057
20
-114.459117
30
0.0
11
25.234057
21
-111.289118
31
0.0
0
LINE
8
0
62
4
5
1c3
100
AcDbEntity
100
AcDbLine
10
34.744056
20
-111.289118
30
0.0
11
31.574057
21
-111.289118
31
0.0
0
LINE
8
0
62
4
5
1c4
100
AcDbEntity
100
AcDbLine
10
37.914058
20
-111.289118
30
0.0
11
34.744056
21
-111.289118
31
0.0
0
LINE
8
0
62
4
5
1c5
100
AcDbEntity
100
AcDbLine
10
37.914058
20
-114.459117
30
0.0
11
37.914058
21
-111.289118
31
0.0
0
LINE
8
0
62
4
5
1c6
100
AcDbEntity
100
AcDbLine
10
44.254056
20
-114.459117
30
0.0
11
44.254056
21
-111.289118
31
0.0
0
LINE
8
0
62
4
5
1c7
100
AcDbEntity
100
AcDbLine
10
50.594057
20
-111.289118
30
0.0
11
47.424058
21
-111.289118
31
0.0
0
LINE
8
0
62
4
5
1c8
100
AcDbEntity
100
AcDbLine
10
53.764056
20
-114.459117
30
0.0
11
53.764056
21
-111.289118
31
0.0
0
LINE
8
0
62
4
5
1c9
100
AcDbEntity
100
AcDbLine
10
44.254056
20
-114.459117
30
0.0
11
41.084057
21
-114.459117
31
0.0
0
LINE
8
0
62
4
5
1ca
100
AcDbEntity
100
AcDbLine
10
41.084057
20
-114.459117
30
0.0
11
37.914058
21
-114.459117
31
0.0
0
LINE
8
0
62
4
5
1cb
100
AcDbEntity
100
AcDbLine
10
56.934058
20
-114.459117
30
0.0
11
53.764056
21
-114.459117
31
0.0
0
LINE
8
0
62
4
5
1cc
100
AcDbEntity
100
AcDbLine
10
60.104057
20
-114.459117
30
0.0
11
56.934058
21
-114.459117
31
0.0
0
LINE
8
0
62
4
5
1cd
100
AcDbEntity
100
AcDbLine
10
60.104057
20
-114.459117
30
0.0
11
60.104057
21
-111.289118
31
0.0
0
LINE
8
0
62
4
5
1ce
100
AcDbEntity
100
AcDbLine
10
53.764056
20
-111.289118
30
0.0
11
50.594057
21
-111.289118
31
0.0
0
LINE
8
0
62
4
5
1cf
100
AcDbEntity
100
AcDbLine
10
28.404058
20
-114.459117
30
0.0
11
25.234057
21
-114.459117
31
0.0
0
LINE
8
0
62
4
5
1d0
100
AcDbEntity
100
AcDbLine
10
31.574057
20
-111.289118
30
0.0
11
28.404058
21
-111.289118
31
0.0
0
LINE
8
0
62
4
5
1d1
100
AcDbEntity
100
AcDbLine
10
28.404058
20
-114.459117
30
0.0
11
28.404058
21
-111.289118
31
0.0
0
LINE
8
0
62
4
5
1d2
100
AcDbEntity
100
AcDbLine
10
47.424058
20
-111.289118
30
0.0
11
44.254056
21
-111.289118
31
0.0
0
LINE
8
0
62
4
5
1d3
100
AcDbEntity
100
AcDbLine
10
60.104057
20
-85.929117
30
0.0
11
60.104057
21
-82.759118
31
0.0
0
LINE
8
0
62
4
5
1d4
100
AcDbEntity
100
AcDbLine
10
60.104057
20
-82.759118
30
0.0
11
56.934058
21
-82.759118
31
0.0
0
LINE
8
0
62
4
5
1d5
100
AcDbEntity
100
AcDbLine
10
60.104057
20
-89.099119
30
0.0
11
60.104057
21
-85.929117
31
0.0
0
LINE
8
0
62
4
5
1d6
100
AcDbEntity
100
AcDbLine
10
60.104057
20
-89.099119
30
0.0
11
56.934058
21
-89.099119
31
0.0
0
LINE
8
0
62
4
5
1d7
100
AcDbEntity
100
AcDbLine
10
60.104057
20
-98.609119
30
0.0
11
60.104057
21
-95.439117
31
0.0
0
LINE
8
0
62
4
5
1d8
100
AcDbEntity
100
AcDbLine
10
60.104057
20
-95.439117
30
0.0
11
56.934058
21
-95.439117
31
0.0
0
LINE
8
0
62
4
5
1d9
100
AcDbEntity
100
AcDbLine
10
60.104057
20
-101.779118
30
0.0
11
60.104057
21
-98.609119
31
0.0
0
LINE
8
0
62
4
5
1da
100
AcDbEntity
100
AcDbLine
10
60.104057
20
-101.779118
30
0.0
11
56.934058
21
-101.779118
31
0.0
0
LINE
8
0
62
4
5
1db
100
AcDbEntity
100
AcDbLine
10
60.104057
20
-111.289118
30
0.0
11
60.104057
21
-108.119119
31
0.0
0
LINE
8
0
62
4
5
1dc
100
AcDbEntity
100
AcDbLine
10
60.104057
20
-108.119119
30
0.0
11
56.934058
21
-108.119119
31
0.0
0
LINE
8
0
62
4
5
1dd
100
AcDbEntity
100
AcDbLine
10
56.934058
20
-92.269118
30
0.0
11
56.934058
21
-89.099119
31
0.0
0
LINE
8
0
62
4
5
1de
100
AcDbEntity
100
AcDbLine
10
56.934058
20
-95.439117
30
0.0
11
56.934058
21
-92.269118
31
0.0
0
LINE
8
0
62
4
5
1df
100
AcDbEntity
100
AcDbLine
10
56.934058
20
-104.949117
30
0.0
11
56.934058
21
-101.779118
31
0.0
0
LINE
8
0
62
4
5
1e0
100
AcDbEntity
100
AcDbLine
10
56.934058
20
-108.119119
30
0.0
11
56.934058
21
-104.949117
31
0.0
0
LINE
8
0
62
4
5
1e1
100
AcDbEntity
100
AcDbLine
10
31.574057
20
-79.589119
30
0.0
11
28.404058
21
-79.589119
31
0.0
0
LINE
8
0
62
4
5
1e2
100
AcDbEntity
100
AcDbLine
10
37.914058
20
-79.589119
30
0.0
11
31.574057
21
-79.589119
31
0.0
0
LINE
8
0
62
4
5
1e3
100
AcDbEntity
100
AcDbLine
10
37.914058
20
-79.589119
30
0.0
11
37.914058
21
-76.419117
31
0.0
0
LINE
8
0
62
4
5
1e4
100
AcDbEntity
100
AcDbLine
10
41.084057
20
-76.419117
30
0.0
11
37.914058
21
-76.419117
31
0.0
0
LINE
8
0
62
4
5
1e5
100
AcDbEntity
100
AcDbLine
10
44.254056
20
-76.419117
30
0.0
11
41.084057
21
-76.419117
31
0.0
0
LINE
8
0
62
4
5
1e6
100
AcDbEntity
100
AcDbLine
10
44.254056
20
-79.589119
30
0.0
11
44.254056
21
-76.419117
31
0.0
0
LINE
8
0
62
4
5
1e7
100
AcDbEntity
100
AcDbLine
10
50.594057
20
-79.589119
30
0.0
11
44.254056
21
-79.589119
31
0.0
0
LINE
8
0
62
4
5
1e8
100
AcDbEntity
100
AcDbLine
10
56.934058
20
-76.419117
30
0.0
11
53.764056
21
-76.419117
31
0.0
0
LINE
8
0
62
4
5
1e9
100
AcDbEntity
100
AcDbLine
10
28.404058
20
-79.589119
30
0.0
11
28.404058
21
-76.419117
31
0.0
0
LINE
8
0
62
4
5
1ea
100
AcDbEntity
100
AcDbLine
10
25.234057
20
-76.419117
30
0.0
11
22.064057
21
-76.419117
31
0.0
0
LINE
8
0
62
4
5
1eb
100
AcDbEntity
100
AcDbLine
10
22.064057
20
-79.589119
30
0.0
11
22.064057
21
-76.419117
31
0.0
0
LINE
8
0
62
4
5
1ec
100
AcDbEntity
100
AcDbLine
10
28.404058
20
-76.419117
30
0.0
11
25.234057
21
-76.419117
31
0.0
0
LINE
8
0
62
4
5
1ed
100
AcDbEntity
100
AcDbLine
10
50.594057
20
-79.589119
30
0.0
11
53.764056
21
-79.589119
31
0.0
0
LINE
8
0
62
4
5
1ee
100
AcDbEntity
100
AcDbLine
10
56.934058
20
-79.589119
30
0.0
11
56.934058
21
-76.419117
31
0.0
0
LINE
8
0
62
4
5
1ef
100
AcDbEntity
100
AcDbLine
10
53.764056
20
-79.589119
30
0.0
11
53.764056
21
-76.419117
31
0.0
0
LINE
8
0
62
4
5
1f0
100
AcDbEntity
100
AcDbLine
10
56.934058
20
-82.759118
30
0.0
11
56.934058
21
-79.589119
31
0.0
0
LINE
8
0
62
4
5
1f1
100
AcDbEntity
100
AcDbLine
10
47.424058
20
-70.864916
30
0.0
11
44.254056
21
-70.864916
31
0.0
0
LINE
8
0
62
4
5
1f2
100
AcDbEntity
100
AcDbLine
10
28.404058
20
-74.034915
30
0.0
11
28.404058
21
-70.864916
31
0.0
0
LINE
8
0
62
4
5
1f3
100
AcDbEntity
100
AcDbLine
10
31.574057
20
-70.864916
30
0.0
11
28.404058
21
-70.864916
31
0.0
0
LINE
8
0
62
4
5
1f4
100
AcDbEntity
100
AcDbLine
10
53.764056
20
-39.164918
30
0.0
11
53.764056
21
-35.994916
31
0.0
0
LINE
8
0
62
4
5
1f5
100
AcDbEntity
100
AcDbLine
10
56.934058
20
-39.164918
30
0.0
11
56.934058
21
-35.994916
31
0.0
0
LINE
8
0
62
4
5
1f6
100
AcDbEntity
100
AcDbLine
10
50.594057
20
-39.164918
30
0.0
11
53.764056
21
-39.164918
31
0.0
0
LINE
8
0
62
4
5
1f7
100
AcDbEntity
100
AcDbLine
10
28.404058
20
-35.994916
30
0.0
11
25.234057
21
-35.994916
31
0.0
0
LINE
8
0
62
4
5
1f8
100
AcDbEntity
100
AcDbLine
10
22.064057
20
-39.164918
30
0.0
11
22.064057
21
-35.994916
31
0.0
0
LINE
8
0
62
4
5
1f9
100
AcDbEntity
100
AcDbLine
10
25.234057
20
-35.994916
30
0.0
11
22.064057
21
-35.994916
31
0.0
0
LINE
8
0
62
4
5
1fa
100
AcDbEntity
100
AcDbLine
10
28.404058
20
-39.164918
30
0.0
11
28.404058
21
-35.994916
31
0.0
0
LINE
8
0
62
4
5
1fb
100
AcDbEntity
100
AcDbLine
10
56.934058
20
-35.994916
30
0.0
11
53.764056
21
-35.994916
31
0.0
0
LINE
8
0
62
4
5
1fc
100
AcDbEntity
100
AcDbLine
10
50.594057
20
-39.164918
30
0.0
11
44.254056
21
-39.164918
31
0.0
0
LINE
8
0
62
4
5
1fd
100
AcDbEntity
100
AcDbLine
10
44.254056
20
-39.164918
30
0.0
11
44.254056
21
-35.994916
31
0.0
0
LINE
8
0
62
4
5
1fe
100
AcDbEntity
100
AcDbLine
10
44.254056
20
-35.994916
30
0.0
11
41.084057
21
-35.994916
31
0.0
0
LINE
8
0
62
4
5
1ff
100
AcDbEntity
100
AcDbLine
10
41.084057
20
-35.994916
30
0.0
11
37.914058
21
-35.994916
31
0.0
0
LINE
8
0
62
4
5
200
100
AcDbEntity
100
AcDbLine
10
37.914058
20
-39.164918
30
0.0
11
37.914058
21
-35.994916
31
0.0
0
LINE
8
0
62
4
5
201
100
AcDbEntity
100
AcDbLine
10
37.914058
20
-39.164918
30
0.0
11
31.574057
21
-39.164918
31
0.0
0
LINE
8
0
62
4
5
202
100
AcDbEntity
100
AcDbLine
10
31.574057
20
-39.164918
30
0.0
11
28.404058
21
-39.164918
31
0.0
0
LINE
8
0
62
4
5
203
100
AcDbEntity
100
AcDbLine
10
25.234057
20
-74.034915
30
0.0
11
25.234057
21
-70.864916
31
0.0
0
LINE
8
0
62
4
5
204
100
AcDbEntity
100
AcDbLine
10
22.064057
20
-42.334917
30
0.0
11
25.234057
21
-42.334917
31
0.0
0
LINE
8
0
62
4
5
205
100
AcDbEntity
100
AcDbLine
10
22.064057
20
-42.334917
30
0.0
11
22.064057
21
-39.164918
31
0.0
0
LINE
8
0
62
4
5
206
100
AcDbEntity
100
AcDbLine
10
22.064057
20
-67.694917
30
0.0
11
22.064057
21
-64.524915
31
0.0
0
LINE
8
0
62
4
5
207
100
AcDbEntity
100
AcDbLine
10
22.064057
20
-64.524915
30
0.0
11
22.064057
21
-61.354916
31
0.0
0
LINE
8
0
62
4
5
208
100
AcDbEntity
100
AcDbLine
10
22.064057
20
-55.014916
30
0.0
11
22.064057
21
-51.844916
31
0.0
0
LINE
8
0
62
4
5
209
100
AcDbEntity
100
AcDbLine
10
22.064057
20
-51.844916
30
0.0
11
22.064057
21
-48.674917
31
0.0
0
LINE
8
0
62
4
5
20a
100
AcDbEntity
100
AcDbLine
10
25.234057
20
-45.504916
30
0.0
11
25.234057
21
-42.334917
31
0.0
0
LINE
8
0
62
4
5
20b
100
AcDbEntity
100
AcDbLine
10
25.234057
20
-48.674917
30
0.0
11
25.234057
21
-45.504916
31
0.0
0
LINE
8
0
62
4
5
20c
100
AcDbEntity
100
AcDbLine
10
25.234057
20
-48.674917
30
0.0
11
22.064057
21
-48.674917
31
0.0
0
LINE
8
0
62
4
5
20d
100
AcDbEntity
100
AcDbLine
10
25.234057
20
-58.184917
30
0.0
11
25.234057
21
-55.014916
31
0.0
0
LINE
8
0
62
4
5
20e
100
AcDbEntity
100
AcDbLine
10
25.234057
20
-55.014916
30
0.0
11
22.064057
21
-55.014916
31
0.0
0
LINE
8
0
62
4
5
20f
100
AcDbEntity
100
AcDbLine
10
25.234057
20
-61.354916
30
0.0
11
25.234057
21
-58.184917
31
0.0
0
LINE
8
0
62
4
5
210
100
AcDbEntity
100
AcDbLine
10
25.234057
20
-61.354916
30
0.0
11
22.064057
21
-61.354916
31
0.0
0
LINE
8
0
62
4
5
211
100
AcDbEntity
100
AcDbLine
10
25.234057
20
-70.864916
30
0.0
11
25.234057
21
-67.694917
31
0.0
0
LINE
8
0
62
4
5
212
100
AcDbEntity
100
AcDbLine
10
25.234057
20
-67.694917
30
0.0
11
22.064057
21
-67.694917
31
0.0
0
LINE
8
0
62
4
5
213
100
AcDbEntity
100
AcDbLine
10
28.404058
20
-74.034915
30
0.0
11
25.234057
21
-74.034915
31
0.0
0
LINE
8
0
62
4
5
214
100
AcDbEntity
100
AcDbLine
10
53.764056
20
-70.864916
30
0.0
11
50.594057
21
-70.864916
31
0.0
0
LINE
8
0
62
4
5
215
100
AcDbEntity
100
AcDbLine
10
56.934058
20
-42.334917
30
0.0
11
56.934058
21
-39.164918
31
0.0
0
LINE
8
0
62
4
5
216
100
AcDbEntity
100
AcDbLine
10
56.934058
20
-67.694917
30
0.0
11
56.934058
21
-64.524915
31
0.0
0
LINE
8
0
62
4
5
217
100
AcDbEntity
100
AcDbLine
10
56.934058
20
-64.524915
30
0.0
11
56.934058
21
-61.354916
31
0.0
0
LINE
8
0
62
4
5
218
100
AcDbEntity
100
AcDbLine
10
56.934058
20
-55.014916
30
0.0
11
56.934058
21
-51.844916
31
0.0
0
LINE
8
0
62
4
5
219
100
AcDbEntity
100
AcDbLine
10
56.934058
20
-51.844916
30
0.0
11
56.934058
21
-48.674917
31
0.0
0
LINE
8
0
62
4
5
21a
100
AcDbEntity
100
AcDbLine
10
60.104057
20
-74.034915
30
0.0
11
60.104057
21
-70.864916
31
0.0
0
LINE
8
0
62
4
5
21b
100
AcDbEntity
100
AcDbLine
10
60.104057
20
-67.694917
30
0.0
11
56.934058
21
-67.694917
31
0.0
0
LINE
8
0
62
4
5
21c
100
AcDbEntity
100
AcDbLine
10
60.104057
20
-70.864916
30
0.0
11
60.104057
21
-67.694917
31
0.0
0
LINE
8
0
62
4
5
21d
100
AcDbEntity
100
AcDbLine
10
60.104057
20
-61.354916
30
0.0
11
56.934058
21
-61.354916
31
0.0
0
LINE
8
0
62
4
5
21e
100
AcDbEntity
100
AcDbLine
10
60.104057
20
-61.354916
30
0.0
11
60.104057
21
-58.184917
31
0.0
0
LINE
8
0
62
4
5
21f
100
AcDbEntity
100
AcDbLine
10
60.104057
20
-55.014916
30
0.0
11
56.934058
21
-55.014916
31
0.0
0
LINE
8
0
62
4
5
220
100
AcDbEntity
100
AcDbLine
10
60.104057
20
-58.184917
30
0.0
11
60.104057
21
-55.014916
31
0.0
0
LINE
8
0
62
4
5
221
100
AcDbEntity
100
AcDbLine
10
60.104057
20
-48.674917
30
0.0
11
56.934058
21
-48.674917
31
0.0
0
LINE
8
0
62
4
5
222
100
AcDbEntity
100
AcDbLine
10
60.104057
20
-48.674917
30
0.0
11
60.104057
21
-45.504916
31
0.0
0
LINE
8
0
62
4
5
223
100
AcDbEntity
100
AcDbLine
10
60.104057
20
-42.334917
30
0.0
11
56.934058
21
-42.334917
31
0.0
0
LINE
8
0
62
4
5
224
100
AcDbEntity
100
AcDbLine
10
60.104057
20
-45.504916
30
0.0
11
60.104057
21
-42.334917
31
0.0
0
LINE
8
0
62
4
5
225
100
AcDbEntity
100
AcDbLine
10
60.104057
20
-74.034915
30
0.0
11
56.934058
21
-74.034915
31
0.0
0
LINE
8
0
62
4
5
226
100
AcDbEntity
100
AcDbLine
10
56.934058
20
-74.034915
30
0.0
11
53.764056
21
-74.034915
31
0.0
0
LINE
8
0
62
4
5
227
100
AcDbEntity
100
AcDbLine
10
41.084057
20
-74.034915
30
0.0
11
37.914058
21
-74.034915
31
0.0
0
LINE
8
0
62
4
5
228
100
AcDbEntity
100
AcDbLine
10
44.254056
20
-74.034915
30
0.0
11
41.084057
21
-74.034915
31
0.0
0
LINE
8
0
62
4
5
229
100
AcDbEntity
100
AcDbLine
10
53.764056
20
-74.034915
30
0.0
11
53.764056
21
-70.864916
31
0.0
0
LINE
8
0
62
4
5
22a
100
AcDbEntity
100
AcDbLine
10
50.594057
20
-70.864916
30
0.0
11
47.424058
21
-70.864916
31
0.0
0
LINE
8
0
62
4
5
22b
100
AcDbEntity
100
AcDbLine
10
44.254056
20
-74.034915
30
0.0
11
44.254056
21
-70.864916
31
0.0
0
LINE
8
0
62
4
5
22c
100
AcDbEntity
100
AcDbLine
10
37.914058
20
-74.034915
30
0.0
11
37.914058
21
-70.864916
31
0.0
0
LINE
8
0
62
4
5
22d
100
AcDbEntity
100
AcDbLine
10
37.914058
20
-70.864916
30
0.0
11
34.744056
21
-70.864916
31
0.0
0
LINE
8
0
62
4
5
22e
100
AcDbEntity
100
AcDbLine
10
34.744056
20
-70.864916
30
0.0
11
31.574057
21
-70.864916
31
0.0
0
LINE
8
0
62
4
5
22f
100
AcDbEntity
100
AcDbLine
10
88.599902
20
-70.864916
30
0.0
11
85.429903
21
-70.864916
31
0.0
0
LINE
8
0
62
4
5
230
100
AcDbEntity
100
AcDbLine
10
69.579902
20
-74.034915
30
0.0
11
69.579902
21
-70.864916
31
0.0
0
LINE
8
0
62
4
5
231
100
AcDbEntity
100
AcDbLine
10
72.749901
20
-70.864916
30
0.0
11
69.579902
21
-70.864916
31
0.0
0
LINE
8
0
62
4
5
232
100
AcDbEntity
100
AcDbLine
10
66.409903
20
-74.034915
30
0.0
11
66.409903
21
-70.864916
31
0.0
0
LINE
8
0
62
4
5
233
100
AcDbEntity
100
AcDbLine
10
69.579902
20
-74.034915
30
0.0
11
66.409903
21
-74.034915
31
0.0
0
LINE
8
0
62
4
5
234
100
AcDbEntity
100
AcDbLine
10
94.939903
20
-70.864916
30
0.0
11
91.769904
21
-70.864916
31
0.0
0
LINE
8
0
62
4
5
235
100
AcDbEntity
100
AcDbLine
10
98.109902
20
-74.034915
30
0.0
11
94.939903
21
-74.034915
31
0.0
0
LINE
8
0
62
4
5
236
100
AcDbEntity
100
AcDbLine
10
82.259901
20
-74.034915
30
0.0
11
79.089902
21
-74.034915
31
0.0
0
LINE
8
0
62
4
5
237
100
AcDbEntity
100
AcDbLine
10
85.429903
20
-74.034915
30
0.0
11
82.259901
21
-74.034915
31
0.0
0
LINE
8
0
62
4
5
238
100
AcDbEntity
100
AcDbLine
10
94.939903
20
-74.034915
30
0.0
11
94.939903
21
-70.864916
31
0.0
0
LINE
8
0
62
4
5
239
100
AcDbEntity
100
AcDbLine
10
91.769904
20
-70.864916
30
0.0
11
88.599902
21
-70.864916
31
0.0
0
LINE
8
0
62
4
5
23a
100
AcDbEntity
100
AcDbLine
10
85.429903
20
-74.034915
30
0.0
11
85.429903
21
-70.864916
31
0.0
0
LINE
8
0
62
4
5
23b
100
AcDbEntity
100
AcDbLine
10
79.089902
20
-74.034915
30
0.0
11
79.089902
21
-70.864916
31
0.0
0
LINE
8
0
62
4
5
23c
100
AcDbEntity
100
AcDbLine
10
79.089902
20
-70.864916
30
0.0
11
75.919903
21
-70.864916
31
0.0
0
LINE
8
0
62
4
5
23d
100
AcDbEntity
100
AcDbLine
10
75.919903
20
-70.864916
30
0.0
11
72.749901
21
-70.864916
31
0.0
0
LINE
8
0
62
4
5
23e
100
AcDbEntity
100
AcDbLine
10
94.939903
20
-39.164918
30
0.0
11
94.939903
21
-35.994916
31
0.0
0
LINE
8
0
62
4
5
23f
100
AcDbEntity
100
AcDbLine
10
98.109902
20
-39.164918
30
0.0
11
98.109902
21
-35.994916
31
0.0
0
LINE
8
0
62
4
5
240
100
AcDbEntity
100
AcDbLine
10
98.109902
20
-42.334917
30
0.0
11
98.109902
21
-39.164918
31
0.0
0
LINE
8
0
62
4
5
241
100
AcDbEntity
100
AcDbLine
10
98.109902
20
-67.694917
30
0.0
11
98.109902
21
-64.524915
31
0.0
0
LINE
8
0
62
4
5
242
100
AcDbEntity
100
AcDbLine
10
98.109902
20
-64.524915
30
0.0
11
98.109902
21
-61.354916
31
0.0
0
LINE
8
0
62
4
5
243
100
AcDbEntity
100
AcDbLine
10
98.109902
20
-55.014916
30
0.0
11
98.109902
21
-51.844916
31
0.0
0
LINE
8
0
62
4
5
244
100
AcDbEntity
100
AcDbLine
10
98.109902
20
-51.844916
30
0.0
11
98.109902
21
-48.674917
31
0.0
0
LINE
8
0
62
4
5
245
100
AcDbEntity
100
AcDbLine
10
101.279904
20
-74.034915
30
0.0
11
101.279904
21
-70.864916
31
0.0
0
LINE
8
0
62
4
5
246
100
AcDbEntity
100
AcDbLine
10
101.279904
20
-67.694917
30
0.0
11
98.109902
21
-67.694917
31
0.0
0
LINE
8
0
62
4
5
247
100
AcDbEntity
100
AcDbLine
10
101.279904
20
-70.864916
30
0.0
11
101.279904
21
-67.694917
31
0.0
0
LINE
8
0
62
4
5
248
100
AcDbEntity
100
AcDbLine
10
101.279904
20
-61.354916
30
0.0
11
98.109902
21
-61.354916
31
0.0
0
LINE
8
0
62
4
5
249
100
AcDbEntity
100
AcDbLine
10
101.279904
20
-61.354916
30
0.0
11
101.279904
21
-58.184917
31
0.0
0
LINE
8
0
62
4
5
24a
100
AcDbEntity
100
AcDbLine
10
101.279904
20
-55.014916
30
0.0
11
98.109902
21
-55.014916
31
0.0
0
LINE
8
0
62
4
5
24b
100
AcDbEntity
100
AcDbLine
10
101.279904
20
-58.184917
30
0.0
11
101.279904
21
-55.014916
31
0.0
0
LINE
8
0
62
4
5
24c
100
AcDbEntity
100
AcDbLine
10
101.279904
20
-48.674917
30
0.0
11
98.109902
21
-48.674917
31
0.0
0
LINE
8
0
62
4
5
24d
100
AcDbEntity
100
AcDbLine
10
101.279904
20
-48.674917
30
0.0
11
101.279904
21
-45.504916
31
0.0
0
LINE
8
0
62
4
5
24e
100
AcDbEntity
100
AcDbLine
10
101.279904
20
-42.334917
30
0.0
11
98.109902
21
-42.334917
31
0.0
0
LINE
8
0
62
4
5
24f
100
AcDbEntity
100
AcDbLine
10
101.279904
20
-45.504916
30
0.0
11
101.279904
21
-42.334917
31
0.0
0
LINE
8
0
62
4
5
250
100
AcDbEntity
100
AcDbLine
10
101.279904
20
-74.034915
30
0.0
11
98.109902
21
-74.034915
31
0.0
0
LINE
8
0
62
4
5
251
100
AcDbEntity
100
AcDbLine
10
91.769904
20
-39.164918
30
0.0
11
94.939903
21
-39.164918
31
0.0
0
LINE
8
0
62
4
5
252
100
AcDbEntity
100
AcDbLine
10
69.579902
20
-35.994916
30
0.0
11
66.409903
21
-35.994916
31
0.0
0
LINE
8
0
62
4
5
253
100
AcDbEntity
100
AcDbLine
10
63.239901
20
-42.334917
30
0.0
11
66.409903
21
-42.334917
31
0.0
0
LINE
8
0
62
4
5
254
100
AcDbEntity
100
AcDbLine
10
63.239901
20
-42.334917
30
0.0
11
63.239901
21
-39.164918
31
0.0
0
LINE
8
0
62
4
5
255
100
AcDbEntity
100
AcDbLine
10
63.239901
20
-39.164918
30
0.0
11
63.239901
21
-35.994916
31
0.0
0
LINE
8
0
62
4
5
256
100
AcDbEntity
100
AcDbLine
10
66.409903
20
-35.994916
30
0.0
11
63.239901
21
-35.994916
31
0.0
0
LINE
8
0
62
4
5
257
100
AcDbEntity
100
AcDbLine
10
69.579902
20
-39.164918
30
0.0
11
69.579902
21
-35.994916
31
0.0
0
LINE
8
0
62
4
5
258
100
AcDbEntity
100
AcDbLine
10
98.109902
20
-35.994916
30
0.0
11
94.939903
21
-35.994916
31
0.0
0
LINE
8
0
62
4
5
259
100
AcDbEntity
100
AcDbLine
10
91.769904
20
-39.164918
30
0.0
11
85.429903
21
-39.164918
31
0.0
0
LINE
8
0
62
4
5
25a
100
AcDbEntity
100
AcDbLine
10
85.429903
20
-39.164918
30
0.0
11
85.429903
21
-35.994916
31
0.0
0
LINE
8
0
62
4
5
25b
100
AcDbEntity
100
AcDbLine
10
85.429903
20
-35.994916
30
0.0
11
82.259901
21
-35.994916
31
0.0
0
LINE
8
0
62
4
5
25c
100
AcDbEntity
100
AcDbLine
10
82.259901
20
-35.994916
30
0.0
11
79.089902
21
-35.994916
31
0.0
0
LINE
8
0
62
4
5
25d
100
AcDbEntity
100
AcDbLine
10
79.089902
20
-39.164918
30
0.0
11
79.089902
21
-35.994916
31
0.0
0
LINE
8
0
62
4
5
25e
100
AcDbEntity
100
AcDbLine
10
79.089902
20
-39.164918
30
0.0
11
72.749901
21
-39.164918
31
0.0
0
LINE
8
0
62
4
5
25f
100
AcDbEntity
100
AcDbLine
10
72.749901
20
-39.164918
30
0.0
11
69.579902
21
-39.164918
31
0.0
0
LINE
8
0
62
4
5
260
100
AcDbEntity
100
AcDbLine
10
63.239901
20
-67.694917
30
0.0
11
63.239901
21
-64.524915
31
0.0
0
LINE
8
0
62
4
5
261
100
AcDbEntity
100
AcDbLine
10
63.239901
20
-64.524915
30
0.0
11
63.239901
21
-61.354916
31
0.0
0
LINE
8
0
62
4
5
262
100
AcDbEntity
100
AcDbLine
10
63.239901
20
-55.014916
30
0.0
11
63.239901
21
-51.844916
31
0.0
0
LINE
8
0
62
4
5
263
100
AcDbEntity
100
AcDbLine
10
63.239901
20
-51.844916
30
0.0
11
63.239901
21
-48.674917
31
0.0
0
LINE
8
0
62
4
5
264
100
AcDbEntity
100
AcDbLine
10
66.409903
20
-45.504916
30
0.0
11
66.409903
21
-42.334917
31
0.0
0
LINE
8
0
62
4
5
265
100
AcDbEntity
100
AcDbLine
10
66.409903
20
-48.674917
30
0.0
11
66.409903
21
-45.504916
31
0.0
0
LINE
8
0
62
4
5
266
100
AcDbEntity
100
AcDbLine
10
66.409903
20
-48.674917
30
0.0
11
63.239901
21
-48.674917
31
0.0
0
LINE
8
0
62
4
5
267
100
AcDbEntity
100
AcDbLine
10
66.409903
20
-58.184917
30
0.0
11
66.409903
21
-55.014916
31
0.0
0
LINE
8
0
62
4
5
268
100
AcDbEntity
100
AcDbLine
10
66.409903
20
-55.014916
30
0.0
11
63.239901
21
-55.014916
31
0.0
0
LINE
8
0
62
4
5
269
100
AcDbEntity
100
AcDbLine
10
66.409903
20
-61.354916
30
0.0
11
66.409903
21
-58.184917
31
0.0
0
LINE
8
0
62
4
5
26a
100
AcDbEntity
100
AcDbLine
10
66.409903
20
-61.354916
30
0.0
11
63.239901
21
-61.354916
31
0.0
0
LINE
8
0
62
4
5
26b
100
AcDbEntity
100
AcDbLine
10
66.409903
20
-70.864916
30
0.0
11
66.409903
21
-67.694917
31
0.0
0
LINE
8
0
62
4
5
26c
100
AcDbEntity
100
AcDbLine
10
66.409903
20
-67.694917
30
0.0
11
63.239901
21
-67.694917
31
0.0
  0
ENDSEC
  0
SECTION
  2
OBJECTS
  0
DICTIONARY
  5
C
330
0
100
AcDbDictionary
  3
ACAD_GROUP
350
D
  3
ACAD_MLINESTYLE
350
17
  0
DICTIONARY
  5
D
330
C
100
AcDbDictionary
  0
DICTIONARY
  5
1A
330
C
100
AcDbDictionary
  0
DICTIONARY
  5
17
330
C
100
AcDbDictionary
  3
STANDARD
350
18
  0
DICTIONARY
  5
19
330
C
100
AcDbDictionary
  0
ENDSEC
  0
EOF
