  0
SECTION
  2
HEADER
  9
$ACADVER
  1
AC1015
  9
$ACADMAINTVER
 70
    20
  9
$DWGCODEPAGE
  3
ANSI_1252
  9
$INSBASE
 10
0.0
 20
0.0
 30
0.0
  9
$EXTMIN
 10
-43.37856062705862
 20
-29.84211709731875
 30
-0.0015258207003583
  9
$EXTMAX
 10
35.84062663167142
 20
89.04679008492005
 30
0.0000000349246037
  9
$LIMMIN
 10
0.0
 20
0.0
  9
$LIMMAX
 10
12.0
 20
9.0
  9
$ORTHOMODE
 70
     1
  9
$REGENMODE
 70
     1
  9
$FILLMODE
 70
     1
  9
$QTEXTMODE
 70
     0
  9
$MIRRTEXT
 70
     0
  9
$LTSCALE
 40
1.0
  9
$ATTMODE
 70
     1
  9
$TEXTSIZE
 40
0.2
  9
$TRACEWID
 40
0.05
  9
$TEXTSTYLE
  7
Standard
  9
$CLAYER
  8
0
  9
$CELTYPE
  6
ByLayer
  9
$CECOLOR
 62
   256
  9
$CELTSCALE
 40
1.0
  9
$DISPSILH
 70
     0
  9
$DIMSCALE
 40
1.0
  9
$DIMASZ
 40
0.18
  9
$DIMEXO
 40
0.0625
  9
$DIMDLI
 40
0.38
  9
$DIMRND
 40
0.0
  9
$DIMDLE
 40
0.0
  9
$DIMEXE
 40
0.18
  9
$DIMTP
 40
0.0
  9
$DIMTM
 40
0.0
  9
$DIMTXT
 40
0.18
  9
$DIMCEN
 40
0.09
  9
$DIMTSZ
 40
0.0
  9
$DIMTOL
 70
     0
  9
$DIMLIM
 70
     0
  9
$DIMTIH
 70
     1
  9
$DIMTOH
 70
     1
  9
$DIMSE1
 70
     0
  9
$DIMSE2
 70
     0
  9
$DIMTAD
 70
     0
  9
$DIMZIN
 70
     0
  9
$DIMBLK
  1

  9
$DIMASO
 70
     1
  9
$DIMSHO
 70
     1
  9
$DIMPOST
  1

  9
$DIMAPOST
  1

  9
$DIMALT
 70
     0
  9
$DIMALTD
 70
     2
  9
$DIMALTF
 40
25.4
  9
$DIMLFAC
 40
1.0
  9
$DIMTOFL
 70
     0
  9
$DIMTVP
 40
0.0
  9
$DIMTIX
 70
     0
  9
$DIMSOXD
 70
     0
  9
$DIMSAH
 70
     0
  9
$DIMBLK1
  1

  9
$DIMBLK2
  1

  9
$DIMSTYLE
  2
Standard
  9
$DIMCLRD
 70
     0
  9
$DIMCLRE
 70
     0
  9
$DIMCLRT
 70
     0
  9
$DIMTFAC
 40
1.0
  9
$DIMGAP
 40
0.09
  9
$DIMJUST
 70
     0
  9
$DIMSD1
 70
     0
  9
$DIMSD2
 70
     0
  9
$DIMTOLJ
 70
     1
  9
$DIMTZIN
 70
     0
  9
$DIMALTZ
 70
     0
  9
$DIMALTTZ
 70
     0
  9
$DIMUPT
 70
     0
  9
$DIMDEC
 70
     4
  9
$DIMTDEC
 70
     4
  9
$DIMALTU
 70
     2
  9
$DIMALTTD
 70
     2
  9
$DIMTXSTY
  7
Standard
  9
$DIMAUNIT
 70
     0
  9
$DIMADEC
 70
     0
  9
$DIMALTRND
 40
0.0
  9
$DIMAZIN
 70
     0
  9
$DIMDSEP
 70
    46
  9
$DIMATFIT
 70
     3
  9
$DIMFRAC
 70
     0
  9
$DIMLDRBLK
  1

  9
$DIMLUNIT
 70
     2
  9
$DIMLWD
 70
    -2
  9
$DIMLWE
 70
    -2
  9
$DIMTMOVE
 70
     0
  9
$LUNITS
 70
     2
  9
$LUPREC
 70
     4
  9
$SKETCHINC
 40
0.1
  9
$FILLETRAD
 40
0.0
  9
$AUNITS
 70
     0
  9
$AUPREC
 70
     0
  9
$MENU
  1
.
  9
$ELEVATION
 40
0.0
  9
$PELEVATION
 40
0.0
  9
$THICKNESS
 40
0.0
  9
$LIMCHECK
 70
     0
  9
$CHAMFERA
 40
0.0
  9
$CHAMFERB
 40
0.0
  9
$CHAMFERC
 40
0.0
  9
$CHAMFERD
 40
0.0
  9
$SKPOLY
 70
     0
  9
$TDCREATE
 40
2455575.701514375
  9
$TDUCREATE
 40
2455575.909847709
  9
$TDUPDATE
 40
2455577.880612755
  9
$TDUUPDATE
 40
2455578.088946088
  9
$TDINDWG
 40
0.0759691898
  9
$TDUSRTIMER
 40
0.0759688310
  9
$USRTIMER
 70
     1
  9
$ANGBASE
 50
0.0
  9
$ANGDIR
 70
     0
  9
$PDMODE
 70
     0
  9
$PDSIZE
 40
0.0
  9
$PLINEWID
 40
0.0
  9
$SPLFRAME
 70
     0
  9
$SPLINETYPE
 70
     6
  9
$SPLINESEGS
 70
     8
  9
$HANDSEED
  5
7A4
  9
$SURFTAB1
 70
     6
  9
$SURFTAB2
 70
     6
  9
$SURFTYPE
 70
     6
  9
$SURFU
 70
     6
  9
$SURFV
 70
     6
  9
$UCSBASE
  2

  9
$UCSNAME
  2

  9
$UCSORG
 10
0.0
 20
0.0
 30
0.0
  9
$UCSXDIR
 10
1.0
 20
0.0
 30
0.0
  9
$UCSYDIR
 10
0.0
 20
1.0
 30
0.0
  9
$UCSORTHOREF
  2

  9
$UCSORTHOVIEW
 70
     0
  9
$UCSORGTOP
 10
0.0
 20
0.0
 30
0.0
  9
$UCSORGBOTTOM
 10
0.0
 20
0.0
 30
0.0
  9
$UCSORGLEFT
 10
0.0
 20
0.0
 30
0.0
  9
$UCSORGRIGHT
 10
0.0
 20
0.0
 30
0.0
  9
$UCSORGFRONT
 10
0.0
 20
0.0
 30
0.0
  9
$UCSORGBACK
 10
0.0
 20
0.0
 30
0.0
  9
$PUCSBASE
  2

  9
$PUCSNAME
  2

  9
$PUCSORG
 10
0.0
 20
0.0
 30
0.0
  9
$PUCSXDIR
 10
1.0
 20
0.0
 30
0.0
  9
$PUCSYDIR
 10
0.0
 20
1.0
 30
0.0
  9
$PUCSORTHOREF
  2

  9
$PUCSORTHOVIEW
 70
     0
  9
$PUCSORGTOP
 10
0.0
 20
0.0
 30
0.0
  9
$PUCSORGBOTTOM
 10
0.0
 20
0.0
 30
0.0
  9
$PUCSORGLEFT
 10
0.0
 20
0.0
 30
0.0
  9
$PUCSORGRIGHT
 10
0.0
 20
0.0
 30
0.0
  9
$PUCSORGFRONT
 10
0.0
 20
0.0
 30
0.0
  9
$PUCSORGBACK
 10
0.0
 20
0.0
 30
0.0
  9
$USERI1
 70
     0
  9
$USERI2
 70
     0
  9
$USERI3
 70
     0
  9
$USERI4
 70
     0
  9
$USERI5
 70
     0
  9
$USERR1
 40
0.0
  9
$USERR2
 40
0.0
  9
$USERR3
 40
0.0
  9
$USERR4
 40
0.0
  9
$USERR5
 40
0.0
  9
$WORLDVIEW
 70
     1
  9
$SHADEDGE
 70
     3
  9
$SHADEDIF
 70
    70
  9
$TILEMODE
 70
     1
  9
$MAXACTVP
 70
    64
  9
$PINSBASE
 10
0.0
 20
0.0
 30
0.0
  9
$PLIMCHECK
 70
     0
  9
$PEXTMIN
 10
0.0
 20
0.0
 30
0.0
  9
$PEXTMAX
 10
0.0
 20
0.0
 30
0.0
  9
$PLIMMIN
 10
0.0
 20
0.0
  9
$PLIMMAX
 10
12.0
 20
9.0
  9
$UNITMODE
 70
     0
  9
$VISRETAIN
 70
     1
  9
$PLINEGEN
 70
     0
  9
$PSLTSCALE
 70
     1
  9
$TREEDEPTH
 70
  3020
  9
$CMLSTYLE
  2
Standard
  9
$CMLJUST
 70
     0
  9
$CMLSCALE
 40
1.0
  9
$PROXYGRAPHICS
 70
     1
  9
$MEASUREMENT
 70
     0
  9
$CELWEIGHT
370
    -1
  9
$ENDCAPS
280
     0
  9
$JOINSTYLE
280
     0
  9
$LWDISPLAY
290
     0
  9
$INSUNITS
 70
     4
  9
$HYPERLINKBASE
  1

  9
$STYLESHEET
  1

  9
$XEDIT
290
     1
  9
$CEPSNTYPE
380
     0
  9
$PSTYLEMODE
290
     1
  9
$FINGERPRINTGUID
  2
{FDEAD576-A652-11D2-9A35-0060089B3A3F}
  9
$VERSIONGUID
  2
{65D92250-BEEB-4A29-8176-390F07BC702D}
  9
$EXTNAMES
290
     1
  9
$PSVPSCALE
 40
0.0
  9
$OLESTARTUP
290
     0
  0
ENDSEC
  0
SECTION
  2
CLASSES
  0
CLASS
  1
ACDBDICTIONARYWDFLT
  2
AcDbDictionaryWithDefault
  3
ObjectDBX Classes
 90
        0
280
     0
281
     0
  0
CLASS
  1
ACDBPLACEHOLDER
  2
AcDbPlaceHolder
  3
ObjectDBX Classes
 90
        0
280
     0
281
     0
  0
CLASS
  1
LAYOUT
  2
AcDbLayout
  3
ObjectDBX Classes
 90
        0
280
     0
281
     0
  0
CLASS
  1
DICTIONARYVAR
  2
AcDbDictionaryVar
  3
ObjectDBX Classes
 90
        0
280
     0
281
     0
  0
ENDSEC
  0
SECTION
  2
TABLES
  0
TABLE
  2
VPORT
  5
8
330
0
100
AcDbSymbolTable
 70
     4
  0
VPORT
  5
79A
330
8
100
AcDbSymbolTableRecord
100
AcDbViewportTableRecord
  2
*Active
 70
     0
 10
0.0
 20
0.0
 11
1.0
 21
1.0
 12
-3.768966997693595
 22
29.60233649380065
 13
0.0
 23
0.0
 14
0.5
 24
0.5
 15
0.5
 25
0.5
 16
0.0
 26
0.0
 36
1.0
 17
0.0
 27
0.0
 37
0.0
 40
120.0009056614199
 41
2.354938271604938
 42
50.0
 43
0.0
 44
0.0
 50
0.0
 51
0.0
 71
     0
 72
  1000
 73
     1
 74
     2
 75
     0
 76
     0
 77
     0
 78
     0
281
     0
 65
     1
110
0.0
120
0.0
130
0.0
111
1.0
121
0.0
131
0.0
112
0.0
122
1.0
132
0.0
 79
     0
146
0.0
  0
ENDTAB
  0
TABLE
  2
LTYPE
  5
5
330
0
100
AcDbSymbolTable
 70
     1
  0
LTYPE
  5
14
330
5
100
AcDbSymbolTableRecord
100
AcDbLinetypeTableRecord
  2
ByBlock
 70
     0
  3

 72
    65
 73
     0
 40
0.0
  0
LTYPE
  5
15
330
5
100
AcDbSymbolTableRecord
100
AcDbLinetypeTableRecord
  2
ByLayer
 70
     0
  3

 72
    65
 73
     0
 40
0.0
  0
LTYPE
  5
16
330
5
100
AcDbSymbolTableRecord
100
AcDbLinetypeTableRecord
  2
Continuous
 70
     0
  3
Solid line
 72
    65
 73
     0
 40
0.0
  0
ENDTAB
  0
TABLE
  2
LAYER
  5
2
330
0
100
AcDbSymbolTable
 70
     1
  0
LAYER
  5
10
330
2
100
AcDbSymbolTableRecord
100
AcDbLayerTableRecord
  2
0
 70
     0
 62
     7
  6
Continuous
370
    -3
390
F
  0
ENDTAB
  0
TABLE
  2
STYLE
  5
3
330
0
100
AcDbSymbolTable
 70
     1
  0
STYLE
  5
11
330
3
100
AcDbSymbolTableRecord
100
AcDbTextStyleTableRecord
  2
Standard
 70
     0
 40
0.0
 41
1.0
 50
0.0
 71
     0
 42
0.2
  3
txt
  4

  0
ENDTAB
  0
TABLE
  2
VIEW
  5
6
330
0
100
AcDbSymbolTable
 70
     0
  0
ENDTAB
  0
TABLE
  2
UCS
  5
7
330
0
100
AcDbSymbolTable
 70
     0
  0
ENDTAB
  0
TABLE
  2
APPID
  5
9
330
0
100
AcDbSymbolTable
 70
     1
  0
APPID
  5
12
330
9
100
AcDbSymbolTableRecord
100
AcDbRegAppTableRecord
  2
ACAD
 70
     0
  0
ENDTAB
  0
TABLE
  2
DIMSTYLE
  5
A
330
0
100
AcDbSymbolTable
 70
     1
100
AcDbDimStyleTable
 71
     0
  0
DIMSTYLE
105
27
330
A
100
AcDbSymbolTableRecord
100
AcDbDimStyleTableRecord
  2
Standard
 70
     0
340
11
  0
ENDTAB
  0
TABLE
  2
BLOCK_RECORD
  5
1
330
0
100
AcDbSymbolTable
 70
     1
  0
BLOCK_RECORD
  5
1F
330
1
100
AcDbSymbolTableRecord
100
AcDbBlockTableRecord
  2
*Model_Space
340
22
  0
BLOCK_RECORD
  5
58
330
1
100
AcDbSymbolTableRecord
100
AcDbBlockTableRecord
  2
*Paper_Space
340
59
  0
BLOCK_RECORD
  5
5D
330
1
100
AcDbSymbolTableRecord
100
AcDbBlockTableRecord
  2
*Paper_Space0
340
5E
  0
ENDTAB
  0
ENDSEC
  0
SECTION
  2
BLOCKS
  0
BLOCK
  5
20
330
1F
100
AcDbEntity
  8
0
100
AcDbBlockBegin
  2
*Model_Space
 70
     0
 10
0.0
 20
0.0
 30
0.0
  3
*Model_Space
  1

  0
ENDBLK
  5
21
330
1F
100
AcDbEntity
  8
0
100
AcDbBlockEnd
  0
BLOCK
  5
5A
330
58
100
AcDbEntity
 67
     1
  8
0
100
AcDbBlockBegin
  2
*Paper_Space
 70
     0
 10
0.0
 20
0.0
 30
0.0
  3
*Paper_Space
  1

  0
ENDBLK
  5
5B
330
58
100
AcDbEntity
 67
     1
  8
0
100
AcDbBlockEnd
  0
BLOCK
  5
5F
330
5D
100
AcDbEntity
  8
0
100
AcDbBlockBegin
  2
*Paper_Space0
 70
     0
 10
0.0
 20
0.0
 30
0.0
  3
*Paper_Space0
  1

  0
ENDBLK
  5
60
330
5D
100
AcDbEntity
  8
0
100
AcDbBlockEnd
  0
ENDSEC
  0
SECTION
  2
ENTITIES
  0
LINE
  5
8E
330
1F
100
AcDbEntity
  8
0
100
AcDbLine
 10
-40.20661968983269
 20
-23.50208763009076
 30
0.0
 11
-43.37661968983269
 21
-23.50208763009076
 31
0.0
  0
LINE
  5
8F
330
1F
100
AcDbEntity
  8
0
100
AcDbLine
 10
-40.20661968983269
 20
-26.67208763009077
 30
0.0
 11
-40.20661968983269
 21
-23.50208763009076
 31
0.0
  0
LINE
  5
92
330
1F
100
AcDbEntity
  8
0
100
AcDbLine
 10
-40.20661968983269
 20
-17.16208763009076
 30
0.0
 11
-43.37661968983269
 21
-17.16208763009076
 31
0.0
  0
LINE
  5
95
330
1F
100
AcDbEntity
  8
0
100
AcDbLine
 10
-40.20661968983269
 20
-17.16208763009076
 30
0.0
 11
-40.20661968983269
 21
-13.99208763009076
 31
0.0
  0
LINE
  5
96
330
1F
100
AcDbEntity
  8
0
100
AcDbLine
 10
-40.20661968983269
 20
-10.82208763009076
 30
0.0
 11
-43.37661968983269
 21
-10.82208763009076
 31
0.0
  0
LINE
  5
97
330
1F
100
AcDbEntity
  8
0
100
AcDbLine
 10
-40.20661968983269
 20
-13.99208763009076
 30
0.0
 11
-40.20661968983269
 21
-10.82208763009076
 31
0.0
  0
LINE
  5
9A
330
1F
100
AcDbEntity
  8
0
100
AcDbLine
 10
-40.20661968983269
 20
-4.482087630090763
 30
0.0
 11
-43.37661968983269
 21
-4.482087630090763
 31
0.0
  0
LINE
  5
9D
330
1F
100
AcDbEntity
  8
0
100
AcDbLine
 10
-40.20661968983269
 20
-4.482087630090763
 30
0.0
 11
-40.20661968983269
 21
-1.312087630090761
 31
0.0
  0
LINE
  5
9F
330
1F
100
AcDbEntity
  8
0
100
AcDbLine
 10
-40.20661968983269
 20
-1.312087630090761
 30
0.0
 11
-40.20661968983269
 21
1.857912369909238
 31
0.0
  0
LINE
  5
DC
330
1F
100
AcDbEntity
  8
0
100
AcDbLine
 10
-30.69661968983269
 20
-26.67208763009077
 30
0.0
 11
-33.86661968983269
 21
-26.67208763009077
 31
0.0
  0
LINE
  5
F0
330
1F
100
AcDbEntity
  8
0
100
AcDbLine
 10
-27.52661968983269
 20
-26.67208763009077
 30
0.0
 11
-30.69661968983269
 21
-26.67208763009077
 31
0.0
  0
LINE
  5
F1
330
1F
100
AcDbEntity
  8
0
100
AcDbLine
 10
-27.52661968983269
 20
-29.84208763009076
 30
0.0
 11
-27.52661968983269
 21
-26.67208763009077
 31
0.0
  0
LINE
  5
119
330
1F
100
AcDbEntity
  8
0
100
AcDbLine
 10
-21.18661968983269
 20
-29.84208763009076
 30
0.0
 11
-21.18661968983269
 21
-26.67208763009077
 31
0.0
  0
LINE
  5
12C
330
1F
100
AcDbEntity
  8
0
100
AcDbLine
 10
-14.84661968983269
 20
-26.67208763009077
 30
0.0
 11
-18.01661968983269
 21
-26.67208763009077
 31
0.0
  0
LINE
  5
141
330
1F
100
AcDbEntity
  8
0
100
AcDbLine
 10
-11.67661968983269
 20
-29.84208763009076
 30
0.0
 11
-11.67661968983269
 21
-26.67208763009077
 31
0.0
  0
LINE
  5
156
330
1F
100
AcDbEntity
  8
0
100
AcDbLine
 10
-43.37661968983269
 20
-7.652087630090761
 30
0.0
 11
-43.37661968983269
 21
-4.482087630090763
 31
0.0
  0
LINE
  5
157
330
1F
100
AcDbEntity
  8
0
100
AcDbLine
 10
-43.37661968983269
 20
-10.82208763009076
 30
0.0
 11
-43.37661968983269
 21
-7.652087630090761
 31
0.0
  0
LINE
  5
15A
330
1F
100
AcDbEntity
  8
0
100
AcDbLine
 10
-43.37661968983269
 20
-20.33208763009076
 30
0.0
 11
-43.37661968983269
 21
-17.16208763009076
 31
0.0
  0
LINE
  5
15B
330
1F
100
AcDbEntity
  8
0
100
AcDbLine
 10
-43.37661968983269
 20
-23.50208763009076
 30
0.0
 11
-43.37661968983269
 21
-20.33208763009076
 31
0.0
  0
LINE
  5
15F
330
1F
100
AcDbEntity
  8
0
100
AcDbLine
 10
-21.18661968983269
 20
-29.84208763009076
 30
0.0
 11
-24.3566196898327
 21
-29.84208763009076
 31
0.0
  0
LINE
  5
160
330
1F
100
AcDbEntity
  8
0
100
AcDbLine
 10
-24.3566196898327
 20
-29.84208763009076
 30
0.0
 11
-27.52661968983269
 21
-29.84208763009076
 31
0.0
  0
LINE
  5
24E
330
1F
100
AcDbEntity
  8
0
100
AcDbLine
 10
-8.506619689832692
 20
-29.84208763009076
 30
0.0
 11
-11.67661968983269
 21
-29.84208763009076
 31
0.0
  0
LINE
  5
24F
330
1F
100
AcDbEntity
  8
0
100
AcDbLine
 10
-5.336619689832691
 20
-29.84208763009076
 30
0.0
 11
-8.506619689832692
 21
-29.84208763009076
 31
0.0
  0
LINE
  5
250
330
1F
100
AcDbEntity
  8
0
100
AcDbLine
 10
-5.336619689832691
 20
-1.312087630090761
 30
0.0
 11
-5.336619689832691
 21
1.857912369909238
 31
0.0
  0
LINE
  5
251
330
1F
100
AcDbEntity
  8
0
100
AcDbLine
 10
-5.336619689832691
 20
1.857912369909238
 30
0.0
 11
-8.506619689832692
 21
1.857912369909238
 31
0.0
  0
LINE
  5
252
330
1F
100
AcDbEntity
  8
0
100
AcDbLine
 10
-5.336619689832691
 20
-4.482087630090763
 30
0.0
 11
-5.336619689832691
 21
-1.312087630090761
 31
0.0
  0
LINE
  5
253
330
1F
100
AcDbEntity
  8
0
100
AcDbLine
 10
-5.336619689832691
 20
-4.482087630090763
 30
0.0
 11
-8.506619689832692
 21
-4.482087630090763
 31
0.0
  0
LINE
  5
254
330
1F
100
AcDbEntity
  8
0
100
AcDbLine
 10
-5.336619689832691
 20
-13.99208763009076
 30
0.0
 11
-5.336619689832691
 21
-10.82208763009076
 31
0.0
  0
LINE
  5
255
330
1F
100
AcDbEntity
  8
0
100
AcDbLine
 10
-5.336619689832691
 20
-10.82208763009076
 30
0.0
 11
-8.506619689832692
 21
-10.82208763009076
 31
0.0
  0
LINE
  5
256
330
1F
100
AcDbEntity
  8
0
100
AcDbLine
 10
-5.336619689832691
 20
-17.16208763009076
 30
0.0
 11
-5.336619689832691
 21
-13.99208763009076
 31
0.0
  0
LINE
  5
257
330
1F
100
AcDbEntity
  8
0
100
AcDbLine
 10
-5.336619689832691
 20
-17.16208763009076
 30
0.0
 11
-8.506619689832692
 21
-17.16208763009076
 31
0.0
  0
LINE
  5
258
330
1F
100
AcDbEntity
  8
0
100
AcDbLine
 10
-5.336619689832691
 20
-26.67208763009077
 30
0.0
 11
-5.336619689832691
 21
-23.50208763009076
 31
0.0
  0
LINE
  5
259
330
1F
100
AcDbEntity
  8
0
100
AcDbLine
 10
-5.336619689832691
 20
-23.50208763009076
 30
0.0
 11
-8.506619689832692
 21
-23.50208763009076
 31
0.0
  0
LINE
  5
25A
330
1F
100
AcDbEntity
  8
0
100
AcDbLine
 10
-5.336619689832691
 20
-29.84208763009076
 30
0.0
 11
-5.336619689832691
 21
-26.67208763009077
 31
0.0
  0
LINE
  5
25F
330
1F
100
AcDbEntity
  8
0
100
AcDbLine
 10
-8.506619689832692
 20
-7.652087630090761
 30
0.0
 11
-8.506619689832692
 21
-4.482087630090763
 31
0.0
  0
LINE
  5
261
330
1F
100
AcDbEntity
  8
0
100
AcDbLine
 10
-8.506619689832692
 20
-10.82208763009076
 30
0.0
 11
-8.506619689832692
 21
-7.652087630090761
 31
0.0
  0
LINE
  5
267
330
1F
100
AcDbEntity
  8
0
100
AcDbLine
 10
-8.506619689832692
 20
-20.33208763009076
 30
0.0
 11
-8.506619689832692
 21
-17.16208763009076
 31
0.0
  0
LINE
  5
269
330
1F
100
AcDbEntity
  8
0
100
AcDbLine
 10
-8.506619689832692
 20
-23.50208763009076
 30
0.0
 11
-8.506619689832692
 21
-20.33208763009076
 31
0.0
  0
LINE
  5
26F
330
1F
100
AcDbEntity
  8
0
100
AcDbLine
 10
-33.86661968983269
 20
5.027912369909238
 30
0.0
 11
-37.03661968983269
 21
5.027912369909238
 31
0.0
  0
LINE
  5
273
330
1F
100
AcDbEntity
  8
0
100
AcDbLine
 10
-27.52661968983269
 20
5.027912369909238
 30
0.0
 11
-33.86661968983269
 21
5.027912369909238
 31
0.0
  0
LINE
  5
276
330
1F
100
AcDbEntity
  8
0
100
AcDbLine
 10
-27.52661968983269
 20
5.027912369909238
 30
0.0
 11
-27.52661968983269
 21
8.197912369909237
 31
0.0
  0
LINE
  5
279
330
1F
100
AcDbEntity
  8
0
100
AcDbLine
 10
-24.3566196898327
 20
8.197912369909237
 30
0.0
 11
-27.52661968983269
 21
8.197912369909237
 31
0.0
  0
LINE
  5
27D
330
1F
100
AcDbEntity
  8
0
100
AcDbLine
 10
-21.18661968983269
 20
8.197912369909237
 30
0.0
 11
-24.3566196898327
 21
8.197912369909237
 31
0.0
  0
LINE
  5
27E
330
1F
100
AcDbEntity
  8
0
100
AcDbLine
 10
-21.18661968983269
 20
5.027912369909238
 30
0.0
 11
-21.18661968983269
 21
8.197912369909237
 31
0.0
  0
LINE
  5
283
330
1F
100
AcDbEntity
  8
0
100
AcDbLine
 10
-14.84661968983269
 20
5.027912369909238
 30
0.0
 11
-21.18661968983269
 21
5.027912369909238
 31
0.0
  0
LINE
  5
28D
330
1F
100
AcDbEntity
  8
0
100
AcDbLine
 10
-8.506619689832692
 20
8.197912369909237
 30
0.0
 11
-11.67661968983269
 21
8.197912369909237
 31
0.0
  0
LINE
  5
290
330
1F
100
AcDbEntity
  8
0
100
AcDbLine
 10
-8.506619689832692
 20
1.857912369909238
 30
0.0
 11
-8.506619689832692
 21
5.027912369909238
 31
0.0
  0
LINE
  5
297
330
1F
100
AcDbEntity
  8
0
100
AcDbLine
 10
-37.03661968983269
 20
5.027912369909238
 30
0.0
 11
-37.03661968983269
 21
8.197912369909237
 31
0.0
  0
LINE
  5
29E
330
1F
100
AcDbEntity
  8
0
100
AcDbLine
 10
-40.20661968983269
 20
8.197912369909237
 30
0.0
 11
-43.37661968983269
 21
8.197912369909237
 31
0.0
  0
LINE
  5
2A1
330
1F
100
AcDbEntity
  8
0
100
AcDbLine
 10
-43.37661968983269
 20
5.027912369909238
 30
0.0
 11
-43.37661968983269
 21
8.197912369909237
 31
0.0
  0
LINE
  5
2A3
330
1F
100
AcDbEntity
  8
0
100
AcDbLine
 10
-43.37661968983269
 20
1.857912369909238
 30
0.0
 11
-43.37661968983269
 21
5.027912369909238
 31
0.0
  0
LINE
  5
2A5
330
1F
100
AcDbEntity
  8
0
100
AcDbLine
 10
-43.37661968983269
 20
1.857912369909238
 30
0.0
 11
-40.20661968983269
 21
1.857912369909238
 31
0.0
  0
LINE
  5
2A6
330
1F
100
AcDbEntity
  8
0
100
AcDbLine
 10
-11.67661968983269
 20
-26.67208763009077
 30
0.0
 11
-14.84661968983269
 21
-26.67208763009077
 31
0.0
  0
LINE
  5
2A7
330
1F
100
AcDbEntity
  8
0
100
AcDbLine
 10
-37.03661968983269
 20
8.197912369909237
 30
0.0
 11
-40.20661968983269
 21
8.197912369909237
 31
0.0
  0
LINE
  5
2C4
330
1F
100
AcDbEntity
  8
0
100
AcDbLine
 10
-2.200774336482627
 20
1.857912369909238
 30
0.0
 11
0.9692256635173706
 21
1.857912369909238
 31
0.0
  0
LINE
  5
2C8
330
1F
100
AcDbEntity
  8
0
100
AcDbLine
 10
4.13922566351737
 20
5.027912369909238
 30
0.0
 11
4.13922566351737
 21
8.197912369909237
 31
0.0
  0
LINE
  5
2CB
330
1F
100
AcDbEntity
  8
0
100
AcDbLine
 10
32.6692256635174
 20
1.857912369909238
 30
0.0
 11
32.6692256635174
 21
5.027912369909238
 31
0.0
  0
LINE
  5
2CC
330
1F
100
AcDbEntity
  8
0
100
AcDbLine
 10
32.6692256635174
 20
5.027912369909238
 30
0.0
 11
29.49922566351737
 21
5.027912369909238
 31
0.0
  0
LINE
  5
2CD
330
1F
100
AcDbEntity
  8
0
100
AcDbLine
 10
29.49922566351737
 20
5.027912369909238
 30
0.0
 11
29.49922566351737
 21
8.197912369909237
 31
0.0
  0
LINE
  5
2CE
330
1F
100
AcDbEntity
  8
0
100
AcDbLine
 10
29.49922566351737
 20
8.197912369909237
 30
0.0
 11
26.32922566351737
 21
8.197912369909237
 31
0.0
  0
LINE
  5
2D2
330
1F
100
AcDbEntity
  8
0
100
AcDbLine
 10
26.32922566351737
 20
8.197912369909237
 30
0.0
 11
23.15922566351737
 21
8.197912369909237
 31
0.0
  0
LINE
  5
2D6
330
1F
100
AcDbEntity
  8
0
100
AcDbLine
 10
23.15922566351737
 20
8.197912369909237
 30
0.0
 11
19.98922566351737
 21
8.197912369909237
 31
0.0
  0
LINE
  5
2D9
330
1F
100
AcDbEntity
  8
0
100
AcDbLine
 10
19.98922566351737
 20
5.027912369909238
 30
0.0
 11
19.98922566351737
 21
8.197912369909237
 31
0.0
  0
LINE
  5
2DC
330
1F
100
AcDbEntity
  8
0
100
AcDbLine
 10
19.98922566351737
 20
5.027912369909238
 30
0.0
 11
16.81922566351737
 21
5.027912369909238
 31
0.0
  0
LINE
  5
2E0
330
1F
100
AcDbEntity
  8
0
100
AcDbLine
 10
16.81922566351737
 20
5.027912369909238
 30
0.0
 11
13.64922566351737
 21
5.027912369909238
 31
0.0
  0
LINE
  5
2E1
330
1F
100
AcDbEntity
  8
0
100
AcDbLine
 10
13.64922566351737
 20
5.027912369909238
 30
0.0
 11
13.64922566351737
 21
8.197912369909237
 31
0.0
  0
LINE
  5
2E2
330
1F
100
AcDbEntity
  8
0
100
AcDbLine
 10
13.64922566351737
 20
8.197912369909237
 30
0.0
 11
10.47922566351737
 21
8.197912369909237
 31
0.0
  0
LINE
  5
2E6
330
1F
100
AcDbEntity
  8
0
100
AcDbLine
 10
10.47922566351737
 20
8.197912369909237
 30
0.0
 11
7.30922566351737
 21
8.197912369909237
 31
0.0
  0
LINE
  5
2F3
330
1F
100
AcDbEntity
  8
0
100
AcDbLine
 10
32.6692256635174
 20
-13.99208763009076
 30
0.0
 11
32.6692256635174
 21
-10.82208763009076
 31
0.0
  0
LINE
  5
2F5
330
1F
100
AcDbEntity
  8
0
100
AcDbLine
 10
32.6692256635174
 20
-10.82208763009076
 30
0.0
 11
32.6692256635174
 21
-7.652087630090761
 31
0.0
  0
LINE
  5
2FD
330
1F
100
AcDbEntity
  8
0
100
AcDbLine
 10
35.83922566351737
 20
-23.50208763009076
 30
0.0
 11
32.6692256635174
 21
-23.50208763009076
 31
0.0
  0
LINE
  5
300
330
1F
100
AcDbEntity
  8
0
100
AcDbLine
 10
35.83922566351737
 20
-17.16208763009076
 30
0.0
 11
35.83922566351737
 21
-13.99208763009076
 31
0.0
  0
LINE
  5
304
330
1F
100
AcDbEntity
  8
0
100
AcDbLine
 10
35.83922566351737
 20
-4.482087630090763
 30
0.0
 11
35.83922566351737
 21
-1.312087630090761
 31
0.0
  0
LINE
  5
305
330
1F
100
AcDbEntity
  8
0
100
AcDbLine
 10
35.83922566351737
 20
1.857912369909238
 30
0.0
 11
32.6692256635174
 21
1.857912369909238
 31
0.0
  0
LINE
  5
306
330
1F
100
AcDbEntity
  8
0
100
AcDbLine
 10
35.83922566351737
 20
-1.312087630090761
 30
0.0
 11
35.83922566351737
 21
1.857912369909238
 31
0.0
  0
LINE
  5
30A
330
1F
100
AcDbEntity
  8
0
100
AcDbLine
 10
7.30922566351737
 20
-29.84208763009076
 30
0.0
 11
4.13922566351737
 21
-29.84208763009076
 31
0.0
  0
LINE
  5
30B
330
1F
100
AcDbEntity
  8
0
100
AcDbLine
 10
10.47922566351737
 20
-29.84208763009076
 30
0.0
 11
7.30922566351737
 21
-29.84208763009076
 31
0.0
  0
LINE
  5
30C
330
1F
100
AcDbEntity
  8
0
100
AcDbLine
 10
13.64922566351737
 20
-29.84208763009076
 30
0.0
 11
10.47922566351737
 21
-29.84208763009076
 31
0.0
  0
LINE
  5
30F
330
1F
100
AcDbEntity
  8
0
100
AcDbLine
 10
23.15922566351737
 20
-29.84208763009076
 30
0.0
 11
19.98922566351737
 21
-29.84208763009076
 31
0.0
  0
LINE
  5
310
330
1F
100
AcDbEntity
  8
0
100
AcDbLine
 10
26.32922566351737
 20
-29.84208763009076
 30
0.0
 11
23.15922566351737
 21
-29.84208763009076
 31
0.0
  0
LINE
  5
311
330
1F
100
AcDbEntity
  8
0
100
AcDbLine
 10
-2.200774336482627
 20
-23.50208763009076
 30
0.0
 11
-2.200774336482627
 21
-20.33208763009076
 31
0.0
  0
LINE
  5
312
330
1F
100
AcDbEntity
  8
0
100
AcDbLine
 10
-2.200774336482627
 20
-20.33208763009076
 30
0.0
 11
-2.200774336482627
 21
-17.16208763009076
 31
0.0
  0
LINE
  5
314
330
1F
100
AcDbEntity
  8
0
100
AcDbLine
 10
-2.200774336482627
 20
-7.652087630090761
 30
0.0
 11
-2.200774336482627
 21
-4.482087630090763
 31
0.0
  0
LINE
  5
31E
330
1F
100
AcDbEntity
  8
0
100
AcDbLine
 10
29.49922566351737
 20
-29.84208763009076
 30
0.0
 11
29.49922566351737
 21
-26.67208763009077
 31
0.0
  0
LINE
  5
359
330
1F
100
AcDbEntity
  8
0
100
AcDbLine
 10
19.98922566351737
 20
-29.84208763009076
 30
0.0
 11
19.98922566351737
 21
-26.67208763009077
 31
0.0
  0
LINE
  5
35A
330
1F
100
AcDbEntity
  8
0
100
AcDbLine
 10
19.98922566351737
 20
-26.67208763009077
 30
0.0
 11
16.81922566351737
 21
-26.67208763009077
 31
0.0
  0
LINE
  5
36E
330
1F
100
AcDbEntity
  8
0
100
AcDbLine
 10
16.81922566351737
 20
-26.67208763009077
 30
0.0
 11
13.64922566351737
 21
-26.67208763009077
 31
0.0
  0
LINE
  5
381
330
1F
100
AcDbEntity
  8
0
100
AcDbLine
 10
13.64922566351737
 20
-29.84208763009076
 30
0.0
 11
13.64922566351737
 21
-26.67208763009077
 31
0.0
  0
LINE
  5
3BC
330
1F
100
AcDbEntity
  8
0
100
AcDbLine
 10
4.13922566351737
 20
-29.84208763009076
 30
0.0
 11
4.13922566351737
 21
-26.67208763009077
 31
0.0
  0
LINE
  5
3BD
330
1F
100
AcDbEntity
  8
0
100
AcDbLine
 10
4.13922566351737
 20
-26.67208763009077
 30
0.0
 11
0.9692256635173706
 21
-26.67208763009077
 31
0.0
  0
LINE
  5
3C2
330
1F
100
AcDbEntity
  8
0
100
AcDbLine
 10
0.9692256635173706
 20
-10.82208763009076
 30
0.0
 11
0.9692256635173706
 21
-7.652087630090761
 31
0.0
  0
LINE
  5
3C3
330
1F
100
AcDbEntity
  8
0
100
AcDbLine
 10
0.9692256635173706
 20
-13.99208763009076
 30
0.0
 11
0.9692256635173706
 21
-10.82208763009076
 31
0.0
  0
LINE
  5
3C9
330
1F
100
AcDbEntity
  8
0
100
AcDbLine
 10
0.9692256635173706
 20
-26.67208763009077
 30
0.0
 11
0.9692256635173706
 21
-23.50208763009076
 31
0.0
  0
LINE
  5
3CA
330
1F
100
AcDbEntity
  8
0
100
AcDbLine
 10
0.9692256635173706
 20
-23.50208763009076
 30
0.0
 11
-2.200774336482627
 21
-23.50208763009076
 31
0.0
  0
LINE
  5
3D9
330
1F
100
AcDbEntity
  8
0
100
AcDbLine
 10
-14.84661968983269
 20
5.027912369909238
 30
0.0
 11
-11.67661968983269
 21
5.027912369909238
 31
0.0
  0
LINE
  5
3E5
330
1F
100
AcDbEntity
  8
0
100
AcDbLine
 10
35.83922566351737
 20
-20.33208763009076
 30
0.0
 11
35.83922566351737
 21
-17.16208763009076
 31
0.0
  0
LINE
  5
3E6
330
1F
100
AcDbEntity
  8
0
100
AcDbLine
 10
35.83922566351737
 20
-23.50208763009076
 30
0.0
 11
35.83922566351737
 21
-20.33208763009076
 31
0.0
  0
LINE
  5
3E8
330
1F
100
AcDbEntity
  8
0
100
AcDbLine
 10
35.83922566351737
 20
-7.652087630090761
 30
0.0
 11
35.83922566351737
 21
-4.482087630090763
 31
0.0
  0
LINE
  5
3EA
330
1F
100
AcDbEntity
  8
0
100
AcDbLine
 10
35.83922566351737
 20
-7.652087630090761
 30
0.0
 11
32.6692256635174
 21
-7.652087630090761
 31
0.0
  0
LINE
  5
3F3
330
1F
100
AcDbEntity
  8
0
100
AcDbLine
 10
-2.200774336482627
 20
-17.16208763009076
 30
0.0
 11
-2.200774336482627
 21
-13.99208763009076
 31
0.0
  0
LINE
  5
3F5
330
1F
100
AcDbEntity
  8
0
100
AcDbLine
 10
0.9692256635173706
 20
-13.99208763009076
 30
0.0
 11
-2.200774336482627
 21
-13.99208763009076
 31
0.0
  0
LINE
  5
3F7
330
1F
100
AcDbEntity
  8
0
100
AcDbLine
 10
0.9692256635173706
 20
1.857912369909238
 30
0.0
 11
0.9692256635173706
 21
5.027912369909238
 31
0.0
  0
LINE
  5
3F9
330
1F
100
AcDbEntity
  8
0
100
AcDbLine
 10
4.13922566351737
 20
5.027912369909238
 30
0.0
 11
0.9692256635173706
 21
5.027912369909238
 31
0.0
  0
LINE
  5
3FA
330
1F
100
AcDbEntity
  8
0
100
AcDbLine
 10
-2.200774336482627
 20
-4.482087630090763
 30
0.0
 11
-2.200774336482627
 21
-1.312087630090761
 31
0.0
  0
LINE
  5
3FB
330
1F
100
AcDbEntity
  8
0
100
AcDbLine
 10
-2.200774336482627
 20
-1.312087630090761
 30
0.0
 11
-2.200774336482627
 21
1.857912369909238
 31
0.0
  0
LINE
  5
3FF
330
1F
100
AcDbEntity
  8
0
100
AcDbLine
 10
32.6692256635174
 20
-26.67208763009077
 30
0.0
 11
29.49922566351737
 21
-26.67208763009077
 31
0.0
  0
LINE
  5
400
330
1F
100
AcDbEntity
  8
0
100
AcDbLine
 10
32.6692256635174
 20
-26.67208763009077
 30
0.0
 11
32.6692256635174
 21
-23.50208763009076
 31
0.0
  0
LINE
  5
40B
330
1F
100
AcDbEntity
  8
0
100
AcDbLine
 10
7.30922566351737
 20
8.197912369909237
 30
0.0
 11
4.13922566351737
 21
8.197912369909237
 31
0.0
  0
LINE
  5
40C
330
1F
100
AcDbEntity
  8
0
100
AcDbLine
 10
29.49922566351737
 20
-29.84208763009076
 30
0.0
 11
26.32922566351737
 21
-29.84208763009076
 31
0.0
  0
LINE
  5
40E
330
1F
100
AcDbEntity
  8
0
100
AcDbLine
 10
0.9692256635173706
 20
-7.652087630090761
 30
0.0
 11
-2.200774336482627
 21
-7.652087630090761
 31
0.0
  0
LINE
  5
414
330
1F
100
AcDbEntity
  8
0
100
AcDbLine
 10
32.6692256635174
 20
-13.99208763009076
 30
0.0
 11
35.83922566351737
 21
-13.99208763009076
 31
0.0
  0
LINE
  5
419
330
1F
100
AcDbEntity
  8
0
100
AcDbLine
 10
-37.03661968983269
 20
-29.84208763009076
 30
0.0
 11
-40.20661968983269
 21
-29.84208763009076
 31
0.0
  0
LINE
  5
41A
330
1F
100
AcDbEntity
  8
0
100
AcDbLine
 10
-40.20661968983269
 20
-29.84208763009076
 30
0.0
 11
-40.20661968983269
 21
-26.67208763009077
 31
0.0
  0
LINE
  5
41C
330
1F
100
AcDbEntity
  8
0
100
AcDbLine
 10
-8.506619689832692
 20
5.027912369909238
 30
0.0
 11
-8.506619689832692
 21
8.197912369909237
 31
0.0
  0
LINE
  5
41E
330
1F
100
AcDbEntity
  8
0
100
AcDbLine
 10
-11.67661968983269
 20
5.027912369909238
 30
0.0
 11
-11.67661968983269
 21
8.197912369909237
 31
0.0
  0
LINE
  5
41F
330
1F
100
AcDbEntity
  8
0
100
AcDbLine
 10
-33.86661968983269
 20
-26.67208763009077
 30
0.0
 11
-37.03661968983269
 21
-26.67208763009077
 31
0.0
  0
LINE
  5
420
330
1F
100
AcDbEntity
  8
0
100
AcDbLine
 10
-37.03661968983269
 20
-29.84208763009076
 30
0.0
 11
-37.03661968983269
 21
-26.67208763009077
 31
0.0
  0
LINE
  5
421
330
1F
100
AcDbEntity
  8
0
100
AcDbLine
 10
-18.01661968983269
 20
-26.67208763009077
 30
0.0
 11
-21.18661968983269
 21
-26.67208763009077
 31
0.0
  0
LINE
  5
445
330
1F
100
AcDbEntity
  8
0
100
AcDbLine
 10
26.43955808692854
 20
-7.696252141416387
 30
0.0
 11
23.48549616518793
 21
-9.84250375792217
 31
0.0
  0
LINE
  5
446
330
1F
100
AcDbEntity
  8
0
100
AcDbLine
 10
29.13612114940449
 20
-7.696252141416369
 30
0.0
 11
24.83377769642596
 21
-10.82208763009075
 31
0.0
  0
LINE
  5
447
330
1F
100
AcDbEntity
  8
0
100
AcDbLine
 10
10.87353324277661
 20
-2.6385440775007
 30
0.0
 11
13.82759516451719
 21
-4.784795694006476
 31
0.0
  0
LINE
  5
448
330
1F
100
AcDbEntity
  8
0
100
AcDbLine
 10
10.04024943006778
 20
-0.0739602053321598
 30
0.0
 11
14.34259288304635
 21
-3.199795694006489
 31
0.0
  0
LINE
  5
449
330
1F
100
AcDbEntity
  8
0
100
AcDbLine
 10
22.76491808425825
 20
-2.638544077500633
 30
0.0
 11
21.63656683502511
 21
-6.111252141416397
 31
0.0
  0
LINE
  5
44A
330
1F
100
AcDbEntity
  8
0
100
AcDbLine
 10
24.94648342820501
 20
-1.053544077500768
 30
0.0
 11
23.30313446044283
 21
-6.111252141416386
 31
0.0
  0
LINE
  5
44B
330
1F
100
AcDbEntity
  8
0
100
AcDbLine
 10
7.198893240106183
 20
-7.69625214141644
 30
0.0
 11
10.85031458512118
 21
-7.69625214141644
 31
0.0
  0
LINE
  5
44C
330
1F
100
AcDbEntity
  8
0
100
AcDbLine
 10
5.017327896159399
 20
-6.111252141416454
 30
0.0
 11
10.33531686659197
 21
-6.111252141416439
 31
0.0
  0
LINE
  5
44D
330
1F
100
AcDbEntity
  8
0
100
AcDbLine
 10
17.65250947622621
 20
1.857912369909238
 30
0.0
 11
19.29585844398841
 21
-3.1997956940065
 31
0.0
  0
LINE
  5
44E
330
1F
100
AcDbEntity
  8
0
100
AcDbLine
 10
16.81922566351737
 20
-0.7066715022593649
 30
0.0
 11
17.9475769127504
 21
-4.179379566175068
 31
0.0
  0
LINE
  5
44F
330
1F
100
AcDbEntity
  8
0
100
AcDbLine
 10
7.19889324010621
 20
-13.94792311876508
 30
0.0
 11
10.15295516184676
 21
-11.80167150225933
 31
0.0
  0
LINE
  5
450
330
1F
100
AcDbEntity
  8
0
100
AcDbLine
 10
4.50233017763024
 20
-13.94792311876508
 30
0.0
 11
8.804673630608785
 21
-10.82208763009076
 31
0.0
  0
LINE
  5
451
330
1F
100
AcDbEntity
  8
0
100
AcDbLine
 10
10.87353324277661
 20
-19.00563118268082
 30
0.0
 11
12.00188449200965
 21
-15.53292311876508
 31
0.0
  0
LINE
  5
452
330
1F
100
AcDbEntity
  8
0
100
AcDbLine
 10
8.691967898829837
 20
-20.5906311826808
 30
0.0
 11
10.33531686659204
 21
-15.53292311876508
 31
0.0
  0
LINE
  5
453
330
1F
100
AcDbEntity
  8
0
100
AcDbLine
 10
16.81922566351737
 20
-20.9375037579222
 30
0.0
 11
15.69087441428434
 21
-17.46479569400644
 31
0.0
  0
LINE
  5
454
330
1F
100
AcDbEntity
  8
0
100
AcDbLine
 10
15.98594185080853
 20
-23.50208763009076
 30
0.0
 11
14.34259288304635
 21
-18.44437956617504
 31
0.0
  0
LINE
  5
455
330
1F
100
AcDbEntity
  8
0
100
AcDbLine
 10
26.43955808692855
 20
-13.94792311876512
 30
0.0
 11
22.78813674191361
 21
-13.94792311876511
 31
0.0
  0
LINE
  5
456
330
1F
100
AcDbEntity
  8
0
100
AcDbLine
 10
28.62112343087536
 20
-15.53292311876512
 30
0.0
 11
23.30313446044277
 21
-15.53292311876512
 31
0.0
  0
LINE
  5
457
330
1F
100
AcDbEntity
  8
0
100
AcDbLine
 10
22.76491808425816
 20
-19.0056311826808
 30
0.0
 11
19.8108561625176
 21
-16.85937956617505
 31
0.0
  0
LINE
  5
458
330
1F
100
AcDbEntity
  8
0
100
AcDbLine
 10
23.598201896967
 20
-21.57021505484937
 30
0.0
 11
19.29585844398846
 21
-18.44437956617501
 31
0.0
  0
LINE
  5
459
330
1F
100
AcDbEntity
  8
0
100
AcDbLine
 10
16.81922566351737
 20
-6.958342479608013
 30
0.0
 11
18.46257463127958
 21
-5.764379566175033
 31
0.0
  0
LINE
  5
45A
330
1F
100
AcDbEntity
  8
0
100
AcDbLine
 10
20.49386566618784
 20
-9.628124716657868
 30
0.0
 11
22.13721463394996
 21
-10.82208763009076
 31
0.0
  0
LINE
  5
45B
330
1F
100
AcDbEntity
  8
0
100
AcDbLine
 10
19.09027808158769
 20
-7.696252141416408
 30
0.0
 11
21.12156911649597
 21
-7.696252141416398
 31
0.0
  0
LINE
  5
45C
330
1F
100
AcDbEntity
  8
0
100
AcDbLine
 10
14.54817324544705
 20
-7.696252141416419
 30
0.0
 11
15.17587669575515
 21
-5.76437956617508
 31
0.0
  0
LINE
  5
45D
330
1F
100
AcDbEntity
  8
0
100
AcDbLine
 10
13.14458566084693
 20
-9.628124716657801
 30
0.0
 11
12.5168822105388
 21
-7.696252141416429
 31
0.0
  0
LINE
  5
45E
330
1F
100
AcDbEntity
  8
0
100
AcDbLine
 10
13.14458566084693
 20
-12.01605054352373
 30
0.0
 11
11.50123669308469
 21
-10.82208763009076
 31
0.0
  0
LINE
  5
45F
330
1F
100
AcDbEntity
  8
0
100
AcDbLine
 10
14.54817324544705
 20
-13.94792311876508
 30
0.0
 11
12.51688221053886
 21
-13.94792311876508
 31
0.0
  0
LINE
  5
460
330
1F
100
AcDbEntity
  8
0
100
AcDbLine
 10
16.81922566351737
 20
-14.6858327805735
 30
0.0
 11
15.17587669575519
 21
-15.87979569400646
 31
0.0
  0
LINE
  5
461
330
1F
100
AcDbEntity
  8
0
100
AcDbLine
 10
19.09027808158775
 20
-13.94792311876509
 30
0.0
 11
18.46257463127961
 21
-15.87979569400649
 31
0.0
  0
LINE
  5
462
330
1F
100
AcDbEntity
  8
0
100
AcDbLine
 10
20.4938656661878
 20
-12.01605054352368
 30
0.0
 11
21.12156911649595
 21
-13.94792311876511
 31
0.0
  0
LINE
  5
464
330
1F
100
AcDbEntity
  8
0
100
AcDbLine
 10
13.39660333855855
 20
-6.111252141416418
 30
0.0
 11
13.82759516451714
 21
-4.784795694006476
 31
0.0
  0
LINE
  5
465
330
1F
100
AcDbEntity
  8
0
100
AcDbLine
 10
15.17587669575519
 20
-5.764379566175048
 30
0.0
 11
16.81922566351737
 21
-6.958342479608013
 31
0.0
  0
LINE
  5
466
330
1F
100
AcDbEntity
  8
0
100
AcDbLine
 10
12.00188449200965
 20
-6.111252141416432
 30
0.0
 11
10.87353324277661
 21
-2.6385440775007
 31
0.0
  0
LINE
  5
467
330
1F
100
AcDbEntity
  8
0
100
AcDbLine
 10
12.51688221053882
 20
-7.696252141416429
 30
0.0
 11
14.54817324544705
 21
-7.696252141416419
 31
0.0
  0
LINE
  5
469
330
1F
100
AcDbEntity
  8
0
100
AcDbLine
 10
11.28130641107981
 20
-9.022708588826407
 30
0.0
 11
10.85031458512118
 21
-7.69625214141644
 31
0.0
  0
LINE
  5
46A
330
1F
100
AcDbEntity
  8
0
100
AcDbLine
 10
10.15295516184674
 20
-9.842503757922191
 30
0.0
 11
7.198893240106183
 21
-7.69625214141644
 31
0.0
  0
LINE
  5
46B
330
1F
100
AcDbEntity
  8
0
100
AcDbLine
 10
11.50123669308471
 20
-10.82208763009076
 30
0.0
 11
13.14458566084693
 21
-9.628124716657811
 31
0.0
  0
LINE
  5
46D
330
1F
100
AcDbEntity
  8
0
100
AcDbLine
 10
11.28130641107981
 20
-12.62146667135512
 30
0.0
 11
10.15295516184674
 21
-11.80167150225933
 31
0.0
  0
LINE
  5
46E
330
1F
100
AcDbEntity
  8
0
100
AcDbLine
 10
15.69087441428434
 20
-4.179379566175096
 30
0.0
 11
16.81922566351737
 21
-0.7066715022593649
 31
0.0
  0
LINE
  5
46F
330
1F
100
AcDbEntity
  8
0
100
AcDbLine
 10
16.81922566351737
 20
-4.999174735270862
 30
0.0
 11
17.94757691275047
 21
-4.17937956617505
 31
0.0
  0
LINE
  5
471
330
1F
100
AcDbEntity
  8
0
100
AcDbLine
 10
18.46257463127958
 20
-5.764379566175033
 30
0.0
 11
19.09027808158772
 21
-7.696252141416408
 31
0.0
  0
LINE
  5
472
330
1F
100
AcDbEntity
  8
0
100
AcDbLine
 10
19.81085616251753
 20
-4.784795694006476
 30
0.0
 11
22.76491808425825
 21
-2.638544077500633
 31
0.0
  0
LINE
  5
473
330
1F
100
AcDbEntity
  8
0
100
AcDbLine
 10
20.24184798847618
 20
-6.111252141416397
 30
0.0
 11
21.63656683502511
 21
-6.111252141416386
 31
0.0
  0
LINE
  5
475
330
1F
100
AcDbEntity
  8
0
100
AcDbLine
 10
21.12156911649597
 20
-7.696252141416398
 30
0.0
 11
20.4938656661878
 21
-9.628124716657836
 31
0.0
  0
LINE
  5
476
330
1F
100
AcDbEntity
  8
0
100
AcDbLine
 10
22.78813674191361
 20
-7.696252141416398
 30
0.0
 11
26.43955808692854
 21
-7.696252141416387
 31
0.0
  0
LINE
  5
477
330
1F
100
AcDbEntity
  8
0
100
AcDbLine
 10
22.357144915955
 20
-9.022708588826436
 30
0.0
 11
23.48549616518793
 21
-9.84250375792217
 31
0.0
  0
LINE
  5
479
330
1F
100
AcDbEntity
  8
0
100
AcDbLine
 10
22.13721463394998
 20
-10.82208763009075
 30
0.0
 11
20.4938656661878
 21
-12.01605054352368
 31
0.0
  0
LINE
  5
47A
330
1F
100
AcDbEntity
  8
0
100
AcDbLine
 10
23.48549616518797
 20
-11.80167150225933
 30
0.0
 11
26.43955808692855
 21
-13.94792311876512
 31
0.0
  0
LINE
  5
47B
330
1F
100
AcDbEntity
  8
0
100
AcDbLine
 10
22.35714491595493
 20
-12.6214666713551
 30
0.0
 11
22.78813674191361
 21
-13.94792311876511
 31
0.0
  0
LINE
  5
47D
330
1F
100
AcDbEntity
  8
0
100
AcDbLine
 10
21.12156911649595
 20
-13.94792311876511
 30
0.0
 11
19.09027808158775
 21
-13.94792311876511
 31
0.0
  0
LINE
  5
47E
330
1F
100
AcDbEntity
  8
0
100
AcDbLine
 10
21.63656683502511
 20
-15.53292311876511
 30
0.0
 11
22.76491808425816
 21
-19.0056311826808
 31
0.0
  0
LINE
  5
47F
330
1F
100
AcDbEntity
  8
0
100
AcDbLine
 10
20.24184798847622
 20
-15.53292311876511
 30
0.0
 11
19.8108561625176
 21
-16.85937956617507
 31
0.0
  0
LINE
  5
481
330
1F
100
AcDbEntity
  8
0
100
AcDbLine
 10
18.46257463127965
 20
-15.87979569400648
 30
0.0
 11
16.81922566351737
 21
-14.6858327805735
 31
0.0
  0
LINE
  5
482
330
1F
100
AcDbEntity
  8
0
100
AcDbLine
 10
17.94757691275047
 20
-17.46479569400645
 30
0.0
 11
16.81922566351737
 21
-20.9375037579222
 31
0.0
  0
LINE
  5
483
330
1F
100
AcDbEntity
  8
0
100
AcDbLine
 10
16.81922566351737
 20
-16.64500052491065
 30
0.0
 11
15.6908744142843
 21
-17.46479569400645
 31
0.0
  0
LINE
  5
485
330
1F
100
AcDbEntity
  8
0
100
AcDbLine
 10
15.17587669575515
 20
-15.87979569400645
 30
0.0
 11
14.54817324544705
 21
-13.94792311876509
 31
0.0
  0
LINE
  5
486
330
1F
100
AcDbEntity
  8
0
100
AcDbLine
 10
13.82759516451717
 20
-16.85937956617505
 30
0.0
 11
10.87353324277661
 21
-19.00563118268082
 31
0.0
  0
LINE
  5
487
330
1F
100
AcDbEntity
  8
0
100
AcDbLine
 10
13.39660333855853
 20
-15.53292311876509
 30
0.0
 11
12.00188449200968
 21
-15.53292311876508
 31
0.0
  0
LINE
  5
489
330
1F
100
AcDbEntity
  8
0
100
AcDbLine
 10
12.5168822105388
 20
-13.94792311876508
 30
0.0
 11
13.14458566084693
 21
-12.01605054352372
 31
0.0
  0
LINE
  5
48A
330
1F
100
AcDbEntity
  8
0
100
AcDbLine
 10
10.85031458512118
 20
-13.94792311876508
 30
0.0
 11
7.19889324010621
 21
-13.94792311876508
 31
0.0
  0
LINE
  5
48B
330
1F
100
AcDbEntity
  8
0
100
AcDbLine
 10
10.85031458512118
 20
-13.94792311876508
 30
0.0
 11
11.28130641107983
 21
-12.62146667135511
 31
0.0
  0
LINE
  5
48C
330
1F
100
AcDbEntity
  8
0
100
AcDbLine
 10
10.33531686659204
 20
-15.53292311876508
 30
0.0
 11
5.017327896159399
 21
-15.53292311876507
 31
0.0
  0
LINE
  5
48D
330
1F
100
AcDbEntity
  8
0
100
AcDbLine
 10
8.804673630608785
 20
-10.82208763009076
 30
0.0
 11
4.50233017763024
 21
-7.69625214141644
 31
0.0
  0
LINE
  5
48E
330
1F
100
AcDbEntity
  8
0
100
AcDbLine
 10
10.15295516184676
 20
-9.842503757922191
 30
0.0
 11
11.28130641107981
 21
-9.022708588826407
 31
0.0
  0
LINE
  5
48F
330
1F
100
AcDbEntity
  8
0
100
AcDbLine
 10
10.33531686659201
 20
-6.111252141416439
 30
0.0
 11
8.691967898829803
 21
-1.053544077500747
 31
0.0
  0
LINE
  5
490
330
1F
100
AcDbEntity
  8
0
100
AcDbLine
 10
12.00188449200965
 20
-6.111252141416432
 30
0.0
 11
13.39660333855855
 21
-6.111252141416418
 31
0.0
  0
LINE
  5
491
330
1F
100
AcDbEntity
  8
0
100
AcDbLine
 10
14.34259288304635
 20
-3.199795694006489
 30
0.0
 11
15.98594185080853
 21
1.857912369909238
 31
0.0
  0
LINE
  5
492
330
1F
100
AcDbEntity
  8
0
100
AcDbLine
 10
15.69087441428427
 20
-4.179379566175068
 30
0.0
 11
16.81922566351737
 21
-4.999174735270862
 31
0.0
  0
LINE
  5
493
330
1F
100
AcDbEntity
  8
0
100
AcDbLine
 10
19.29585844398846
 20
-3.199795694006478
 30
0.0
 11
23.59820189696693
 21
-0.0739602053321598
 31
0.0
  0
LINE
  5
494
330
1F
100
AcDbEntity
  8
0
100
AcDbLine
 10
19.8108561625176
 20
-4.784795694006465
 30
0.0
 11
20.24184798847618
 21
-6.111252141416407
 31
0.0
  0
LINE
  5
495
330
1F
100
AcDbEntity
  8
0
100
AcDbLine
 10
23.30313446044283
 20
-6.111252141416386
 30
0.0
 11
28.62112343087536
 21
-6.111252141416368
 31
0.0
  0
LINE
  5
496
330
1F
100
AcDbEntity
  8
0
100
AcDbLine
 10
22.78813674191361
 20
-7.696252141416398
 30
0.0
 11
22.357144915955
 21
-9.022708588826429
 31
0.0
  0
LINE
  5
497
330
1F
100
AcDbEntity
  8
0
100
AcDbLine
 10
24.83377769642592
 20
-10.82208763009075
 30
0.0
 11
29.13612114940449
 21
-13.94792311876512
 31
0.0
  0
LINE
  5
498
330
1F
100
AcDbEntity
  8
0
100
AcDbLine
 10
23.48549616518797
 20
-11.80167150225933
 30
0.0
 11
22.357144915955
 21
-12.62146667135507
 31
0.0
  0
LINE
  5
499
330
1F
100
AcDbEntity
  8
0
100
AcDbLine
 10
23.30313446044277
 20
-15.53292311876511
 30
0.0
 11
24.94648342820498
 21
-20.59063118268079
 31
0.0
  0
LINE
  5
49A
330
1F
100
AcDbEntity
  8
0
100
AcDbLine
 10
21.63656683502509
 20
-15.53292311876511
 30
0.0
 11
20.24184798847618
 21
-15.53292311876511
 31
0.0
  0
LINE
  5
49B
330
1F
100
AcDbEntity
  8
0
100
AcDbLine
 10
19.29585844398841
 20
-18.44437956617504
 30
0.0
 11
17.65250947622621
 21
-23.50208763009076
 31
0.0
  0
LINE
  5
49C
330
1F
100
AcDbEntity
  8
0
100
AcDbLine
 10
17.94757691275047
 20
-17.46479569400645
 30
0.0
 11
16.8192256635174
 21
-16.64500052491064
 31
0.0
  0
LINE
  5
49D
330
1F
100
AcDbEntity
  8
0
100
AcDbLine
 10
14.34259288304631
 20
-18.44437956617502
 30
0.0
 11
10.04024943006781
 21
-21.57021505484938
 31
0.0
  0
LINE
  5
49E
330
1F
100
AcDbEntity
  8
0
100
AcDbLine
 10
13.82759516451719
 20
-16.85937956617505
 30
0.0
 11
13.39660333855855
 21
-15.53292311876508
 31
0.0
  0
LWPOLYLINE
  5
4A0
330
1F
100
AcDbEntity
  8
0
100
AcDbPolyline
 90
        3
 70
     0
 43
0.0
 10
8.691967898829801
 20
-1.053544077500749
 10
6.032973413613504
 20
-2.985416652742095
 10
5.017327896159393
 20
-6.111252141416457
  0
LWPOLYLINE
  5
4A1
330
1F
100
AcDbEntity
  8
0
100
AcDbPolyline
 90
        3
 70
     0
 43
0.0
 10
15.98594185080853
 20
1.857912369909236
 10
12.69924391528413
 20
1.857912369909236
 10
10.04024943006777
 20
-0.0739602053321633
  0
LWPOLYLINE
  5
4A2
330
1F
100
AcDbEntity
  8
0
100
AcDbPolyline
 90
        3
 70
     0
 43
0.0
 10
23.59820189696693
 20
-0.0739602053321384
 10
20.93920741175063
 20
1.857912369909236
 10
17.65250947622621
 20
1.857912369909236
  0
LWPOLYLINE
  5
4A3
330
1F
100
AcDbEntity
  8
0
100
AcDbPolyline
 90
        3
 70
     0
 43
0.0
 10
28.62112343087536
 20
-6.111252141416372
 10
27.60547791342127
 20
-2.985416652742106
 10
24.946483428205
 20
-1.05354407750077
  0
LWPOLYLINE
  5
4A4
330
1F
100
AcDbEntity
  8
0
100
AcDbPolyline
 90
        3
 70
     0
 43
0.0
 10
29.13612114940449
 20
-13.94792311876512
 10
30.15176666685861
 20
-10.82208763009076
 10
29.13612114940449
 20
-7.696252141416369
  0
LWPOLYLINE
  5
4A5
330
1F
100
AcDbEntity
  8
0
100
AcDbPolyline
 90
        3
 70
     0
 43
0.0
 10
24.94648342820499
 20
-20.59063118268079
 10
27.60547791342124
 20
-18.65875860743943
 10
28.62112343087536
 20
-15.53292311876512
  0
LWPOLYLINE
  5
4A6
330
1F
100
AcDbEntity
  8
0
100
AcDbPolyline
 90
        3
 70
     0
 43
0.0
 10
17.65250947622621
 20
-23.50208763009076
 10
20.93920741175063
 20
-23.50208763009076
 10
23.598201896967
 20
-21.57021505484936
  0
LWPOLYLINE
  5
4A7
330
1F
100
AcDbEntity
  8
0
100
AcDbPolyline
 90
        3
 70
     0
 43
0.0
 10
10.04024943006781
 20
-21.57021505484938
 10
12.69924391528413
 20
-23.50208763009076
 10
15.98594185080853
 20
-23.50208763009076
  0
LWPOLYLINE
  5
4A8
330
1F
100
AcDbEntity
  8
0
100
AcDbPolyline
 90
        3
 70
     0
 43
0.0
 10
5.017327896159393
 20
-15.53292311876507
 10
6.032973413613504
 20
-18.65875860743942
 10
8.691967898829837
 20
-20.59063118268081
  0
LWPOLYLINE
  5
4A9
330
1F
100
AcDbEntity
  8
0
100
AcDbPolyline
 90
        3
 70
     0
 43
0.0
 10
4.502330177630241
 20
-7.696252141416447
 10
3.486684660176138
 20
-10.82208763009076
 10
4.502330177630241
 20
-13.94792311876509
  0
LWPOLYLINE
  5
4AC
330
1F
100
AcDbEntity
  8
0
100
AcDbPolyline
 90
        3
 70
     0
 43
0.0
 10
-36.67351517571983
 20
-7.696252141416447
 10
-37.68916069317393
 20
-10.82208763009076
 10
-36.67351517571983
 20
-13.94792311876509
  0
LWPOLYLINE
  5
4AD
330
1F
100
AcDbEntity
  8
0
100
AcDbPolyline
 90
        3
 70
     0
 43
0.0
 10
-36.15851745719068
 20
-15.53292311876507
 10
-35.14287193973657
 20
-18.65875860743942
 10
-32.48387745452026
 20
-20.59063118268081
  0
LWPOLYLINE
  5
4AE
330
1F
100
AcDbEntity
  8
0
100
AcDbPolyline
 90
        3
 70
     0
 43
0.0
 10
-31.13559592328228
 20
-21.57021505484938
 10
-28.47660143806595
 20
-23.50208763009076
 10
-25.18990350254153
 20
-23.50208763009076
  0
LWPOLYLINE
  5
4AF
330
1F
100
AcDbEntity
  8
0
100
AcDbPolyline
 90
        3
 70
     0
 43
0.0
 10
-23.52333587712386
 20
-23.50208763009076
 10
-20.23663794159945
 20
-23.50208763009076
 10
-17.57764345638309
 20
-21.57021505484936
  0
LWPOLYLINE
  5
4B0
330
1F
100
AcDbEntity
  8
0
100
AcDbPolyline
 90
        3
 70
     0
 43
0.0
 10
-16.22936192514512
 20
-20.59063118268079
 10
-13.57036743992884
 20
-18.65875860743943
 10
-12.55472192247474
 20
-15.53292311876512
  0
LWPOLYLINE
  5
4B1
330
1F
100
AcDbEntity
  8
0
100
AcDbPolyline
 90
        3
 70
     0
 43
0.0
 10
-12.03972420394557
 20
-13.94792311876512
 10
-11.02407868649146
 20
-10.82208763009076
 10
-12.03972420394558
 20
-7.696252141416369
  0
LWPOLYLINE
  5
4B2
330
1F
100
AcDbEntity
  8
0
100
AcDbPolyline
 90
        3
 70
     0
 43
0.0
 10
-12.55472192247475
 20
-6.111252141416372
 10
-13.57036743992883
 20
-2.985416652742106
 10
-16.22936192514507
 20
-1.05354407750077
  0
LWPOLYLINE
  5
4B3
330
1F
100
AcDbEntity
  8
0
100
AcDbPolyline
 90
        3
 70
     0
 43
0.0
 10
-17.57764345638313
 20
-0.0739602053321384
 10
-20.23663794159945
 20
1.857912369909236
 10
-23.52333587712386
 20
1.857912369909236
  0
LWPOLYLINE
  5
4B4
330
1F
100
AcDbEntity
  8
0
100
AcDbPolyline
 90
        3
 70
     0
 43
0.0
 10
-25.18990350254153
 20
1.857912369909236
 10
-28.47660143806595
 20
1.857912369909236
 10
-31.13559592328229
 20
-0.0739602053321633
  0
LWPOLYLINE
  5
4B5
330
1F
100
AcDbEntity
  8
0
100
AcDbPolyline
 90
        3
 70
     0
 43
0.0
 10
-32.48387745452028
 20
-1.053544077500749
 10
-35.14287193973656
 20
-2.985416652742095
 10
-36.15851745719066
 20
-6.111252141416457
  0
LINE
  5
4B6
330
1F
100
AcDbEntity
  8
0
100
AcDbLine
 10
-27.34825018883288
 20
-16.85937956617505
 30
0.0
 11
-27.77924201479151
 21
-15.53292311876509
 31
0.0
  0
LINE
  5
4B7
330
1F
100
AcDbEntity
  8
0
100
AcDbLine
 10
-26.83325247030377
 20
-18.44437956617503
 30
0.0
 11
-31.13559592328227
 21
-21.57021505484938
 31
0.0
  0
LINE
  5
4B8
330
1F
100
AcDbEntity
  8
0
100
AcDbLine
 10
-23.2282684405996
 20
-17.46479569400644
 30
0.0
 11
-24.35661968983267
 21
-16.64500052491064
 31
0.0
  0
LINE
  5
4B9
330
1F
100
AcDbEntity
  8
0
100
AcDbLine
 10
-21.87998690936165
 20
-18.44437956617503
 30
0.0
 11
-23.52333587712386
 21
-23.50208763009076
 31
0.0
  0
LINE
  5
4BA
330
1F
100
AcDbEntity
  8
0
100
AcDbLine
 10
-19.53927851832499
 20
-15.53292311876511
 30
0.0
 11
-20.93399736487387
 21
-15.5329231187651
 31
0.0
  0
LINE
  5
4BB
330
1F
100
AcDbEntity
  8
0
100
AcDbLine
 10
-17.87271089290731
 20
-15.53292311876511
 30
0.0
 11
-16.22936192514512
 21
-20.59063118268078
 31
0.0
  0
LINE
  5
4BC
330
1F
100
AcDbEntity
  8
0
100
AcDbLine
 10
-17.6903491881621
 20
-11.80167150225933
 30
0.0
 11
-18.81870043739511
 21
-12.62146667135508
 31
0.0
  0
LINE
  5
4BD
330
1F
100
AcDbEntity
  8
0
100
AcDbLine
 10
-16.34206765692415
 20
-10.82208763009075
 30
0.0
 11
-12.03972420394557
 21
-13.94792311876512
 31
0.0
  0
LINE
  5
4BE
330
1F
100
AcDbEntity
  8
0
100
AcDbLine
 10
-18.38770861143646
 20
-7.69625214141639
 30
0.0
 11
-18.81870043739508
 21
-9.022708588826429
 31
0.0
  0
LINE
  5
4BF
330
1F
100
AcDbEntity
  8
0
100
AcDbLine
 10
-17.87271089290729
 20
-6.111252141416386
 30
0.0
 11
-12.55472192247474
 21
-6.111252141416368
 31
0.0
  0
LINE
  5
4C0
330
1F
100
AcDbEntity
  8
0
100
AcDbLine
 10
-21.36498919083249
 20
-4.784795694006465
 30
0.0
 11
-20.93399736487389
 21
-6.111252141416407
 31
0.0
  0
LINE
  5
4C1
330
1F
100
AcDbEntity
  8
0
100
AcDbLine
 10
-21.87998690936163
 20
-3.199795694006478
 30
0.0
 11
-17.57764345638312
 21
-0.0739602053321491
 31
0.0
  0
LINE
  5
4C2
330
1F
100
AcDbEntity
  8
0
100
AcDbLine
 10
-25.48497093906581
 20
-4.179379566175068
 30
0.0
 11
-24.3566196898327
 21
-4.999174735270862
 31
0.0
  0
LINE
  5
4C3
330
1F
100
AcDbEntity
  8
0
100
AcDbLine
 10
-26.83325247030374
 20
-3.199795694006489
 30
0.0
 11
-25.18990350254152
 21
1.857912369909238
 31
0.0
  0
LINE
  5
4C4
330
1F
100
AcDbEntity
  8
0
100
AcDbLine
 10
-29.17396086134042
 20
-6.111252141416439
 30
0.0
 11
-27.77924201479151
 21
-6.111252141416422
 31
0.0
  0
LINE
  5
4C5
330
1F
100
AcDbEntity
  8
0
100
AcDbLine
 10
-30.84052848675805
 20
-6.111252141416439
 30
0.0
 11
-32.48387745452027
 21
-1.053544077500747
 31
0.0
  0
LINE
  5
4C6
330
1F
100
AcDbEntity
  8
0
100
AcDbLine
 10
-31.02289019150331
 20
-9.842503757922191
 30
0.0
 11
-29.89453894227026
 21
-9.022708588826397
 31
0.0
  0
LINE
  5
4C7
330
1F
100
AcDbEntity
  8
0
100
AcDbLine
 10
-32.3711717227413
 20
-10.82208763009076
 30
0.0
 11
-36.67351517571983
 21
-7.696252141416444
 31
0.0
  0
LINE
  5
4C8
330
1F
100
AcDbEntity
  8
0
100
AcDbLine
 10
-30.84052848675803
 20
-15.53292311876509
 30
0.0
 11
-36.15851745719067
 21
-15.53292311876507
 31
0.0
  0
LINE
  5
4C9
330
1F
100
AcDbEntity
  8
0
100
AcDbLine
 10
-30.32553076822887
 20
-13.94792311876509
 30
0.0
 11
-29.89453894227024
 21
-12.62146667135511
 31
0.0
  0
LINE
  5
4CA
330
1F
100
AcDbEntity
  8
0
100
AcDbLine
 10
-30.32553076822887
 20
-13.94792311876509
 30
0.0
 11
-33.97695211324384
 21
-13.94792311876508
 31
0.0
  0
LINE
  5
4CB
330
1F
100
AcDbEntity
  8
0
100
AcDbLine
 10
-28.65896314281127
 20
-13.94792311876509
 30
0.0
 11
-28.03125969250313
 21
-12.01605054352372
 31
0.0
  0
LINE
  5
4CC
330
1F
100
AcDbEntity
  8
0
100
AcDbLine
 10
-27.77924201479153
 20
-15.53292311876509
 30
0.0
 11
-29.17396086134039
 21
-15.53292311876509
 31
0.0
  0
LINE
  5
4CD
330
1F
100
AcDbEntity
  8
0
100
AcDbLine
 10
-27.3482501888329
 20
-16.85937956617505
 30
0.0
 11
-30.30231211057346
 21
-19.00563118268083
 31
0.0
  0
LINE
  5
4CE
330
1F
100
AcDbEntity
  8
0
100
AcDbLine
 10
-25.99996865759491
 20
-15.87979569400646
 30
0.0
 11
-26.62767210790303
 21
-13.94792311876509
 31
0.0
  0
LINE
  5
4CF
330
1F
100
AcDbEntity
  8
0
100
AcDbLine
 10
-24.35661968983272
 20
-16.64500052491065
 30
0.0
 11
-25.48497093906577
 21
-17.46479569400644
 31
0.0
  0
LINE
  5
4D0
330
1F
100
AcDbEntity
  8
0
100
AcDbLine
 10
-23.2282684405996
 20
-17.46479569400645
 30
0.0
 11
-24.3566196898327
 21
-20.9375037579222
 31
0.0
  0
LINE
  5
4D1
330
1F
100
AcDbEntity
  8
0
100
AcDbLine
 10
-22.71327072207044
 20
-15.87979569400649
 30
0.0
 11
-24.3566196898327
 21
-14.68583278057349
 31
0.0
  0
LINE
  5
4D2
330
1F
100
AcDbEntity
  8
0
100
AcDbLine
 10
-20.93399736487385
 20
-15.53292311876511
 30
0.0
 11
-21.36498919083249
 21
-16.85937956617507
 31
0.0
  0
LINE
  5
4D3
330
1F
100
AcDbEntity
  8
0
100
AcDbLine
 10
-19.53927851832496
 20
-15.53292311876511
 30
0.0
 11
-18.41092726909194
 21
-19.0056311826808
 31
0.0
  0
LINE
  5
4D4
330
1F
100
AcDbEntity
  8
0
100
AcDbLine
 10
-20.05427623685413
 20
-13.94792311876511
 30
0.0
 11
-22.08556727176234
 21
-13.94792311876511
 31
0.0
  0
LINE
  5
4D5
330
1F
100
AcDbEntity
  8
0
100
AcDbLine
 10
-18.81870043739513
 20
-12.6214666713551
 30
0.0
 11
-18.38770861143646
 21
-13.94792311876511
 31
0.0
  0
LINE
  5
4D6
330
1F
100
AcDbEntity
  8
0
100
AcDbLine
 10
-17.69034918816212
 20
-11.80167150225933
 30
0.0
 11
-14.73628726642151
 21
-13.94792311876512
 31
0.0
  0
LINE
  5
4D7
330
1F
100
AcDbEntity
  8
0
100
AcDbLine
 10
-19.03863071940008
 20
-10.82208763009075
 30
0.0
 11
-20.68197968716226
 21
-12.01605054352368
 31
0.0
  0
LINE
  5
4D8
330
1F
100
AcDbEntity
  8
0
100
AcDbLine
 10
-18.81870043739511
 20
-9.022708588826436
 30
0.0
 11
-17.69034918816214
 21
-9.842503757922177
 31
0.0
  0
LINE
  5
4D9
330
1F
100
AcDbEntity
  8
0
100
AcDbLine
 10
-18.38770861143646
 20
-7.69625214141639
 30
0.0
 11
-14.73628726642153
 21
-7.696252141416387
 31
0.0
  0
LINE
  5
4DA
330
1F
100
AcDbEntity
  8
0
100
AcDbLine
 10
-20.0542762368541
 20
-7.696252141416401
 30
0.0
 11
-20.68197968716226
 21
-9.628124716657836
 31
0.0
  0
LINE
  5
4DB
330
1F
100
AcDbEntity
  8
0
100
AcDbLine
 10
-20.93399736487389
 20
-6.111252141416404
 30
0.0
 11
-19.53927851832494
 21
-6.111252141416386
 31
0.0
  0
LINE
  5
4DC
330
1F
100
AcDbEntity
  8
0
100
AcDbLine
 10
-21.36498919083253
 20
-4.784795694006476
 30
0.0
 11
-18.41092726909181
 21
-2.638544077500633
 31
0.0
  0
LINE
  5
4DD
330
1F
100
AcDbEntity
  8
0
100
AcDbLine
 10
-22.71327072207051
 20
-5.764379566175033
 30
0.0
 11
-22.08556727176236
 21
-7.696252141416408
 31
0.0
  0
LINE
  5
4DE
330
1F
100
AcDbEntity
  8
0
100
AcDbLine
 10
-24.35661968983272
 20
-4.999174735270866
 30
0.0
 11
-23.22826844059961
 21
-4.17937956617505
 31
0.0
  0
LINE
  5
4DF
330
1F
100
AcDbEntity
  8
0
100
AcDbLine
 10
-25.48497093906576
 20
-4.179379566175086
 30
0.0
 11
-24.3566196898327
 21
-0.7066715022593489
 31
0.0
  0
LINE
  5
4E0
330
1F
100
AcDbEntity
  8
0
100
AcDbLine
 10
-29.89453894227026
 20
-12.62146667135512
 30
0.0
 11
-31.02289019150334
 21
-11.80167150225933
 31
0.0
  0
LINE
  5
4E1
330
1F
100
AcDbEntity
  8
0
100
AcDbLine
 10
-29.67460866026535
 20
-10.82208763009076
 30
0.0
 11
-28.03125969250313
 21
-9.628124716657815
 31
0.0
  0
LINE
  5
4E2
330
1F
100
AcDbEntity
  8
0
100
AcDbLine
 10
-31.02289019150334
 20
-9.842503757922191
 30
0.0
 11
-33.9769521132439
 21
-7.696252141416444
 31
0.0
  0
LINE
  5
4E3
330
1F
100
AcDbEntity
  8
0
100
AcDbLine
 10
-29.89453894227026
 20
-9.022708588826397
 30
0.0
 11
-30.32553076822889
 21
-7.69625214141644
 31
0.0
  0
LINE
  5
4E4
330
1F
100
AcDbEntity
  8
0
100
AcDbLine
 10
-28.65896314281124
 20
-7.696252141416429
 30
0.0
 11
-26.62767210790301
 21
-7.696252141416419
 31
0.0
  0
LINE
  5
4E5
330
1F
100
AcDbEntity
  8
0
100
AcDbLine
 10
-29.17396086134042
 20
-6.111252141416439
 30
0.0
 11
-30.30231211057346
 21
-2.638544077500707
 31
0.0
  0
LINE
  5
4E6
330
1F
100
AcDbEntity
  8
0
100
AcDbLine
 10
-25.9999686575949
 20
-5.764379566175048
 30
0.0
 11
-24.3566196898327
 21
-6.958342479608013
 31
0.0
  0
LINE
  5
4E7
330
1F
100
AcDbEntity
  8
0
100
AcDbLine
 10
-27.77924201479151
 20
-6.111252141416422
 30
0.0
 11
-27.34825018883293
 21
-4.784795694006476
 31
0.0
  0
LINE
  5
4E8
330
1F
100
AcDbEntity
  8
0
100
AcDbLine
 10
-20.68197968716226
 20
-12.01605054352368
 30
0.0
 11
-20.05427623685413
 21
-13.94792311876511
 31
0.0
  0
LINE
  5
4E9
330
1F
100
AcDbEntity
  8
0
100
AcDbLine
 10
-22.08556727176234
 20
-13.94792311876509
 30
0.0
 11
-22.71327072207045
 21
-15.87979569400649
 31
0.0
  0
LINE
  5
4EA
330
1F
100
AcDbEntity
  8
0
100
AcDbLine
 10
-24.35661968983272
 20
-14.6858327805735
 30
0.0
 11
-25.9999686575949
 21
-15.87979569400646
 31
0.0
  0
LINE
  5
4EB
330
1F
100
AcDbEntity
  8
0
100
AcDbLine
 10
-26.62767210790303
 20
-13.94792311876509
 30
0.0
 11
-28.65896314281122
 21
-13.94792311876509
 31
0.0
  0
LINE
  5
4EC
330
1F
100
AcDbEntity
  8
0
100
AcDbLine
 10
-28.03125969250313
 20
-12.01605054352373
 30
0.0
 11
-29.67460866026537
 21
-10.82208763009076
 31
0.0
  0
LINE
  5
4ED
330
1F
100
AcDbEntity
  8
0
100
AcDbLine
 10
-28.03125969250315
 20
-9.628124716657804
 30
0.0
 11
-28.65896314281127
 21
-7.69625214141644
 31
0.0
  0
LINE
  5
4EE
330
1F
100
AcDbEntity
  8
0
100
AcDbLine
 10
-26.62767210790301
 20
-7.696252141416422
 30
0.0
 11
-25.99996865759491
 21
-5.76437956617508
 31
0.0
  0
LINE
  5
4EF
330
1F
100
AcDbEntity
  8
0
100
AcDbLine
 10
-22.08556727176239
 20
-7.696252141416408
 30
0.0
 11
-20.0542762368541
 21
-7.696252141416405
 31
0.0
  0
LINE
  5
4F0
330
1F
100
AcDbEntity
  8
0
100
AcDbLine
 10
-20.68197968716225
 20
-9.628124716657861
 30
0.0
 11
-19.0386307194001
 21
-10.82208763009076
 31
0.0
  0
LINE
  5
4F1
330
1F
100
AcDbEntity
  8
0
100
AcDbLine
 10
-24.3566196898327
 20
-6.958342479608013
 30
0.0
 11
-22.71327072207047
 21
-5.764379566175033
 31
0.0
  0
LINE
  5
4F2
330
1F
100
AcDbEntity
  8
0
100
AcDbLine
 10
-17.57764345638309
 20
-21.57021505484938
 30
0.0
 11
-21.87998690936163
 21
-18.44437956617501
 31
0.0
  0
LINE
  5
4F3
330
1F
100
AcDbEntity
  8
0
100
AcDbLine
 10
-18.41092726909194
 20
-19.0056311826808
 30
0.0
 11
-21.36498919083249
 21
-16.85937956617505
 31
0.0
  0
LINE
  5
4F4
330
1F
100
AcDbEntity
  8
0
100
AcDbLine
 10
-12.55472192247474
 20
-15.53292311876512
 30
0.0
 11
-17.87271089290735
 21
-15.53292311876512
 31
0.0
  0
LINE
  5
4F5
330
1F
100
AcDbEntity
  8
0
100
AcDbLine
 10
-14.73628726642151
 20
-13.94792311876512
 30
0.0
 11
-18.38770861143648
 21
-13.94792311876511
 31
0.0
  0
LINE
  5
4F6
330
1F
100
AcDbEntity
  8
0
100
AcDbLine
 10
-25.18990350254152
 20
-23.50208763009076
 30
0.0
 11
-26.83325247030372
 21
-18.44437956617504
 31
0.0
  0
LINE
  5
4F7
330
1F
100
AcDbEntity
  8
0
100
AcDbLine
 10
-24.3566196898327
 20
-20.9375037579222
 30
0.0
 11
-25.48497093906576
 21
-17.46479569400644
 31
0.0
  0
LINE
  5
4F8
330
1F
100
AcDbEntity
  8
0
100
AcDbLine
 10
-32.48387745452026
 20
-20.5906311826808
 30
0.0
 11
-30.84052848675803
 21
-15.53292311876509
 31
0.0
  0
LINE
  5
4F9
330
1F
100
AcDbEntity
  8
0
100
AcDbLine
 10
-30.30231211057346
 20
-19.00563118268083
 30
0.0
 11
-29.17396086134042
 21
-15.53292311876509
 31
0.0
  0
LINE
  5
4FA
330
1F
100
AcDbEntity
  8
0
100
AcDbLine
 10
-36.67351517571983
 20
-13.94792311876509
 30
0.0
 11
-32.37117172274128
 21
-10.82208763009076
 31
0.0
  0
LINE
  5
4FB
330
1F
100
AcDbEntity
  8
0
100
AcDbLine
 10
-33.97695211324384
 20
-13.94792311876508
 30
0.0
 11
-31.02289019150331
 21
-11.80167150225933
 31
0.0
  0
LINE
  5
4FC
330
1F
100
AcDbEntity
  8
0
100
AcDbLine
 10
-24.3566196898327
 20
-0.7066715022593489
 30
0.0
 11
-23.22826844059967
 21
-4.179379566175068
 31
0.0
  0
LINE
  5
4FD
330
1F
100
AcDbEntity
  8
0
100
AcDbLine
 10
-23.52333587712386
 20
1.857912369909238
 30
0.0
 11
-21.87998690936165
 21
-3.199795694006493
 31
0.0
  0
LINE
  5
4FE
330
1F
100
AcDbEntity
  8
0
100
AcDbLine
 10
-36.15851745719066
 20
-6.111252141416457
 30
0.0
 11
-30.84052848675807
 21
-6.111252141416439
 31
0.0
  0
LINE
  5
4FF
330
1F
100
AcDbEntity
  8
0
100
AcDbLine
 10
-33.9769521132439
 20
-7.696252141416444
 30
0.0
 11
-30.32553076822887
 21
-7.69625214141644
 31
0.0
  0
LINE
  5
500
330
1F
100
AcDbEntity
  8
0
100
AcDbLine
 10
-16.22936192514506
 20
-1.053544077500768
 30
0.0
 11
-17.87271089290727
 21
-6.111252141416386
 31
0.0
  0
LINE
  5
501
330
1F
100
AcDbEntity
  8
0
100
AcDbLine
 10
-18.41092726909181
 20
-2.638544077500633
 30
0.0
 11
-19.53927851832494
 21
-6.1112521414164
 31
0.0
  0
LINE
  5
502
330
1F
100
AcDbEntity
  8
0
100
AcDbLine
 10
-31.13559592328229
 20
-0.0739602053321598
 30
0.0
 11
-26.83325247030374
 21
-3.199795694006489
 31
0.0
  0
LINE
  5
503
330
1F
100
AcDbEntity
  8
0
100
AcDbLine
 10
-30.30231211057346
 20
-2.638544077500707
 30
0.0
 11
-27.34825018883288
 21
-4.784795694006479
 31
0.0
  0
LINE
  5
504
330
1F
100
AcDbEntity
  8
0
100
AcDbLine
 10
-12.03972420394558
 20
-7.696252141416369
 30
0.0
 11
-16.34206765692413
 21
-10.82208763009075
 31
0.0
  0
LINE
  5
505
330
1F
100
AcDbEntity
  8
0
100
AcDbLine
 10
-14.73628726642153
 20
-7.696252141416387
 30
0.0
 11
-17.69034918816214
 21
-9.84250375792217
 31
0.0
  0
LINE
  5
51E
330
1F
100
AcDbEntity
  8
0
100
AcDbLine
 10
-14.73628726642153
 20
32.72794960392356
 30
0.0
 11
-17.69034918816214
 21
30.58169798741778
 31
0.0
  0
LINE
  5
51F
330
1F
100
AcDbEntity
  8
0
100
AcDbLine
 10
-12.03972420394558
 20
32.7279496039236
 30
0.0
 11
-16.34206765692413
 21
29.6021141152492
 31
0.0
  0
LINE
  5
520
330
1F
100
AcDbEntity
  8
0
100
AcDbLine
 10
-30.30231211057346
 20
37.78565766783925
 30
0.0
 11
-27.34825018883288
 21
35.63940605133348
 31
0.0
  0
LINE
  5
521
330
1F
100
AcDbEntity
  8
0
100
AcDbLine
 10
-31.13559592328229
 20
40.35024154000781
 30
0.0
 11
-26.83325247030374
 21
37.22440605133349
 31
0.0
  0
LINE
  5
522
330
1F
100
AcDbEntity
  8
0
100
AcDbLine
 10
-18.41092726909181
 20
37.78565766783932
 30
0.0
 11
-19.53927851832494
 21
34.31294960392357
 31
0.0
  0
LINE
  5
523
330
1F
100
AcDbEntity
  8
0
100
AcDbLine
 10
-16.22936192514506
 20
39.37065766783919
 30
0.0
 11
-17.87271089290727
 21
34.31294960392357
 31
0.0
  0
LINE
  5
524
330
1F
100
AcDbEntity
  8
0
100
AcDbLine
 10
-33.9769521132439
 20
32.72794960392351
 30
0.0
 11
-30.32553076822886
 21
32.72794960392351
 31
0.0
  0
LINE
  5
525
330
1F
100
AcDbEntity
  8
0
100
AcDbLine
 10
-36.15851745719066
 20
34.31294960392352
 30
0.0
 11
-30.84052848675807
 21
34.31294960392353
 31
0.0
  0
LINE
  5
526
330
1F
100
AcDbEntity
  8
0
100
AcDbLine
 10
-23.52333587712386
 20
42.28211411524919
 30
0.0
 11
-21.87998690936165
 21
37.22440605133349
 31
0.0
  0
LINE
  5
527
330
1F
100
AcDbEntity
  8
0
100
AcDbLine
 10
-24.3566196898327
 20
39.71753024308062
 30
0.0
 11
-23.22826844059966
 21
36.24482217916489
 31
0.0
  0
LINE
  5
528
330
1F
100
AcDbEntity
  8
0
100
AcDbLine
 10
-33.97695211324384
 20
26.47627862657487
 30
0.0
 11
-31.02289019150331
 21
28.62253024308061
 31
0.0
  0
LINE
  5
529
330
1F
100
AcDbEntity
  8
0
100
AcDbLine
 10
-36.67351517571983
 20
26.47627862657487
 30
0.0
 11
-32.37117172274128
 21
29.6021141152492
 31
0.0
  0
LINE
  5
52A
330
1F
100
AcDbEntity
  8
0
100
AcDbLine
 10
-30.30231211057346
 20
21.41857056265915
 30
0.0
 11
-29.17396086134042
 21
24.89127862657487
 31
0.0
  0
LINE
  5
52B
330
1F
100
AcDbEntity
  8
0
100
AcDbLine
 10
-32.48387745452026
 20
19.83357056265915
 30
0.0
 11
-30.84052848675803
 21
24.89127862657487
 31
0.0
  0
LINE
  5
52C
330
1F
100
AcDbEntity
  8
0
100
AcDbLine
 10
-24.3566196898327
 20
19.48669798741776
 30
0.0
 11
-25.48497093906576
 21
22.95940605133352
 31
0.0
  0
LINE
  5
52D
330
1F
100
AcDbEntity
  8
0
100
AcDbLine
 10
-25.18990350254152
 20
16.9221141152492
 30
0.0
 11
-26.83325247030372
 21
21.97982217916493
 31
0.0
  0
LINE
  5
52E
330
1F
100
AcDbEntity
  8
0
100
AcDbLine
 10
-14.73628726642151
 20
26.47627862657483
 30
0.0
 11
-18.38770861143648
 21
26.47627862657483
 31
0.0
  0
LINE
  5
52F
330
1F
100
AcDbEntity
  8
0
100
AcDbLine
 10
-12.55472192247474
 20
24.89127862657483
 30
0.0
 11
-17.87271089290735
 21
24.89127862657483
 31
0.0
  0
LINE
  5
530
330
1F
100
AcDbEntity
  8
0
100
AcDbLine
 10
-18.41092726909193
 20
21.41857056265915
 30
0.0
 11
-21.36498919083249
 21
23.56482217916493
 31
0.0
  0
LINE
  5
531
330
1F
100
AcDbEntity
  8
0
100
AcDbLine
 10
-17.57764345638309
 20
18.85398669049058
 30
0.0
 11
-21.87998690936163
 21
21.97982217916496
 31
0.0
  0
LINE
  5
532
330
1F
100
AcDbEntity
  8
0
100
AcDbLine
 10
-24.3566196898327
 20
33.46585926573195
 30
0.0
 11
-22.71327072207047
 21
34.65982217916493
 31
0.0
  0
LINE
  5
533
330
1F
100
AcDbEntity
  8
0
100
AcDbLine
 10
-20.68197968716224
 20
30.79607702868209
 30
0.0
 11
-19.0386307194001
 21
29.6021141152492
 31
0.0
  0
LINE
  5
534
330
1F
100
AcDbEntity
  8
0
100
AcDbLine
 10
-22.08556727176238
 20
32.72794960392353
 30
0.0
 11
-20.0542762368541
 21
32.72794960392356
 31
0.0
  0
LINE
  5
535
330
1F
100
AcDbEntity
  8
0
100
AcDbLine
 10
-26.62767210790301
 20
32.72794960392353
 30
0.0
 11
-25.99996865759491
 21
34.65982217916489
 31
0.0
  0
LINE
  5
536
330
1F
100
AcDbEntity
  8
0
100
AcDbLine
 10
-28.03125969250315
 20
30.79607702868215
 30
0.0
 11
-28.65896314281127
 21
32.72794960392353
 31
0.0
  0
LINE
  5
537
330
1F
100
AcDbEntity
  8
0
100
AcDbLine
 10
-28.03125969250313
 20
28.40815120181622
 30
0.0
 11
-29.67460866026537
 21
29.6021141152492
 31
0.0
  0
LINE
  5
538
330
1F
100
AcDbEntity
  8
0
100
AcDbLine
 10
-26.62767210790303
 20
26.47627862657487
 30
0.0
 11
-28.65896314281122
 21
26.47627862657487
 31
0.0
  0
LINE
  5
539
330
1F
100
AcDbEntity
  8
0
100
AcDbLine
 10
-24.35661968983272
 20
25.73836896476646
 30
0.0
 11
-25.99996865759489
 21
24.54440605133348
 31
0.0
  0
LINE
  5
53A
330
1F
100
AcDbEntity
  8
0
100
AcDbLine
 10
-22.08556727176233
 20
26.47627862657487
 30
0.0
 11
-22.71327072207045
 21
24.54440605133345
 31
0.0
  0
LINE
  5
53B
330
1F
100
AcDbEntity
  8
0
100
AcDbLine
 10
-20.68197968716226
 20
28.40815120181628
 30
0.0
 11
-20.05427623685413
 21
26.47627862657483
 31
0.0
  0
LINE
  5
53C
330
1F
100
AcDbEntity
  8
0
100
AcDbLine
 10
-27.77924201479151
 20
34.31294960392353
 30
0.0
 11
-27.34825018883293
 21
35.63940605133348
 31
0.0
  0
LINE
  5
53D
330
1F
100
AcDbEntity
  8
0
100
AcDbLine
 10
-25.99996865759489
 20
34.65982217916493
 30
0.0
 11
-24.3566196898327
 21
33.46585926573195
 31
0.0
  0
LINE
  5
53E
330
1F
100
AcDbEntity
  8
0
100
AcDbLine
 10
-29.17396086134042
 20
34.31294960392353
 30
0.0
 11
-30.30231211057346
 21
37.78565766783925
 31
0.0
  0
LINE
  5
53F
330
1F
100
AcDbEntity
  8
0
100
AcDbLine
 10
-28.65896314281124
 20
32.72794960392353
 30
0.0
 11
-26.62767210790301
 21
32.72794960392353
 31
0.0
  0
LINE
  5
540
330
1F
100
AcDbEntity
  8
0
100
AcDbLine
 10
-29.89453894227026
 20
31.40149315651356
 30
0.0
 11
-30.32553076822889
 21
32.72794960392351
 31
0.0
  0
LINE
  5
541
330
1F
100
AcDbEntity
  8
0
100
AcDbLine
 10
-31.02289019150334
 20
30.58169798741776
 30
0.0
 11
-33.9769521132439
 21
32.72794960392351
 31
0.0
  0
LINE
  5
542
330
1F
100
AcDbEntity
  8
0
100
AcDbLine
 10
-29.67460866026535
 20
29.6021141152492
 30
0.0
 11
-28.03125969250313
 21
30.79607702868215
 31
0.0
  0
LINE
  5
543
330
1F
100
AcDbEntity
  8
0
100
AcDbLine
 10
-29.89453894227026
 20
27.80273507398485
 30
0.0
 11
-31.02289019150334
 21
28.62253024308061
 31
0.0
  0
LINE
  5
544
330
1F
100
AcDbEntity
  8
0
100
AcDbLine
 10
-25.48497093906576
 20
36.24482217916487
 30
0.0
 11
-24.3566196898327
 21
39.71753024308062
 31
0.0
  0
LINE
  5
545
330
1F
100
AcDbEntity
  8
0
100
AcDbLine
 10
-24.35661968983272
 20
35.42502701006909
 30
0.0
 11
-23.22826844059961
 21
36.24482217916493
 31
0.0
  0
LINE
  5
546
330
1F
100
AcDbEntity
  8
0
100
AcDbLine
 10
-22.71327072207049
 20
34.65982217916493
 30
0.0
 11
-22.08556727176236
 21
32.72794960392353
 31
0.0
  0
LINE
  5
547
330
1F
100
AcDbEntity
  8
0
100
AcDbLine
 10
-21.36498919083253
 20
35.63940605133348
 30
0.0
 11
-18.41092726909181
 21
37.78565766783932
 31
0.0
  0
LINE
  5
548
330
1F
100
AcDbEntity
  8
0
100
AcDbLine
 10
-20.93399736487389
 20
34.31294960392357
 30
0.0
 11
-19.53927851832494
 21
34.31294960392357
 31
0.0
  0
LINE
  5
549
330
1F
100
AcDbEntity
  8
0
100
AcDbLine
 10
-20.0542762368541
 20
32.72794960392356
 30
0.0
 11
-20.68197968716226
 21
30.79607702868211
 31
0.0
  0
LINE
  5
54A
330
1F
100
AcDbEntity
  8
0
100
AcDbLine
 10
-18.38770861143645
 20
32.72794960392356
 30
0.0
 11
-14.73628726642153
 21
32.72794960392356
 31
0.0
  0
LINE
  5
54B
330
1F
100
AcDbEntity
  8
0
100
AcDbLine
 10
-18.8187004373951
 20
31.40149315651353
 30
0.0
 11
-17.69034918816214
 21
30.58169798741778
 31
0.0
  0
LINE
  5
54C
330
1F
100
AcDbEntity
  8
0
100
AcDbLine
 10
-19.03863071940008
 20
29.6021141152492
 30
0.0
 11
-20.68197968716226
 21
28.40815120181628
 31
0.0
  0
LINE
  5
54D
330
1F
100
AcDbEntity
  8
0
100
AcDbLine
 10
-17.69034918816212
 20
28.62253024308061
 30
0.0
 11
-14.73628726642151
 21
26.47627862657483
 31
0.0
  0
LINE
  5
54E
330
1F
100
AcDbEntity
  8
0
100
AcDbLine
 10
-18.81870043739513
 20
27.80273507398485
 30
0.0
 11
-18.38770861143645
 21
26.47627862657483
 31
0.0
  0
LINE
  5
54F
330
1F
100
AcDbEntity
  8
0
100
AcDbLine
 10
-20.05427623685413
 20
26.47627862657483
 30
0.0
 11
-22.08556727176233
 21
26.47627862657483
 31
0.0
  0
LINE
  5
550
330
1F
100
AcDbEntity
  8
0
100
AcDbLine
 10
-19.53927851832496
 20
24.89127862657483
 30
0.0
 11
-18.41092726909193
 21
21.41857056265915
 31
0.0
  0
LINE
  5
551
330
1F
100
AcDbEntity
  8
0
100
AcDbLine
 10
-20.93399736487385
 20
24.89127862657483
 30
0.0
 11
-21.36498919083249
 21
23.56482217916489
 31
0.0
  0
LINE
  5
552
330
1F
100
AcDbEntity
  8
0
100
AcDbLine
 10
-22.71327072207043
 20
24.54440605133348
 30
0.0
 11
-24.3566196898327
 21
25.73836896476646
 31
0.0
  0
LINE
  5
553
330
1F
100
AcDbEntity
  8
0
100
AcDbLine
 10
-23.22826844059959
 20
22.95940605133347
 30
0.0
 11
-24.3566196898327
 21
19.48669798741776
 31
0.0
  0
LINE
  5
554
330
1F
100
AcDbEntity
  8
0
100
AcDbLine
 10
-24.35661968983272
 20
23.77920122042931
 30
0.0
 11
-25.48497093906577
 21
22.95940605133347
 31
0.0
  0
LINE
  5
555
330
1F
100
AcDbEntity
  8
0
100
AcDbLine
 10
-25.99996865759491
 20
24.54440605133352
 30
0.0
 11
-26.62767210790303
 21
26.47627862657487
 31
0.0
  0
LINE
  5
556
330
1F
100
AcDbEntity
  8
0
100
AcDbLine
 10
-27.3482501888329
 20
23.56482217916493
 30
0.0
 11
-30.30231211057346
 21
21.41857056265915
 31
0.0
  0
LINE
  5
557
330
1F
100
AcDbEntity
  8
0
100
AcDbLine
 10
-27.77924201479153
 20
24.89127862657487
 30
0.0
 11
-29.17396086134038
 21
24.89127862657487
 31
0.0
  0
LINE
  5
558
330
1F
100
AcDbEntity
  8
0
100
AcDbLine
 10
-28.65896314281127
 20
26.47627862657487
 30
0.0
 11
-28.03125969250313
 21
28.40815120181622
 31
0.0
  0
LINE
  5
559
330
1F
100
AcDbEntity
  8
0
100
AcDbLine
 10
-30.32553076822886
 20
26.47627862657487
 30
0.0
 11
-33.97695211324384
 21
26.47627862657487
 31
0.0
  0
LINE
  5
55A
330
1F
100
AcDbEntity
  8
0
100
AcDbLine
 10
-30.32553076822886
 20
26.47627862657487
 30
0.0
 11
-29.89453894227024
 21
27.80273507398485
 31
0.0
  0
LINE
  5
55B
330
1F
100
AcDbEntity
  8
0
100
AcDbLine
 10
-30.84052848675803
 20
24.89127862657487
 30
0.0
 11
-36.15851745719067
 21
24.8912786265749
 31
0.0
  0
LINE
  5
55C
330
1F
100
AcDbEntity
  8
0
100
AcDbLine
 10
-32.3711717227413
 20
29.6021141152492
 30
0.0
 11
-36.67351517571983
 21
32.72794960392351
 31
0.0
  0
LINE
  5
55D
330
1F
100
AcDbEntity
  8
0
100
AcDbLine
 10
-31.02289019150331
 20
30.58169798741776
 30
0.0
 11
-29.89453894227026
 21
31.40149315651356
 31
0.0
  0
LINE
  5
55E
330
1F
100
AcDbEntity
  8
0
100
AcDbLine
 10
-30.84052848675805
 20
34.31294960392353
 30
0.0
 11
-32.48387745452027
 21
39.37065766783924
 31
0.0
  0
LINE
  5
55F
330
1F
100
AcDbEntity
  8
0
100
AcDbLine
 10
-29.17396086134042
 20
34.31294960392353
 30
0.0
 11
-27.77924201479151
 21
34.31294960392353
 31
0.0
  0
LINE
  5
560
330
1F
100
AcDbEntity
  8
0
100
AcDbLine
 10
-26.83325247030374
 20
37.22440605133349
 30
0.0
 11
-25.18990350254152
 21
42.28211411524919
 31
0.0
  0
LINE
  5
561
330
1F
100
AcDbEntity
  8
0
100
AcDbLine
 10
-25.4849709390658
 20
36.24482217916489
 30
0.0
 11
-24.3566196898327
 21
35.42502701006909
 31
0.0
  0
LINE
  5
562
330
1F
100
AcDbEntity
  8
0
100
AcDbLine
 10
-21.87998690936163
 20
37.22440605133349
 30
0.0
 11
-17.57764345638312
 21
40.35024154000781
 31
0.0
  0
LINE
  5
563
330
1F
100
AcDbEntity
  8
0
100
AcDbLine
 10
-21.36498919083249
 20
35.63940605133352
 30
0.0
 11
-20.93399736487389
 21
34.31294960392353
 31
0.0
  0
LINE
  5
564
330
1F
100
AcDbEntity
  8
0
100
AcDbLine
 10
-17.87271089290729
 20
34.31294960392357
 30
0.0
 11
-12.55472192247474
 21
34.3129496039236
 31
0.0
  0
LINE
  5
565
330
1F
100
AcDbEntity
  8
0
100
AcDbLine
 10
-18.38770861143645
 20
32.72794960392356
 30
0.0
 11
-18.81870043739508
 21
31.40149315651353
 31
0.0
  0
LINE
  5
566
330
1F
100
AcDbEntity
  8
0
100
AcDbLine
 10
-16.34206765692415
 20
29.6021141152492
 30
0.0
 11
-12.03972420394557
 21
26.47627862657483
 31
0.0
  0
LINE
  5
567
330
1F
100
AcDbEntity
  8
0
100
AcDbLine
 10
-17.6903491881621
 20
28.62253024308061
 30
0.0
 11
-18.8187004373951
 21
27.80273507398487
 31
0.0
  0
LINE
  5
568
330
1F
100
AcDbEntity
  8
0
100
AcDbLine
 10
-17.87271089290731
 20
24.89127862657483
 30
0.0
 11
-16.22936192514512
 21
19.83357056265917
 31
0.0
  0
LINE
  5
569
330
1F
100
AcDbEntity
  8
0
100
AcDbLine
 10
-19.53927851832498
 20
24.89127862657483
 30
0.0
 11
-20.93399736487387
 21
24.89127862657483
 31
0.0
  0
LINE
  5
56A
330
1F
100
AcDbEntity
  8
0
100
AcDbLine
 10
-21.87998690936165
 20
21.97982217916493
 30
0.0
 11
-23.52333587712386
 21
16.9221141152492
 31
0.0
  0
LINE
  5
56B
330
1F
100
AcDbEntity
  8
0
100
AcDbLine
 10
-23.22826844059959
 20
22.95940605133347
 30
0.0
 11
-24.35661968983267
 21
23.77920122042931
 31
0.0
  0
LINE
  5
56C
330
1F
100
AcDbEntity
  8
0
100
AcDbLine
 10
-26.83325247030376
 20
21.97982217916493
 30
0.0
 11
-31.13559592328227
 21
18.85398669049058
 31
0.0
  0
LINE
  5
56D
330
1F
100
AcDbEntity
  8
0
100
AcDbLine
 10
-27.34825018883288
 20
23.56482217916493
 30
0.0
 11
-27.77924201479151
 21
24.89127862657487
 31
0.0
  0
LWPOLYLINE
  5
56E
330
1F
100
AcDbEntity
  8
0
100
AcDbPolyline
 90
        3
 70
     0
 43
0.0
 10
-32.48387745452028
 20
39.37065766783924
 10
-35.14287193973656
 20
37.43878509259787
 10
-36.15851745719066
 20
34.31294960392352
  0
LWPOLYLINE
  5
56F
330
1F
100
AcDbEntity
  8
0
100
AcDbPolyline
 90
        3
 70
     0
 43
0.0
 10
-25.18990350254153
 20
42.28211411524919
 10
-28.47660143806595
 20
42.28211411524919
 10
-31.13559592328229
 20
40.35024154000781
  0
LWPOLYLINE
  5
570
330
1F
100
AcDbEntity
  8
0
100
AcDbPolyline
 90
        3
 70
     0
 43
0.0
 10
-17.57764345638313
 20
40.35024154000786
 10
-20.23663794159945
 20
42.28211411524919
 10
-23.52333587712386
 20
42.28211411524919
  0
LWPOLYLINE
  5
571
330
1F
100
AcDbEntity
  8
0
100
AcDbPolyline
 90
        3
 70
     0
 43
0.0
 10
-12.55472192247475
 20
34.3129496039236
 10
-13.57036743992883
 20
37.43878509259787
 10
-16.22936192514507
 20
39.3706576678392
  0
LWPOLYLINE
  5
572
330
1F
100
AcDbEntity
  8
0
100
AcDbPolyline
 90
        3
 70
     0
 43
0.0
 10
-12.03972420394557
 20
26.47627862657483
 10
-11.02407868649146
 20
29.6021141152492
 10
-12.03972420394558
 20
32.7279496039236
  0
LWPOLYLINE
  5
573
330
1F
100
AcDbEntity
  8
0
100
AcDbPolyline
 90
        3
 70
     0
 43
0.0
 10
-16.22936192514512
 20
19.83357056265918
 10
-13.57036743992884
 20
21.76544313790053
 10
-12.55472192247474
 20
24.89127862657483
  0
LWPOLYLINE
  5
574
330
1F
100
AcDbEntity
  8
0
100
AcDbPolyline
 90
        3
 70
     0
 43
0.0
 10
-23.52333587712386
 20
16.9221141152492
 10
-20.23663794159945
 20
16.9221141152492
 10
-17.57764345638309
 20
18.85398669049057
  0
LWPOLYLINE
  5
575
330
1F
100
AcDbEntity
  8
0
100
AcDbPolyline
 90
        3
 70
     0
 43
0.0
 10
-31.13559592328228
 20
18.85398669049057
 10
-28.47660143806595
 20
16.9221141152492
 10
-25.18990350254153
 20
16.9221141152492
  0
LWPOLYLINE
  5
576
330
1F
100
AcDbEntity
  8
0
100
AcDbPolyline
 90
        3
 70
     0
 43
0.0
 10
-36.15851745719068
 20
24.8912786265749
 10
-35.14287193973657
 20
21.76544313790053
 10
-32.48387745452026
 20
19.83357056265915
  0
LWPOLYLINE
  5
577
330
1F
100
AcDbEntity
  8
0
100
AcDbPolyline
 90
        3
 70
     0
 43
0.0
 10
-36.67351517571983
 20
32.72794960392351
 10
-37.68916069317393
 20
29.6021141152492
 10
-36.67351517571983
 20
26.47627862657487
  0
LWPOLYLINE
  5
578
330
1F
100
AcDbEntity
  8
0
100
AcDbPolyline
 90
        3
 70
     0
 43
0.0
 10
4.502330177630241
 20
32.72794960392351
 10
3.486684660176138
 20
29.6021141152492
 10
4.502330177630241
 20
26.47627862657487
  0
LWPOLYLINE
  5
579
330
1F
100
AcDbEntity
  8
0
100
AcDbPolyline
 90
        3
 70
     0
 43
0.0
 10
5.017327896159393
 20
24.8912786265749
 10
6.032973413613504
 20
21.76544313790053
 10
8.691967898829837
 20
19.83357056265915
  0
LWPOLYLINE
  5
57A
330
1F
100
AcDbEntity
  8
0
100
AcDbPolyline
 90
        3
 70
     0
 43
0.0
 10
10.04024943006781
 20
18.85398669049057
 10
12.69924391528413
 20
16.9221141152492
 10
15.98594185080853
 20
16.9221141152492
  0
LWPOLYLINE
  5
57B
330
1F
100
AcDbEntity
  8
0
100
AcDbPolyline
 90
        3
 70
     0
 43
0.0
 10
17.65250947622621
 20
16.9221141152492
 10
20.93920741175063
 20
16.9221141152492
 10
23.598201896967
 20
18.85398669049057
  0
LWPOLYLINE
  5
57C
330
1F
100
AcDbEntity
  8
0
100
AcDbPolyline
 90
        3
 70
     0
 43
0.0
 10
24.94648342820499
 20
19.83357056265918
 10
27.60547791342124
 20
21.76544313790053
 10
28.62112343087536
 20
24.89127862657483
  0
LWPOLYLINE
  5
57D
330
1F
100
AcDbEntity
  8
0
100
AcDbPolyline
 90
        3
 70
     0
 43
0.0
 10
29.13612114940449
 20
26.47627862657483
 10
30.15176666685861
 20
29.6021141152492
 10
29.13612114940449
 20
32.7279496039236
  0
LWPOLYLINE
  5
57E
330
1F
100
AcDbEntity
  8
0
100
AcDbPolyline
 90
        3
 70
     0
 43
0.0
 10
28.62112343087536
 20
34.3129496039236
 10
27.60547791342127
 20
37.43878509259787
 10
24.946483428205
 20
39.3706576678392
  0
LWPOLYLINE
  5
57F
330
1F
100
AcDbEntity
  8
0
100
AcDbPolyline
 90
        3
 70
     0
 43
0.0
 10
23.59820189696693
 20
40.35024154000786
 10
20.93920741175063
 20
42.28211411524919
 10
17.65250947622621
 20
42.28211411524919
  0
LWPOLYLINE
  5
580
330
1F
100
AcDbEntity
  8
0
100
AcDbPolyline
 90
        3
 70
     0
 43
0.0
 10
15.98594185080853
 20
42.28211411524919
 10
12.69924391528413
 20
42.28211411524919
 10
10.04024943006777
 20
40.35024154000781
  0
LWPOLYLINE
  5
581
330
1F
100
AcDbEntity
  8
0
100
AcDbPolyline
 90
        3
 70
     0
 43
0.0
 10
8.691967898829801
 20
39.37065766783924
 10
6.032973413613504
 20
37.43878509259787
 10
5.017327896159393
 20
34.31294960392352
  0
LINE
  5
582
330
1F
100
AcDbEntity
  8
0
100
AcDbLine
 10
13.82759516451719
 20
23.56482217916493
 30
0.0
 11
13.39660333855855
 21
24.89127862657487
 31
0.0
  0
LINE
  5
583
330
1F
100
AcDbEntity
  8
0
100
AcDbLine
 10
14.34259288304631
 20
21.97982217916493
 30
0.0
 11
10.04024943006781
 21
18.85398669049058
 31
0.0
  0
LINE
  5
584
330
1F
100
AcDbEntity
  8
0
100
AcDbLine
 10
17.94757691275047
 20
22.95940605133347
 30
0.0
 11
16.8192256635174
 21
23.77920122042931
 31
0.0
  0
LINE
  5
585
330
1F
100
AcDbEntity
  8
0
100
AcDbLine
 10
19.29585844398841
 20
21.97982217916493
 30
0.0
 11
17.65250947622621
 21
16.9221141152492
 31
0.0
  0
LINE
  5
586
330
1F
100
AcDbEntity
  8
0
100
AcDbLine
 10
21.63656683502509
 20
24.89127862657483
 30
0.0
 11
20.24184798847618
 21
24.89127862657483
 31
0.0
  0
LINE
  5
587
330
1F
100
AcDbEntity
  8
0
100
AcDbLine
 10
23.30313446044277
 20
24.89127862657483
 30
0.0
 11
24.94648342820498
 21
19.83357056265917
 31
0.0
  0
LINE
  5
588
330
1F
100
AcDbEntity
  8
0
100
AcDbLine
 10
23.48549616518797
 20
28.62253024308061
 30
0.0
 11
22.357144915955
 21
27.80273507398487
 31
0.0
  0
LINE
  5
589
330
1F
100
AcDbEntity
  8
0
100
AcDbLine
 10
24.83377769642592
 20
29.6021141152492
 30
0.0
 11
29.13612114940449
 21
26.47627862657483
 31
0.0
  0
LINE
  5
58A
330
1F
100
AcDbEntity
  8
0
100
AcDbLine
 10
22.78813674191361
 20
32.72794960392356
 30
0.0
 11
22.357144915955
 21
31.40149315651353
 31
0.0
  0
LINE
  5
58B
330
1F
100
AcDbEntity
  8
0
100
AcDbLine
 10
23.30313446044283
 20
34.31294960392357
 30
0.0
 11
28.62112343087536
 21
34.3129496039236
 31
0.0
  0
LINE
  5
58C
330
1F
100
AcDbEntity
  8
0
100
AcDbLine
 10
19.8108561625176
 20
35.63940605133352
 30
0.0
 11
20.24184798847618
 21
34.31294960392353
 31
0.0
  0
LINE
  5
58D
330
1F
100
AcDbEntity
  8
0
100
AcDbLine
 10
19.29585844398846
 20
37.22440605133349
 30
0.0
 11
23.59820189696693
 21
40.35024154000781
 31
0.0
  0
LINE
  5
58E
330
1F
100
AcDbEntity
  8
0
100
AcDbLine
 10
15.69087441428427
 20
36.24482217916489
 30
0.0
 11
16.81922566351737
 21
35.42502701006909
 31
0.0
  0
LINE
  5
58F
330
1F
100
AcDbEntity
  8
0
100
AcDbLine
 10
14.34259288304635
 20
37.22440605133349
 30
0.0
 11
15.98594185080853
 21
42.28211411524919
 31
0.0
  0
LINE
  5
590
330
1F
100
AcDbEntity
  8
0
100
AcDbLine
 10
12.00188449200965
 20
34.31294960392353
 30
0.0
 11
13.39660333855855
 21
34.31294960392353
 31
0.0
  0
LINE
  5
591
330
1F
100
AcDbEntity
  8
0
100
AcDbLine
 10
10.33531686659201
 20
34.31294960392353
 30
0.0
 11
8.691967898829803
 21
39.37065766783924
 31
0.0
  0
LINE
  5
592
330
1F
100
AcDbEntity
  8
0
100
AcDbLine
 10
10.15295516184676
 20
30.58169798741776
 30
0.0
 11
11.28130641107981
 21
31.40149315651356
 31
0.0
  0
LINE
  5
593
330
1F
100
AcDbEntity
  8
0
100
AcDbLine
 10
8.804673630608785
 20
29.6021141152492
 30
0.0
 11
4.50233017763024
 21
32.72794960392351
 31
0.0
  0
LINE
  5
594
330
1F
100
AcDbEntity
  8
0
100
AcDbLine
 10
10.33531686659204
 20
24.89127862657487
 30
0.0
 11
5.017327896159399
 21
24.8912786265749
 31
0.0
  0
LINE
  5
595
330
1F
100
AcDbEntity
  8
0
100
AcDbLine
 10
10.85031458512118
 20
26.47627862657487
 30
0.0
 11
11.28130641107983
 21
27.80273507398485
 31
0.0
  0
LINE
  5
596
330
1F
100
AcDbEntity
  8
0
100
AcDbLine
 10
10.85031458512118
 20
26.47627862657487
 30
0.0
 11
7.19889324010621
 21
26.47627862657487
 31
0.0
  0
LINE
  5
597
330
1F
100
AcDbEntity
  8
0
100
AcDbLine
 10
12.5168822105388
 20
26.47627862657487
 30
0.0
 11
13.14458566084693
 21
28.40815120181622
 31
0.0
  0
LINE
  5
598
330
1F
100
AcDbEntity
  8
0
100
AcDbLine
 10
13.39660333855853
 20
24.89127862657487
 30
0.0
 11
12.00188449200968
 21
24.89127862657487
 31
0.0
  0
LINE
  5
599
330
1F
100
AcDbEntity
  8
0
100
AcDbLine
 10
13.82759516451717
 20
23.56482217916493
 30
0.0
 11
10.87353324277661
 21
21.41857056265915
 31
0.0
  0
LINE
  5
59A
330
1F
100
AcDbEntity
  8
0
100
AcDbLine
 10
15.17587669575515
 20
24.54440605133352
 30
0.0
 11
14.54817324544705
 21
26.47627862657487
 31
0.0
  0
LINE
  5
59B
330
1F
100
AcDbEntity
  8
0
100
AcDbLine
 10
16.81922566351737
 20
23.77920122042931
 30
0.0
 11
15.6908744142843
 21
22.95940605133347
 31
0.0
  0
LINE
  5
59C
330
1F
100
AcDbEntity
  8
0
100
AcDbLine
 10
17.94757691275047
 20
22.95940605133347
 30
0.0
 11
16.81922566351737
 21
19.48669798741776
 31
0.0
  0
LINE
  5
59D
330
1F
100
AcDbEntity
  8
0
100
AcDbLine
 10
18.46257463127965
 20
24.54440605133348
 30
0.0
 11
16.81922566351737
 21
25.73836896476646
 31
0.0
  0
LINE
  5
59E
330
1F
100
AcDbEntity
  8
0
100
AcDbLine
 10
20.24184798847622
 20
24.89127862657483
 30
0.0
 11
19.8108561625176
 21
23.56482217916489
 31
0.0
  0
LINE
  5
59F
330
1F
100
AcDbEntity
  8
0
100
AcDbLine
 10
21.63656683502511
 20
24.89127862657483
 30
0.0
 11
22.76491808425816
 21
21.41857056265915
 31
0.0
  0
LINE
  5
5A0
330
1F
100
AcDbEntity
  8
0
100
AcDbLine
 10
21.12156911649595
 20
26.47627862657483
 30
0.0
 11
19.09027808158775
 21
26.47627862657483
 31
0.0
  0
LINE
  5
5A1
330
1F
100
AcDbEntity
  8
0
100
AcDbLine
 10
22.35714491595493
 20
27.80273507398485
 30
0.0
 11
22.78813674191361
 21
26.47627862657483
 31
0.0
  0
LINE
  5
5A2
330
1F
100
AcDbEntity
  8
0
100
AcDbLine
 10
23.48549616518797
 20
28.62253024308061
 30
0.0
 11
26.43955808692855
 21
26.47627862657483
 31
0.0
  0
LINE
  5
5A3
330
1F
100
AcDbEntity
  8
0
100
AcDbLine
 10
22.13721463394998
 20
29.6021141152492
 30
0.0
 11
20.4938656661878
 21
28.40815120181628
 31
0.0
  0
LINE
  5
5A4
330
1F
100
AcDbEntity
  8
0
100
AcDbLine
 10
22.357144915955
 20
31.40149315651353
 30
0.0
 11
23.48549616518793
 21
30.58169798741778
 31
0.0
  0
LINE
  5
5A5
330
1F
100
AcDbEntity
  8
0
100
AcDbLine
 10
22.78813674191361
 20
32.72794960392356
 30
0.0
 11
26.43955808692854
 21
32.72794960392356
 31
0.0
  0
LINE
  5
5A6
330
1F
100
AcDbEntity
  8
0
100
AcDbLine
 10
21.12156911649597
 20
32.72794960392356
 30
0.0
 11
20.4938656661878
 21
30.79607702868211
 31
0.0
  0
LINE
  5
5A7
330
1F
100
AcDbEntity
  8
0
100
AcDbLine
 10
20.24184798847618
 20
34.31294960392357
 30
0.0
 11
21.63656683502511
 21
34.31294960392357
 31
0.0
  0
LINE
  5
5A8
330
1F
100
AcDbEntity
  8
0
100
AcDbLine
 10
19.81085616251753
 20
35.63940605133348
 30
0.0
 11
22.76491808425825
 21
37.78565766783932
 31
0.0
  0
LINE
  5
5A9
330
1F
100
AcDbEntity
  8
0
100
AcDbLine
 10
18.46257463127958
 20
34.65982217916493
 30
0.0
 11
19.09027808158772
 21
32.72794960392353
 31
0.0
  0
LINE
  5
5AA
330
1F
100
AcDbEntity
  8
0
100
AcDbLine
 10
16.81922566351737
 20
35.42502701006909
 30
0.0
 11
17.94757691275047
 21
36.24482217916493
 31
0.0
  0
LINE
  5
5AB
330
1F
100
AcDbEntity
  8
0
100
AcDbLine
 10
15.69087441428434
 20
36.24482217916487
 30
0.0
 11
16.81922566351737
 21
39.71753024308062
 31
0.0
  0
LINE
  5
5AC
330
1F
100
AcDbEntity
  8
0
100
AcDbLine
 10
11.28130641107981
 20
27.80273507398485
 30
0.0
 11
10.15295516184674
 21
28.62253024308061
 31
0.0
  0
LINE
  5
5AD
330
1F
100
AcDbEntity
  8
0
100
AcDbLine
 10
11.50123669308471
 20
29.6021141152492
 30
0.0
 11
13.14458566084693
 21
30.79607702868215
 31
0.0
  0
LINE
  5
5AE
330
1F
100
AcDbEntity
  8
0
100
AcDbLine
 10
10.15295516184674
 20
30.58169798741776
 30
0.0
 11
7.198893240106183
 21
32.72794960392351
 31
0.0
  0
LINE
  5
5AF
330
1F
100
AcDbEntity
  8
0
100
AcDbLine
 10
11.28130641107981
 20
31.40149315651356
 30
0.0
 11
10.85031458512118
 21
32.72794960392351
 31
0.0
  0
LINE
  5
5B0
330
1F
100
AcDbEntity
  8
0
100
AcDbLine
 10
12.51688221053882
 20
32.72794960392353
 30
0.0
 11
14.54817324544705
 21
32.72794960392353
 31
0.0
  0
LINE
  5
5B1
330
1F
100
AcDbEntity
  8
0
100
AcDbLine
 10
12.00188449200965
 20
34.31294960392353
 30
0.0
 11
10.87353324277661
 21
37.78565766783925
 31
0.0
  0
LINE
  5
5B2
330
1F
100
AcDbEntity
  8
0
100
AcDbLine
 10
15.17587669575519
 20
34.65982217916493
 30
0.0
 11
16.81922566351737
 21
33.46585926573195
 31
0.0
  0
LINE
  5
5B3
330
1F
100
AcDbEntity
  8
0
100
AcDbLine
 10
13.39660333855855
 20
34.31294960392353
 30
0.0
 11
13.82759516451714
 21
35.63940605133348
 31
0.0
  0
LINE
  5
5B4
330
1F
100
AcDbEntity
  8
0
100
AcDbLine
 10
20.4938656661878
 20
28.40815120181628
 30
0.0
 11
21.12156911649595
 21
26.47627862657483
 31
0.0
  0
LINE
  5
5B5
330
1F
100
AcDbEntity
  8
0
100
AcDbLine
 10
19.09027808158775
 20
26.47627862657487
 30
0.0
 11
18.46257463127961
 21
24.54440605133345
 31
0.0
  0
LINE
  5
5B6
330
1F
100
AcDbEntity
  8
0
100
AcDbLine
 10
16.81922566351737
 20
25.73836896476646
 30
0.0
 11
15.17587669575519
 21
24.54440605133348
 31
0.0
  0
LINE
  5
5B7
330
1F
100
AcDbEntity
  8
0
100
AcDbLine
 10
14.54817324544705
 20
26.47627862657487
 30
0.0
 11
12.51688221053886
 21
26.47627862657487
 31
0.0
  0
LINE
  5
5B8
330
1F
100
AcDbEntity
  8
0
100
AcDbLine
 10
13.14458566084693
 20
28.40815120181622
 30
0.0
 11
11.50123669308469
 21
29.6021141152492
 31
0.0
  0
LINE
  5
5B9
330
1F
100
AcDbEntity
  8
0
100
AcDbLine
 10
13.14458566084693
 20
30.79607702868215
 30
0.0
 11
12.5168822105388
 21
32.72794960392353
 31
0.0
  0
LINE
  5
5BA
330
1F
100
AcDbEntity
  8
0
100
AcDbLine
 10
14.54817324544705
 20
32.72794960392353
 30
0.0
 11
15.17587669575515
 21
34.65982217916489
 31
0.0
  0
LINE
  5
5BB
330
1F
100
AcDbEntity
  8
0
100
AcDbLine
 10
19.09027808158769
 20
32.72794960392353
 30
0.0
 11
21.12156911649597
 21
32.72794960392356
 31
0.0
  0
LINE
  5
5BC
330
1F
100
AcDbEntity
  8
0
100
AcDbLine
 10
20.49386566618784
 20
30.79607702868209
 30
0.0
 11
22.13721463394996
 21
29.6021141152492
 31
0.0
  0
LINE
  5
5BD
330
1F
100
AcDbEntity
  8
0
100
AcDbLine
 10
16.81922566351737
 20
33.46585926573195
 30
0.0
 11
18.46257463127958
 21
34.65982217916493
 31
0.0
  0
LINE
  5
5BE
330
1F
100
AcDbEntity
  8
0
100
AcDbLine
 10
23.598201896967
 20
18.85398669049058
 30
0.0
 11
19.29585844398846
 21
21.97982217916496
 31
0.0
  0
LINE
  5
5BF
330
1F
100
AcDbEntity
  8
0
100
AcDbLine
 10
22.76491808425816
 20
21.41857056265915
 30
0.0
 11
19.8108561625176
 21
23.56482217916493
 31
0.0
  0
LINE
  5
5C0
330
1F
100
AcDbEntity
  8
0
100
AcDbLine
 10
28.62112343087536
 20
24.89127862657483
 30
0.0
 11
23.30313446044277
 21
24.89127862657483
 31
0.0
  0
LINE
  5
5C1
330
1F
100
AcDbEntity
  8
0
100
AcDbLine
 10
26.43955808692855
 20
26.47627862657483
 30
0.0
 11
22.78813674191361
 21
26.47627862657483
 31
0.0
  0
LINE
  5
5C2
330
1F
100
AcDbEntity
  8
0
100
AcDbLine
 10
15.98594185080853
 20
16.9221141152492
 30
0.0
 11
14.34259288304635
 21
21.97982217916493
 31
0.0
  0
LINE
  5
5C3
330
1F
100
AcDbEntity
  8
0
100
AcDbLine
 10
16.81922566351737
 20
19.48669798741776
 30
0.0
 11
15.69087441428434
 21
22.95940605133352
 31
0.0
  0
LINE
  5
5C4
330
1F
100
AcDbEntity
  8
0
100
AcDbLine
 10
8.691967898829837
 20
19.83357056265915
 30
0.0
 11
10.33531686659204
 21
24.89127862657487
 31
0.0
  0
LINE
  5
5C5
330
1F
100
AcDbEntity
  8
0
100
AcDbLine
 10
10.87353324277661
 20
21.41857056265915
 30
0.0
 11
12.00188449200965
 21
24.89127862657487
 31
0.0
  0
LINE
  5
5C6
330
1F
100
AcDbEntity
  8
0
100
AcDbLine
 10
4.50233017763024
 20
26.47627862657487
 30
0.0
 11
8.804673630608785
 21
29.6021141152492
 31
0.0
  0
LINE
  5
5C7
330
1F
100
AcDbEntity
  8
0
100
AcDbLine
 10
7.19889324010621
 20
26.47627862657487
 30
0.0
 11
10.15295516184676
 21
28.62253024308061
 31
0.0
  0
LINE
  5
5C8
330
1F
100
AcDbEntity
  8
0
100
AcDbLine
 10
16.81922566351737
 20
39.71753024308062
 30
0.0
 11
17.9475769127504
 21
36.24482217916489
 31
0.0
  0
LINE
  5
5C9
330
1F
100
AcDbEntity
  8
0
100
AcDbLine
 10
17.65250947622621
 20
42.28211411524919
 30
0.0
 11
19.29585844398841
 21
37.22440605133349
 31
0.0
  0
LINE
  5
5CA
330
1F
100
AcDbEntity
  8
0
100
AcDbLine
 10
5.017327896159399
 20
34.31294960392352
 30
0.0
 11
10.33531686659197
 21
34.31294960392353
 31
0.0
  0
LINE
  5
5CB
330
1F
100
AcDbEntity
  8
0
100
AcDbLine
 10
7.198893240106183
 20
32.72794960392351
 30
0.0
 11
10.85031458512118
 21
32.72794960392351
 31
0.0
  0
LINE
  5
5CC
330
1F
100
AcDbEntity
  8
0
100
AcDbLine
 10
24.94648342820501
 20
39.37065766783919
 30
0.0
 11
23.30313446044283
 21
34.31294960392357
 31
0.0
  0
LINE
  5
5CD
330
1F
100
AcDbEntity
  8
0
100
AcDbLine
 10
22.76491808425825
 20
37.78565766783932
 30
0.0
 11
21.63656683502511
 21
34.31294960392357
 31
0.0
  0
LINE
  5
5CE
330
1F
100
AcDbEntity
  8
0
100
AcDbLine
 10
10.04024943006778
 20
40.35024154000781
 30
0.0
 11
14.34259288304635
 21
37.22440605133349
 31
0.0
  0
LINE
  5
5CF
330
1F
100
AcDbEntity
  8
0
100
AcDbLine
 10
10.87353324277661
 20
37.78565766783925
 30
0.0
 11
13.82759516451719
 21
35.63940605133348
 31
0.0
  0
LINE
  5
5D0
330
1F
100
AcDbEntity
  8
0
100
AcDbLine
 10
29.13612114940449
 20
32.7279496039236
 30
0.0
 11
24.83377769642596
 21
29.6021141152492
 31
0.0
  0
LINE
  5
5D1
330
1F
100
AcDbEntity
  8
0
100
AcDbLine
 10
26.43955808692854
 20
32.72794960392356
 30
0.0
 11
23.48549616518793
 21
30.58169798741778
 31
0.0
  0
LINE
  5
5D2
330
1F
100
AcDbEntity
  8
0
100
AcDbLine
 10
-18.01661968983269
 20
13.7521141152492
 30
0.0
 11
-21.18661968983269
 21
13.7521141152492
 31
0.0
  0
LINE
  5
5D3
330
1F
100
AcDbEntity
  8
0
100
AcDbLine
 10
-37.03661968983269
 20
10.5821141152492
 30
0.0
 11
-37.03661968983269
 21
13.7521141152492
 31
0.0
  0
LINE
  5
5D4
330
1F
100
AcDbEntity
  8
0
100
AcDbLine
 10
-33.86661968983269
 20
13.7521141152492
 30
0.0
 11
-37.03661968983269
 21
13.7521141152492
 31
0.0
  0
LINE
  5
5D5
330
1F
100
AcDbEntity
  8
0
100
AcDbLine
 10
-11.67661968983269
 20
45.4521141152492
 30
0.0
 11
-11.67661968983269
 21
48.6221141152492
 31
0.0
  0
LINE
  5
5D6
330
1F
100
AcDbEntity
  8
0
100
AcDbLine
 10
-8.506619689832692
 20
45.4521141152492
 30
0.0
 11
-8.506619689832692
 21
48.6221141152492
 31
0.0
  0
LINE
  5
5D7
330
1F
100
AcDbEntity
  8
0
100
AcDbLine
 10
-40.20661968983269
 20
10.5821141152492
 30
0.0
 11
-40.20661968983269
 21
13.7521141152492
 31
0.0
  0
LINE
  5
5D8
330
1F
100
AcDbEntity
  8
0
100
AcDbLine
 10
-37.03661968983269
 20
10.5821141152492
 30
0.0
 11
-40.20661968983269
 21
10.5821141152492
 31
0.0
  0
LINE
  5
5D9
330
1F
100
AcDbEntity
  8
0
100
AcDbLine
 10
32.6692256635174
 20
26.4321141152492
 30
0.0
 11
35.83922566351737
 21
26.4321141152492
 31
0.0
  0
LINE
  5
5DA
330
1F
100
AcDbEntity
  8
0
100
AcDbLine
 10
0.9692256635173706
 20
32.7721141152492
 30
0.0
 11
-2.200774336482627
 21
32.7721141152492
 31
0.0
  0
LINE
  5
5DB
330
1F
100
AcDbEntity
  8
0
100
AcDbLine
 10
29.49922566351737
 20
10.5821141152492
 30
0.0
 11
26.32922566351737
 21
10.5821141152492
 31
0.0
  0
LINE
  5
5DC
330
1F
100
AcDbEntity
  8
0
100
AcDbLine
 10
7.30922566351737
 20
48.6221141152492
 30
0.0
 11
4.13922566351737
 21
48.6221141152492
 31
0.0
  0
LINE
  5
5DD
330
1F
100
AcDbEntity
  8
0
100
AcDbLine
 10
32.6692256635174
 20
13.7521141152492
 30
0.0
 11
32.6692256635174
 21
16.9221141152492
 31
0.0
  0
LINE
  5
5DE
330
1F
100
AcDbEntity
  8
0
100
AcDbLine
 10
32.6692256635174
 20
13.7521141152492
 30
0.0
 11
29.49922566351737
 21
13.7521141152492
 31
0.0
  0
LINE
  5
5DF
330
1F
100
AcDbEntity
  8
0
100
AcDbLine
 10
-2.200774336482627
 20
39.1121141152492
 30
0.0
 11
-2.200774336482627
 21
42.28211411524919
 31
0.0
  0
LINE
  5
5E0
330
1F
100
AcDbEntity
  8
0
100
AcDbLine
 10
-2.200774336482627
 20
35.9421141152492
 30
0.0
 11
-2.200774336482627
 21
39.1121141152492
 31
0.0
  0
LINE
  5
5E1
330
1F
100
AcDbEntity
  8
0
100
AcDbLine
 10
4.13922566351737
 20
45.4521141152492
 30
0.0
 11
0.9692256635173706
 21
45.4521141152492
 31
0.0
  0
LINE
  5
5E2
330
1F
100
AcDbEntity
  8
0
100
AcDbLine
 10
0.9692256635173706
 20
42.28211411524919
 30
0.0
 11
0.9692256635173706
 21
45.4521141152492
 31
0.0
  0
LINE
  5
5E3
330
1F
100
AcDbEntity
  8
0
100
AcDbLine
 10
0.9692256635173706
 20
26.4321141152492
 30
0.0
 11
-2.200774336482627
 21
26.4321141152492
 31
0.0
  0
LINE
  5
5E4
330
1F
100
AcDbEntity
  8
0
100
AcDbLine
 10
-2.200774336482627
 20
23.2621141152492
 30
0.0
 11
-2.200774336482627
 21
26.4321141152492
 31
0.0
  0
LINE
  5
5E5
330
1F
100
AcDbEntity
  8
0
100
AcDbLine
 10
35.83922566351737
 20
32.7721141152492
 30
0.0
 11
32.6692256635174
 21
32.7721141152492
 31
0.0
  0
LINE
  5
5E6
330
1F
100
AcDbEntity
  8
0
100
AcDbLine
 10
35.83922566351737
 20
32.7721141152492
 30
0.0
 11
35.83922566351737
 21
35.9421141152492
 31
0.0
  0
LINE
  5
5E7
330
1F
100
AcDbEntity
  8
0
100
AcDbLine
 10
35.83922566351737
 20
16.9221141152492
 30
0.0
 11
35.83922566351737
 21
20.0921141152492
 31
0.0
  0
LINE
  5
5E8
330
1F
100
AcDbEntity
  8
0
100
AcDbLine
 10
35.83922566351737
 20
20.0921141152492
 30
0.0
 11
35.83922566351737
 21
23.2621141152492
 31
0.0
  0
LINE
  5
5E9
330
1F
100
AcDbEntity
  8
0
100
AcDbLine
 10
-14.84661968983269
 20
45.4521141152492
 30
0.0
 11
-11.67661968983269
 21
45.4521141152492
 31
0.0
  0
LINE
  5
5EA
330
1F
100
AcDbEntity
  8
0
100
AcDbLine
 10
0.9692256635173706
 20
16.9221141152492
 30
0.0
 11
-2.200774336482627
 21
16.9221141152492
 31
0.0
  0
LINE
  5
5EB
330
1F
100
AcDbEntity
  8
0
100
AcDbLine
 10
0.9692256635173706
 20
13.7521141152492
 30
0.0
 11
0.9692256635173706
 21
16.9221141152492
 31
0.0
  0
LINE
  5
5EC
330
1F
100
AcDbEntity
  8
0
100
AcDbLine
 10
0.9692256635173706
 20
26.4321141152492
 30
0.0
 11
0.9692256635173706
 21
29.6021141152492
 31
0.0
  0
LINE
  5
5ED
330
1F
100
AcDbEntity
  8
0
100
AcDbLine
 10
0.9692256635173706
 20
29.6021141152492
 30
0.0
 11
0.9692256635173706
 21
32.7721141152492
 31
0.0
  0
LINE
  5
5EE
330
1F
100
AcDbEntity
  8
0
100
AcDbLine
 10
4.13922566351737
 20
13.7521141152492
 30
0.0
 11
0.9692256635173706
 21
13.7521141152492
 31
0.0
  0
LINE
  5
5EF
330
1F
100
AcDbEntity
  8
0
100
AcDbLine
 10
4.13922566351737
 20
10.5821141152492
 30
0.0
 11
4.13922566351737
 21
13.7521141152492
 31
0.0
  0
LINE
  5
5F0
330
1F
100
AcDbEntity
  8
0
100
AcDbLine
 10
13.64922566351737
 20
10.5821141152492
 30
0.0
 11
13.64922566351737
 21
13.7521141152492
 31
0.0
  0
LINE
  5
5F1
330
1F
100
AcDbEntity
  8
0
100
AcDbLine
 10
16.81922566351737
 20
13.7521141152492
 30
0.0
 11
13.64922566351737
 21
13.7521141152492
 31
0.0
  0
LINE
  5
5F2
330
1F
100
AcDbEntity
  8
0
100
AcDbLine
 10
19.98922566351737
 20
13.7521141152492
 30
0.0
 11
16.81922566351737
 21
13.7521141152492
 31
0.0
  0
LINE
  5
5F3
330
1F
100
AcDbEntity
  8
0
100
AcDbLine
 10
19.98922566351737
 20
10.5821141152492
 30
0.0
 11
19.98922566351737
 21
13.7521141152492
 31
0.0
  0
LINE
  5
5F4
330
1F
100
AcDbEntity
  8
0
100
AcDbLine
 10
29.49922566351737
 20
10.5821141152492
 30
0.0
 11
29.49922566351737
 21
13.7521141152492
 31
0.0
  0
LINE
  5
5F5
330
1F
100
AcDbEntity
  8
0
100
AcDbLine
 10
-2.200774336482627
 20
32.7721141152492
 30
0.0
 11
-2.200774336482627
 21
35.9421141152492
 31
0.0
  0
LINE
  5
5F6
330
1F
100
AcDbEntity
  8
0
100
AcDbLine
 10
-2.200774336482627
 20
20.0921141152492
 30
0.0
 11
-2.200774336482627
 21
23.2621141152492
 31
0.0
  0
LINE
  5
5F7
330
1F
100
AcDbEntity
  8
0
100
AcDbLine
 10
-2.200774336482627
 20
16.9221141152492
 30
0.0
 11
-2.200774336482627
 21
20.0921141152492
 31
0.0
  0
LINE
  5
5F8
330
1F
100
AcDbEntity
  8
0
100
AcDbLine
 10
26.32922566351737
 20
10.5821141152492
 30
0.0
 11
23.15922566351737
 21
10.5821141152492
 31
0.0
  0
LINE
  5
5F9
330
1F
100
AcDbEntity
  8
0
100
AcDbLine
 10
23.15922566351737
 20
10.5821141152492
 30
0.0
 11
19.98922566351737
 21
10.5821141152492
 31
0.0
  0
LINE
  5
5FA
330
1F
100
AcDbEntity
  8
0
100
AcDbLine
 10
13.64922566351737
 20
10.5821141152492
 30
0.0
 11
10.47922566351737
 21
10.5821141152492
 31
0.0
  0
LINE
  5
5FB
330
1F
100
AcDbEntity
  8
0
100
AcDbLine
 10
10.47922566351737
 20
10.5821141152492
 30
0.0
 11
7.30922566351737
 21
10.5821141152492
 31
0.0
  0
LINE
  5
5FC
330
1F
100
AcDbEntity
  8
0
100
AcDbLine
 10
7.30922566351737
 20
10.5821141152492
 30
0.0
 11
4.13922566351737
 21
10.5821141152492
 31
0.0
  0
LINE
  5
5FD
330
1F
100
AcDbEntity
  8
0
100
AcDbLine
 10
35.83922566351737
 20
39.1121141152492
 30
0.0
 11
35.83922566351737
 21
42.28211411524919
 31
0.0
  0
LINE
  5
5FE
330
1F
100
AcDbEntity
  8
0
100
AcDbLine
 10
35.83922566351737
 20
42.28211411524919
 30
0.0
 11
32.6692256635174
 21
42.28211411524919
 31
0.0
  0
LINE
  5
5FF
330
1F
100
AcDbEntity
  8
0
100
AcDbLine
 10
35.83922566351737
 20
35.9421141152492
 30
0.0
 11
35.83922566351737
 21
39.1121141152492
 31
0.0
  0
LINE
  5
600
330
1F
100
AcDbEntity
  8
0
100
AcDbLine
 10
35.83922566351737
 20
23.2621141152492
 30
0.0
 11
35.83922566351737
 21
26.4321141152492
 31
0.0
  0
LINE
  5
601
330
1F
100
AcDbEntity
  8
0
100
AcDbLine
 10
35.83922566351737
 20
16.9221141152492
 30
0.0
 11
32.6692256635174
 21
16.9221141152492
 31
0.0
  0
LINE
  5
602
330
1F
100
AcDbEntity
  8
0
100
AcDbLine
 10
32.6692256635174
 20
29.6021141152492
 30
0.0
 11
32.6692256635174
 21
32.7721141152492
 31
0.0
  0
LINE
  5
603
330
1F
100
AcDbEntity
  8
0
100
AcDbLine
 10
32.6692256635174
 20
26.4321141152492
 30
0.0
 11
32.6692256635174
 21
29.6021141152492
 31
0.0
  0
LINE
  5
604
330
1F
100
AcDbEntity
  8
0
100
AcDbLine
 10
10.47922566351737
 20
48.6221141152492
 30
0.0
 11
7.30922566351737
 21
48.6221141152492
 31
0.0
  0
LINE
  5
605
330
1F
100
AcDbEntity
  8
0
100
AcDbLine
 10
13.64922566351737
 20
48.6221141152492
 30
0.0
 11
10.47922566351737
 21
48.6221141152492
 31
0.0
  0
LINE
  5
606
330
1F
100
AcDbEntity
  8
0
100
AcDbLine
 10
13.64922566351737
 20
45.4521141152492
 30
0.0
 11
13.64922566351737
 21
48.6221141152492
 31
0.0
  0
LINE
  5
607
330
1F
100
AcDbEntity
  8
0
100
AcDbLine
 10
16.81922566351737
 20
45.4521141152492
 30
0.0
 11
13.64922566351737
 21
45.4521141152492
 31
0.0
  0
LINE
  5
608
330
1F
100
AcDbEntity
  8
0
100
AcDbLine
 10
19.98922566351737
 20
45.4521141152492
 30
0.0
 11
16.81922566351737
 21
45.4521141152492
 31
0.0
  0
LINE
  5
609
330
1F
100
AcDbEntity
  8
0
100
AcDbLine
 10
19.98922566351737
 20
45.4521141152492
 30
0.0
 11
19.98922566351737
 21
48.6221141152492
 31
0.0
  0
LINE
  5
60A
330
1F
100
AcDbEntity
  8
0
100
AcDbLine
 10
23.15922566351737
 20
48.6221141152492
 30
0.0
 11
19.98922566351737
 21
48.6221141152492
 31
0.0
  0
LINE
  5
60B
330
1F
100
AcDbEntity
  8
0
100
AcDbLine
 10
26.32922566351737
 20
48.6221141152492
 30
0.0
 11
23.15922566351737
 21
48.6221141152492
 31
0.0
  0
LINE
  5
60C
330
1F
100
AcDbEntity
  8
0
100
AcDbLine
 10
29.49922566351737
 20
48.6221141152492
 30
0.0
 11
26.32922566351737
 21
48.6221141152492
 31
0.0
  0
LINE
  5
60D
330
1F
100
AcDbEntity
  8
0
100
AcDbLine
 10
29.49922566351737
 20
45.4521141152492
 30
0.0
 11
29.49922566351737
 21
48.6221141152492
 31
0.0
  0
LINE
  5
60E
330
1F
100
AcDbEntity
  8
0
100
AcDbLine
 10
32.6692256635174
 20
45.4521141152492
 30
0.0
 11
29.49922566351737
 21
45.4521141152492
 31
0.0
  0
LINE
  5
60F
330
1F
100
AcDbEntity
  8
0
100
AcDbLine
 10
32.6692256635174
 20
42.28211411524919
 30
0.0
 11
32.6692256635174
 21
45.4521141152492
 31
0.0
  0
LINE
  5
610
330
1F
100
AcDbEntity
  8
0
100
AcDbLine
 10
4.13922566351737
 20
45.4521141152492
 30
0.0
 11
4.13922566351737
 21
48.6221141152492
 31
0.0
  0
LINE
  5
611
330
1F
100
AcDbEntity
  8
0
100
AcDbLine
 10
-2.200774336482627
 20
42.28211411524919
 30
0.0
 11
0.9692256635173706
 21
42.28211411524919
 31
0.0
  0
LINE
  5
612
330
1F
100
AcDbEntity
  8
0
100
AcDbLine
 10
-37.03661968983269
 20
48.6221141152492
 30
0.0
 11
-40.20661968983269
 21
48.6221141152492
 31
0.0
  0
LINE
  5
613
330
1F
100
AcDbEntity
  8
0
100
AcDbLine
 10
-11.67661968983269
 20
13.7521141152492
 30
0.0
 11
-14.84661968983269
 21
13.7521141152492
 31
0.0
  0
LINE
  5
614
330
1F
100
AcDbEntity
  8
0
100
AcDbLine
 10
-43.37661968983269
 20
42.28211411524919
 30
0.0
 11
-40.20661968983269
 21
42.28211411524919
 31
0.0
  0
LINE
  5
615
330
1F
100
AcDbEntity
  8
0
100
AcDbLine
 10
-43.37661968983269
 20
42.28211411524919
 30
0.0
 11
-43.37661968983269
 21
45.4521141152492
 31
0.0
  0
LINE
  5
616
330
1F
100
AcDbEntity
  8
0
100
AcDbLine
 10
-43.37661968983269
 20
45.4521141152492
 30
0.0
 11
-43.37661968983269
 21
48.6221141152492
 31
0.0
  0
LINE
  5
617
330
1F
100
AcDbEntity
  8
0
100
AcDbLine
 10
-40.20661968983269
 20
48.6221141152492
 30
0.0
 11
-43.37661968983269
 21
48.6221141152492
 31
0.0
  0
LINE
  5
618
330
1F
100
AcDbEntity
  8
0
100
AcDbLine
 10
-37.03661968983269
 20
45.4521141152492
 30
0.0
 11
-37.03661968983269
 21
48.6221141152492
 31
0.0
  0
LINE
  5
619
330
1F
100
AcDbEntity
  8
0
100
AcDbLine
 10
-8.506619689832692
 20
42.28211411524919
 30
0.0
 11
-8.506619689832692
 21
45.4521141152492
 31
0.0
  0
LINE
  5
61A
330
1F
100
AcDbEntity
  8
0
100
AcDbLine
 10
-8.506619689832692
 20
48.6221141152492
 30
0.0
 11
-11.67661968983269
 21
48.6221141152492
 31
0.0
  0
LINE
  5
61B
330
1F
100
AcDbEntity
  8
0
100
AcDbLine
 10
-14.84661968983269
 20
45.4521141152492
 30
0.0
 11
-21.18661968983269
 21
45.4521141152492
 31
0.0
  0
LINE
  5
61C
330
1F
100
AcDbEntity
  8
0
100
AcDbLine
 10
-21.18661968983269
 20
45.4521141152492
 30
0.0
 11
-21.18661968983269
 21
48.6221141152492
 31
0.0
  0
LINE
  5
61D
330
1F
100
AcDbEntity
  8
0
100
AcDbLine
 10
-21.18661968983269
 20
48.6221141152492
 30
0.0
 11
-24.3566196898327
 21
48.6221141152492
 31
0.0
  0
LINE
  5
61E
330
1F
100
AcDbEntity
  8
0
100
AcDbLine
 10
-24.3566196898327
 20
48.6221141152492
 30
0.0
 11
-27.52661968983269
 21
48.6221141152492
 31
0.0
  0
LINE
  5
61F
330
1F
100
AcDbEntity
  8
0
100
AcDbLine
 10
-27.52661968983269
 20
45.4521141152492
 30
0.0
 11
-27.52661968983269
 21
48.6221141152492
 31
0.0
  0
LINE
  5
620
330
1F
100
AcDbEntity
  8
0
100
AcDbLine
 10
-27.52661968983269
 20
45.4521141152492
 30
0.0
 11
-33.86661968983269
 21
45.4521141152492
 31
0.0
  0
LINE
  5
621
330
1F
100
AcDbEntity
  8
0
100
AcDbLine
 10
-33.86661968983269
 20
45.4521141152492
 30
0.0
 11
-37.03661968983269
 21
45.4521141152492
 31
0.0
  0
LINE
  5
622
330
1F
100
AcDbEntity
  8
0
100
AcDbLine
 10
-8.506619689832692
 20
16.9221141152492
 30
0.0
 11
-8.506619689832692
 21
20.0921141152492
 31
0.0
  0
LINE
  5
623
330
1F
100
AcDbEntity
  8
0
100
AcDbLine
 10
-8.506619689832692
 20
20.0921141152492
 30
0.0
 11
-8.506619689832692
 21
23.2621141152492
 31
0.0
  0
LINE
  5
624
330
1F
100
AcDbEntity
  8
0
100
AcDbLine
 10
-8.506619689832692
 20
29.6021141152492
 30
0.0
 11
-8.506619689832692
 21
32.7721141152492
 31
0.0
  0
LINE
  5
625
330
1F
100
AcDbEntity
  8
0
100
AcDbLine
 10
-8.506619689832692
 20
32.7721141152492
 30
0.0
 11
-8.506619689832692
 21
35.9421141152492
 31
0.0
  0
LINE
  5
626
330
1F
100
AcDbEntity
  8
0
100
AcDbLine
 10
-5.336619689832691
 20
10.5821141152492
 30
0.0
 11
-5.336619689832691
 21
13.7521141152492
 31
0.0
  0
LINE
  5
627
330
1F
100
AcDbEntity
  8
0
100
AcDbLine
 10
-5.336619689832691
 20
16.9221141152492
 30
0.0
 11
-8.506619689832692
 21
16.9221141152492
 31
0.0
  0
LINE
  5
628
330
1F
100
AcDbEntity
  8
0
100
AcDbLine
 10
-5.336619689832691
 20
13.7521141152492
 30
0.0
 11
-5.336619689832691
 21
16.9221141152492
 31
0.0
  0
LINE
  5
629
330
1F
100
AcDbEntity
  8
0
100
AcDbLine
 10
-5.336619689832691
 20
23.2621141152492
 30
0.0
 11
-8.506619689832692
 21
23.2621141152492
 31
0.0
  0
LINE
  5
62A
330
1F
100
AcDbEntity
  8
0
100
AcDbLine
 10
-5.336619689832691
 20
23.2621141152492
 30
0.0
 11
-5.336619689832691
 21
26.4321141152492
 31
0.0
  0
LINE
  5
62B
330
1F
100
AcDbEntity
  8
0
100
AcDbLine
 10
-5.336619689832691
 20
29.6021141152492
 30
0.0
 11
-8.506619689832692
 21
29.6021141152492
 31
0.0
  0
LINE
  5
62C
330
1F
100
AcDbEntity
  8
0
100
AcDbLine
 10
-5.336619689832691
 20
26.4321141152492
 30
0.0
 11
-5.336619689832691
 21
29.6021141152492
 31
0.0
  0
LINE
  5
62D
330
1F
100
AcDbEntity
  8
0
100
AcDbLine
 10
-5.336619689832691
 20
35.9421141152492
 30
0.0
 11
-8.506619689832692
 21
35.9421141152492
 31
0.0
  0
LINE
  5
62E
330
1F
100
AcDbEntity
  8
0
100
AcDbLine
 10
-5.336619689832691
 20
35.9421141152492
 30
0.0
 11
-5.336619689832691
 21
39.1121141152492
 31
0.0
  0
LINE
  5
62F
330
1F
100
AcDbEntity
  8
0
100
AcDbLine
 10
-5.336619689832691
 20
42.28211411524919
 30
0.0
 11
-8.506619689832692
 21
42.28211411524919
 31
0.0
  0
LINE
  5
630
330
1F
100
AcDbEntity
  8
0
100
AcDbLine
 10
-5.336619689832691
 20
39.1121141152492
 30
0.0
 11
-5.336619689832691
 21
42.28211411524919
 31
0.0
  0
LINE
  5
631
330
1F
100
AcDbEntity
  8
0
100
AcDbLine
 10
-5.336619689832691
 20
10.5821141152492
 30
0.0
 11
-8.506619689832692
 21
10.5821141152492
 31
0.0
  0
LINE
  5
632
330
1F
100
AcDbEntity
  8
0
100
AcDbLine
 10
-8.506619689832692
 20
10.5821141152492
 30
0.0
 11
-11.67661968983269
 21
10.5821141152492
 31
0.0
  0
LINE
  5
633
330
1F
100
AcDbEntity
  8
0
100
AcDbLine
 10
-24.3566196898327
 20
10.5821141152492
 30
0.0
 11
-27.52661968983269
 21
10.5821141152492
 31
0.0
  0
LINE
  5
634
330
1F
100
AcDbEntity
  8
0
100
AcDbLine
 10
-21.18661968983269
 20
10.5821141152492
 30
0.0
 11
-24.3566196898327
 21
10.5821141152492
 31
0.0
  0
LINE
  5
635
330
1F
100
AcDbEntity
  8
0
100
AcDbLine
 10
-43.37661968983269
 20
16.9221141152492
 30
0.0
 11
-43.37661968983269
 21
20.0921141152492
 31
0.0
  0
LINE
  5
636
330
1F
100
AcDbEntity
  8
0
100
AcDbLine
 10
-43.37661968983269
 20
20.0921141152492
 30
0.0
 11
-43.37661968983269
 21
23.2621141152492
 31
0.0
  0
LINE
  5
637
330
1F
100
AcDbEntity
  8
0
100
AcDbLine
 10
-43.37661968983269
 20
29.6021141152492
 30
0.0
 11
-43.37661968983269
 21
32.7721141152492
 31
0.0
  0
LINE
  5
638
330
1F
100
AcDbEntity
  8
0
100
AcDbLine
 10
-43.37661968983269
 20
32.7721141152492
 30
0.0
 11
-43.37661968983269
 21
35.9421141152492
 31
0.0
  0
LINE
  5
639
330
1F
100
AcDbEntity
  8
0
100
AcDbLine
 10
-11.67661968983269
 20
10.5821141152492
 30
0.0
 11
-11.67661968983269
 21
13.7521141152492
 31
0.0
  0
LINE
  5
63A
330
1F
100
AcDbEntity
  8
0
100
AcDbLine
 10
-14.84661968983269
 20
13.7521141152492
 30
0.0
 11
-18.01661968983269
 21
13.7521141152492
 31
0.0
  0
LINE
  5
63B
330
1F
100
AcDbEntity
  8
0
100
AcDbLine
 10
-21.18661968983269
 20
10.5821141152492
 30
0.0
 11
-21.18661968983269
 21
13.7521141152492
 31
0.0
  0
LINE
  5
63C
330
1F
100
AcDbEntity
  8
0
100
AcDbLine
 10
-27.52661968983269
 20
10.5821141152492
 30
0.0
 11
-27.52661968983269
 21
13.7521141152492
 31
0.0
  0
LINE
  5
63D
330
1F
100
AcDbEntity
  8
0
100
AcDbLine
 10
-27.52661968983269
 20
13.7521141152492
 30
0.0
 11
-30.69661968983269
 21
13.7521141152492
 31
0.0
  0
LINE
  5
63E
330
1F
100
AcDbEntity
  8
0
100
AcDbLine
 10
-30.69661968983269
 20
13.7521141152492
 30
0.0
 11
-33.86661968983269
 21
13.7521141152492
 31
0.0
  0
LINE
  5
63F
330
1F
100
AcDbEntity
  8
0
100
AcDbLine
 10
-40.20661968983269
 20
39.1121141152492
 30
0.0
 11
-40.20661968983269
 21
42.28211411524919
 31
0.0
  0
LINE
  5
640
330
1F
100
AcDbEntity
  8
0
100
AcDbLine
 10
-40.20661968983269
 20
35.9421141152492
 30
0.0
 11
-40.20661968983269
 21
39.1121141152492
 31
0.0
  0
LINE
  5
641
330
1F
100
AcDbEntity
  8
0
100
AcDbLine
 10
-40.20661968983269
 20
35.9421141152492
 30
0.0
 11
-43.37661968983269
 21
35.9421141152492
 31
0.0
  0
LINE
  5
642
330
1F
100
AcDbEntity
  8
0
100
AcDbLine
 10
-40.20661968983269
 20
26.4321141152492
 30
0.0
 11
-40.20661968983269
 21
29.6021141152492
 31
0.0
  0
LINE
  5
643
330
1F
100
AcDbEntity
  8
0
100
AcDbLine
 10
-40.20661968983269
 20
29.6021141152492
 30
0.0
 11
-43.37661968983269
 21
29.6021141152492
 31
0.0
  0
LINE
  5
644
330
1F
100
AcDbEntity
  8
0
100
AcDbLine
 10
-40.20661968983269
 20
23.2621141152492
 30
0.0
 11
-40.20661968983269
 21
26.4321141152492
 31
0.0
  0
LINE
  5
645
330
1F
100
AcDbEntity
  8
0
100
AcDbLine
 10
-40.20661968983269
 20
23.2621141152492
 30
0.0
 11
-43.37661968983269
 21
23.2621141152492
 31
0.0
  0
LINE
  5
646
330
1F
100
AcDbEntity
  8
0
100
AcDbLine
 10
-40.20661968983269
 20
13.7521141152492
 30
0.0
 11
-40.20661968983269
 21
16.9221141152492
 31
0.0
  0
LINE
  5
647
330
1F
100
AcDbEntity
  8
0
100
AcDbLine
 10
-40.20661968983269
 20
16.9221141152492
 30
0.0
 11
-43.37661968983269
 21
16.9221141152492
 31
0.0
  0
LINE
  5
648
330
1F
100
AcDbEntity
  8
0
100
AcDbLine
 10
-40.20661968983269
 20
57.34631586058916
 30
0.0
 11
-43.37661968983269
 21
57.34631586058916
 31
0.0
  0
LINE
  5
649
330
1F
100
AcDbEntity
  8
0
100
AcDbLine
 10
-40.20661968983269
 20
54.17631586058917
 30
0.0
 11
-40.20661968983269
 21
57.34631586058916
 31
0.0
  0
LINE
  5
64A
330
1F
100
AcDbEntity
  8
0
100
AcDbLine
 10
-40.20661968983269
 20
63.68631586058916
 30
0.0
 11
-43.37661968983269
 21
63.68631586058916
 31
0.0
  0
LINE
  5
64B
330
1F
100
AcDbEntity
  8
0
100
AcDbLine
 10
-40.20661968983269
 20
63.68631586058916
 30
0.0
 11
-40.20661968983269
 21
66.85631586058916
 31
0.0
  0
LINE
  5
64C
330
1F
100
AcDbEntity
  8
0
100
AcDbLine
 10
-40.20661968983269
 20
70.02631586058917
 30
0.0
 11
-43.37661968983269
 21
70.02631586058917
 31
0.0
  0
LINE
  5
64D
330
1F
100
AcDbEntity
  8
0
100
AcDbLine
 10
-40.20661968983269
 20
66.85631586058916
 30
0.0
 11
-40.20661968983269
 21
70.02631586058917
 31
0.0
  0
LINE
  5
64E
330
1F
100
AcDbEntity
  8
0
100
AcDbLine
 10
-40.20661968983269
 20
76.36631586058917
 30
0.0
 11
-43.37661968983269
 21
76.36631586058917
 31
0.0
  0
LINE
  5
64F
330
1F
100
AcDbEntity
  8
0
100
AcDbLine
 10
-40.20661968983269
 20
76.36631586058917
 30
0.0
 11
-40.20661968983269
 21
79.53631586058915
 31
0.0
  0
LINE
  5
650
330
1F
100
AcDbEntity
  8
0
100
AcDbLine
 10
-40.20661968983269
 20
79.53631586058915
 30
0.0
 11
-40.20661968983269
 21
82.70631586058916
 31
0.0
  0
LINE
  5
651
330
1F
100
AcDbEntity
  8
0
100
AcDbLine
 10
-30.69661968983269
 20
54.17631586058917
 30
0.0
 11
-33.86661968983269
 21
54.17631586058917
 31
0.0
  0
LINE
  5
652
330
1F
100
AcDbEntity
  8
0
100
AcDbLine
 10
-27.52661968983269
 20
54.17631586058917
 30
0.0
 11
-30.69661968983269
 21
54.17631586058917
 31
0.0
  0
LINE
  5
653
330
1F
100
AcDbEntity
  8
0
100
AcDbLine
 10
-27.52661968983269
 20
51.00631586058916
 30
0.0
 11
-27.52661968983269
 21
54.17631586058917
 31
0.0
  0
LINE
  5
654
330
1F
100
AcDbEntity
  8
0
100
AcDbLine
 10
-21.18661968983269
 20
51.00631586058916
 30
0.0
 11
-21.18661968983269
 21
54.17631586058917
 31
0.0
  0
LINE
  5
655
330
1F
100
AcDbEntity
  8
0
100
AcDbLine
 10
-14.84661968983269
 20
54.17631586058917
 30
0.0
 11
-18.01661968983269
 21
54.17631586058917
 31
0.0
  0
LINE
  5
656
330
1F
100
AcDbEntity
  8
0
100
AcDbLine
 10
-11.67661968983269
 20
51.00631586058916
 30
0.0
 11
-11.67661968983269
 21
54.17631586058917
 31
0.0
  0
LINE
  5
657
330
1F
100
AcDbEntity
  8
0
100
AcDbLine
 10
-43.37661968983269
 20
73.19631586058915
 30
0.0
 11
-43.37661968983269
 21
76.36631586058917
 31
0.0
  0
LINE
  5
658
330
1F
100
AcDbEntity
  8
0
100
AcDbLine
 10
-43.37661968983269
 20
70.02631586058917
 30
0.0
 11
-43.37661968983269
 21
73.19631586058915
 31
0.0
  0
LINE
  5
659
330
1F
100
AcDbEntity
  8
0
100
AcDbLine
 10
-43.37661968983269
 20
60.51631586058916
 30
0.0
 11
-43.37661968983269
 21
63.68631586058916
 31
0.0
  0
LINE
  5
65A
330
1F
100
AcDbEntity
  8
0
100
AcDbLine
 10
-43.37661968983269
 20
57.34631586058916
 30
0.0
 11
-43.37661968983269
 21
60.51631586058916
 31
0.0
  0
LINE
  5
65B
330
1F
100
AcDbEntity
  8
0
100
AcDbLine
 10
-21.18661968983269
 20
51.00631586058916
 30
0.0
 11
-24.3566196898327
 21
51.00631586058916
 31
0.0
  0
LINE
  5
65C
330
1F
100
AcDbEntity
  8
0
100
AcDbLine
 10
-24.3566196898327
 20
51.00631586058916
 30
0.0
 11
-27.52661968983269
 21
51.00631586058916
 31
0.0
  0
LINE
  5
65D
330
1F
100
AcDbEntity
  8
0
100
AcDbLine
 10
-8.506619689832692
 20
51.00631586058916
 30
0.0
 11
-11.67661968983269
 21
51.00631586058916
 31
0.0
  0
LINE
  5
65E
330
1F
100
AcDbEntity
  8
0
100
AcDbLine
 10
-5.336619689832691
 20
51.00631586058916
 30
0.0
 11
-8.506619689832692
 21
51.00631586058916
 31
0.0
  0
LINE
  5
65F
330
1F
100
AcDbEntity
  8
0
100
AcDbLine
 10
-5.336619689832691
 20
79.53631586058915
 30
0.0
 11
-5.336619689832691
 21
82.70631586058916
 31
0.0
  0
LINE
  5
660
330
1F
100
AcDbEntity
  8
0
100
AcDbLine
 10
-5.336619689832691
 20
82.70631586058916
 30
0.0
 11
-8.506619689832692
 21
82.70631586058916
 31
0.0
  0
LINE
  5
661
330
1F
100
AcDbEntity
  8
0
100
AcDbLine
 10
-5.336619689832691
 20
76.36631586058917
 30
0.0
 11
-5.336619689832691
 21
79.53631586058915
 31
0.0
  0
LINE
  5
662
330
1F
100
AcDbEntity
  8
0
100
AcDbLine
 10
-5.336619689832691
 20
76.36631586058917
 30
0.0
 11
-8.506619689832692
 21
76.36631586058917
 31
0.0
  0
LINE
  5
663
330
1F
100
AcDbEntity
  8
0
100
AcDbLine
 10
-5.336619689832691
 20
66.85631586058916
 30
0.0
 11
-5.336619689832691
 21
70.02631586058917
 31
0.0
  0
LINE
  5
664
330
1F
100
AcDbEntity
  8
0
100
AcDbLine
 10
-5.336619689832691
 20
70.02631586058917
 30
0.0
 11
-8.506619689832692
 21
70.02631586058917
 31
0.0
  0
LINE
  5
665
330
1F
100
AcDbEntity
  8
0
100
AcDbLine
 10
-5.336619689832691
 20
63.68631586058916
 30
0.0
 11
-5.336619689832691
 21
66.85631586058916
 31
0.0
  0
LINE
  5
666
330
1F
100
AcDbEntity
  8
0
100
AcDbLine
 10
-5.336619689832691
 20
63.68631586058916
 30
0.0
 11
-8.506619689832692
 21
63.68631586058916
 31
0.0
  0
LINE
  5
667
330
1F
100
AcDbEntity
  8
0
100
AcDbLine
 10
-5.336619689832691
 20
54.17631586058917
 30
0.0
 11
-5.336619689832691
 21
57.34631586058916
 31
0.0
  0
LINE
  5
668
330
1F
100
AcDbEntity
  8
0
100
AcDbLine
 10
-5.336619689832691
 20
57.34631586058916
 30
0.0
 11
-8.506619689832692
 21
57.34631586058916
 31
0.0
  0
LINE
  5
669
330
1F
100
AcDbEntity
  8
0
100
AcDbLine
 10
-5.336619689832691
 20
51.00631586058916
 30
0.0
 11
-5.336619689832691
 21
54.17631586058917
 31
0.0
  0
LINE
  5
66A
330
1F
100
AcDbEntity
  8
0
100
AcDbLine
 10
-8.506619689832692
 20
73.19631586058915
 30
0.0
 11
-8.506619689832692
 21
76.36631586058917
 31
0.0
  0
LINE
  5
66B
330
1F
100
AcDbEntity
  8
0
100
AcDbLine
 10
-8.506619689832692
 20
70.02631586058917
 30
0.0
 11
-8.506619689832692
 21
73.19631586058915
 31
0.0
  0
LINE
  5
66C
330
1F
100
AcDbEntity
  8
0
100
AcDbLine
 10
-8.506619689832692
 20
60.51631586058916
 30
0.0
 11
-8.506619689832692
 21
63.68631586058916
 31
0.0
  0
LINE
  5
66D
330
1F
100
AcDbEntity
  8
0
100
AcDbLine
 10
-8.506619689832692
 20
57.34631586058916
 30
0.0
 11
-8.506619689832692
 21
60.51631586058916
 31
0.0
  0
LINE
  5
66E
330
1F
100
AcDbEntity
  8
0
100
AcDbLine
 10
-33.86661968983269
 20
85.87631586058916
 30
0.0
 11
-37.03661968983269
 21
85.87631586058916
 31
0.0
  0
LINE
  5
66F
330
1F
100
AcDbEntity
  8
0
100
AcDbLine
 10
-27.52661968983269
 20
85.87631586058916
 30
0.0
 11
-33.86661968983269
 21
85.87631586058916
 31
0.0
  0
LINE
  5
670
330
1F
100
AcDbEntity
  8
0
100
AcDbLine
 10
-27.52661968983269
 20
85.87631586058916
 30
0.0
 11
-27.52661968983269
 21
89.04631586058917
 31
0.0
  0
LINE
  5
671
330
1F
100
AcDbEntity
  8
0
100
AcDbLine
 10
-24.3566196898327
 20
89.04631586058917
 30
0.0
 11
-27.52661968983269
 21
89.04631586058917
 31
0.0
  0
LINE
  5
672
330
1F
100
AcDbEntity
  8
0
100
AcDbLine
 10
-21.18661968983269
 20
89.04631586058917
 30
0.0
 11
-24.3566196898327
 21
89.04631586058917
 31
0.0
  0
LINE
  5
673
330
1F
100
AcDbEntity
  8
0
100
AcDbLine
 10
-21.18661968983269
 20
85.87631586058916
 30
0.0
 11
-21.18661968983269
 21
89.04631586058917
 31
0.0
  0
LINE
  5
674
330
1F
100
AcDbEntity
  8
0
100
AcDbLine
 10
-14.84661968983269
 20
85.87631586058916
 30
0.0
 11
-21.18661968983269
 21
85.87631586058916
 31
0.0
  0
LINE
  5
675
330
1F
100
AcDbEntity
  8
0
100
AcDbLine
 10
-8.506619689832692
 20
89.04631586058917
 30
0.0
 11
-11.67661968983269
 21
89.04631586058917
 31
0.0
  0
LINE
  5
676
330
1F
100
AcDbEntity
  8
0
100
AcDbLine
 10
-8.506619689832692
 20
82.70631586058916
 30
0.0
 11
-8.506619689832692
 21
85.87631586058916
 31
0.0
  0
LINE
  5
677
330
1F
100
AcDbEntity
  8
0
100
AcDbLine
 10
-37.03661968983269
 20
85.87631586058916
 30
0.0
 11
-37.03661968983269
 21
89.04631586058917
 31
0.0
  0
LINE
  5
678
330
1F
100
AcDbEntity
  8
0
100
AcDbLine
 10
-40.20661968983269
 20
89.04631586058917
 30
0.0
 11
-43.37661968983269
 21
89.04631586058917
 31
0.0
  0
LINE
  5
679
330
1F
100
AcDbEntity
  8
0
100
AcDbLine
 10
-43.37661968983269
 20
85.87631586058916
 30
0.0
 11
-43.37661968983269
 21
89.04631586058917
 31
0.0
  0
LINE
  5
67A
330
1F
100
AcDbEntity
  8
0
100
AcDbLine
 10
-43.37661968983269
 20
82.70631586058916
 30
0.0
 11
-43.37661968983269
 21
85.87631586058916
 31
0.0
  0
LINE
  5
67B
330
1F
100
AcDbEntity
  8
0
100
AcDbLine
 10
-43.37661968983269
 20
82.70631586058916
 30
0.0
 11
-40.20661968983269
 21
82.70631586058916
 31
0.0
  0
LINE
  5
67C
330
1F
100
AcDbEntity
  8
0
100
AcDbLine
 10
-11.67661968983269
 20
54.17631586058917
 30
0.0
 11
-14.84661968983269
 21
54.17631586058917
 31
0.0
  0
LINE
  5
67D
330
1F
100
AcDbEntity
  8
0
100
AcDbLine
 10
-37.03661968983269
 20
89.04631586058917
 30
0.0
 11
-40.20661968983269
 21
89.04631586058917
 31
0.0
  0
LINE
  5
67E
330
1F
100
AcDbEntity
  8
0
100
AcDbLine
 10
-14.84661968983269
 20
85.87631586058916
 30
0.0
 11
-11.67661968983269
 21
85.87631586058916
 31
0.0
  0
LINE
  5
67F
330
1F
100
AcDbEntity
  8
0
100
AcDbLine
 10
-37.03661968983269
 20
51.00631586058916
 30
0.0
 11
-40.20661968983269
 21
51.00631586058916
 31
0.0
  0
LINE
  5
680
330
1F
100
AcDbEntity
  8
0
100
AcDbLine
 10
-40.20661968983269
 20
51.00631586058916
 30
0.0
 11
-40.20661968983269
 21
54.17631586058917
 31
0.0
  0
LINE
  5
681
330
1F
100
AcDbEntity
  8
0
100
AcDbLine
 10
-8.506619689832692
 20
85.87631586058916
 30
0.0
 11
-8.506619689832692
 21
89.04631586058917
 31
0.0
  0
LINE
  5
682
330
1F
100
AcDbEntity
  8
0
100
AcDbLine
 10
-11.67661968983269
 20
85.87631586058916
 30
0.0
 11
-11.67661968983269
 21
89.04631586058917
 31
0.0
  0
LINE
  5
683
330
1F
100
AcDbEntity
  8
0
100
AcDbLine
 10
-33.86661968983269
 20
54.17631586058917
 30
0.0
 11
-37.03661968983269
 21
54.17631586058917
 31
0.0
  0
LINE
  5
684
330
1F
100
AcDbEntity
  8
0
100
AcDbLine
 10
-37.03661968983269
 20
51.00631586058916
 30
0.0
 11
-37.03661968983269
 21
54.17631586058917
 31
0.0
  0
LINE
  5
685
330
1F
100
AcDbEntity
  8
0
100
AcDbLine
 10
-18.01661968983269
 20
54.17631586058917
 30
0.0
 11
-21.18661968983269
 21
54.17631586058917
 31
0.0
  0
LWPOLYLINE
  5
686
330
1F
100
AcDbEntity
  8
0
100
AcDbPolyline
 90
        3
 70
     0
 43
0.0
 10
-36.67351517571983
 20
73.15215134926351
 10
-37.68916069317393
 20
70.02631586058917
 10
-36.67351517571983
 20
66.90048037191482
  0
LWPOLYLINE
  5
687
330
1F
100
AcDbEntity
  8
0
100
AcDbPolyline
 90
        3
 70
     0
 43
0.0
 10
-36.15851745719068
 20
65.31548037191486
 10
-35.14287193973657
 20
62.18964488324049
 10
-32.48387745452026
 20
60.25777230799914
  0
LWPOLYLINE
  5
688
330
1F
100
AcDbEntity
  8
0
100
AcDbPolyline
 90
        3
 70
     0
 43
0.0
 10
-31.13559592328228
 20
59.27818843583057
 10
-28.47660143806595
 20
57.34631586058916
 10
-25.18990350254153
 20
57.34631586058916
  0
LWPOLYLINE
  5
689
330
1F
100
AcDbEntity
  8
0
100
AcDbPolyline
 90
        3
 70
     0
 43
0.0
 10
-23.52333587712386
 20
57.34631586058916
 10
-20.23663794159945
 20
57.34631586058916
 10
-17.57764345638309
 20
59.27818843583057
  0
LWPOLYLINE
  5
68A
330
1F
100
AcDbEntity
  8
0
100
AcDbPolyline
 90
        3
 70
     0
 43
0.0
 10
-16.22936192514512
 20
60.25777230799914
 10
-13.57036743992884
 20
62.18964488324049
 10
-12.55472192247474
 20
65.3154803719148
  0
LWPOLYLINE
  5
68B
330
1F
100
AcDbEntity
  8
0
100
AcDbPolyline
 90
        3
 70
     0
 43
0.0
 10
-12.03972420394557
 20
66.90048037191481
 10
-11.02407868649146
 20
70.02631586058917
 10
-12.03972420394558
 20
73.15215134926354
  0
LWPOLYLINE
  5
68C
330
1F
100
AcDbEntity
  8
0
100
AcDbPolyline
 90
        3
 70
     0
 43
0.0
 10
-12.55472192247475
 20
74.73715134926355
 10
-13.57036743992883
 20
77.86298683793781
 10
-16.22936192514507
 20
79.79485941317915
  0
LWPOLYLINE
  5
68D
330
1F
100
AcDbEntity
  8
0
100
AcDbPolyline
 90
        3
 70
     0
 43
0.0
 10
-17.57764345638313
 20
80.77444328534781
 10
-20.23663794159945
 20
82.70631586058916
 10
-23.52333587712386
 20
82.70631586058916
  0
LWPOLYLINE
  5
68E
330
1F
100
AcDbEntity
  8
0
100
AcDbPolyline
 90
        3
 70
     0
 43
0.0
 10
-25.18990350254153
 20
82.70631586058916
 10
-28.47660143806595
 20
82.70631586058916
 10
-31.13559592328229
 20
80.77444328534779
  0
LWPOLYLINE
  5
68F
330
1F
100
AcDbEntity
  8
0
100
AcDbPolyline
 90
        3
 70
     0
 43
0.0
 10
-32.48387745452028
 20
79.79485941317918
 10
-35.14287193973656
 20
77.86298683793782
 10
-36.15851745719066
 20
74.73715134926351
  0
LINE
  5
690
330
1F
100
AcDbEntity
  8
0
100
AcDbLine
 10
-27.34825018883288
 20
63.98902392450487
 30
0.0
 11
-27.77924201479151
 21
65.31548037191486
 31
0.0
  0
LINE
  5
691
330
1F
100
AcDbEntity
  8
0
100
AcDbLine
 10
-26.83325247030376
 20
62.40402392450492
 30
0.0
 11
-31.13559592328227
 21
59.27818843583056
 31
0.0
  0
LINE
  5
692
330
1F
100
AcDbEntity
  8
0
100
AcDbLine
 10
-23.22826844059959
 20
63.38360779667348
 30
0.0
 11
-24.35661968983267
 21
64.20340296576927
 31
0.0
  0
LINE
  5
693
330
1F
100
AcDbEntity
  8
0
100
AcDbLine
 10
-21.87998690936165
 20
62.40402392450487
 30
0.0
 11
-23.52333587712386
 21
57.34631586058916
 31
0.0
  0
LINE
  5
694
330
1F
100
AcDbEntity
  8
0
100
AcDbLine
 10
-19.53927851832498
 20
65.31548037191481
 30
0.0
 11
-20.93399736487387
 21
65.31548037191481
 31
0.0
  0
LINE
  5
695
330
1F
100
AcDbEntity
  8
0
100
AcDbLine
 10
-17.87271089290731
 20
65.31548037191481
 30
0.0
 11
-16.22936192514512
 21
60.25777230799914
 31
0.0
  0
LINE
  5
696
330
1F
100
AcDbEntity
  8
0
100
AcDbLine
 10
-17.6903491881621
 20
69.04673198842061
 30
0.0
 11
-18.8187004373951
 21
68.22693681932483
 31
0.0
  0
LINE
  5
697
330
1F
100
AcDbEntity
  8
0
100
AcDbLine
 10
-16.34206765692415
 20
70.02631586058919
 30
0.0
 11
-12.03972420394557
 21
66.9004803719148
 31
0.0
  0
LINE
  5
698
330
1F
100
AcDbEntity
  8
0
100
AcDbLine
 10
-18.38770861143645
 20
73.15215134926353
 30
0.0
 11
-18.81870043739508
 21
71.8256949018535
 31
0.0
  0
LINE
  5
699
330
1F
100
AcDbEntity
  8
0
100
AcDbLine
 10
-17.87271089290729
 20
74.73715134926353
 30
0.0
 11
-12.55472192247474
 21
74.73715134926354
 31
0.0
  0
LINE
  5
69A
330
1F
100
AcDbEntity
  8
0
100
AcDbLine
 10
-21.36498919083249
 20
76.06360779667349
 30
0.0
 11
-20.93399736487389
 21
74.73715134926353
 31
0.0
  0
LINE
  5
69B
330
1F
100
AcDbEntity
  8
0
100
AcDbLine
 10
-21.87998690936163
 20
77.64860779667344
 30
0.0
 11
-17.57764345638312
 21
80.77444328534779
 31
0.0
  0
LINE
  5
69C
330
1F
100
AcDbEntity
  8
0
100
AcDbLine
 10
-25.4849709390658
 20
76.66902392450487
 30
0.0
 11
-24.3566196898327
 21
75.84922875540906
 31
0.0
  0
LINE
  5
69D
330
1F
100
AcDbEntity
  8
0
100
AcDbLine
 10
-26.83325247030374
 20
77.64860779667344
 30
0.0
 11
-25.18990350254152
 21
82.70631586058916
 31
0.0
  0
LINE
  5
69E
330
1F
100
AcDbEntity
  8
0
100
AcDbLine
 10
-29.17396086134042
 20
74.73715134926351
 30
0.0
 11
-27.77924201479151
 21
74.73715134926351
 31
0.0
  0
LINE
  5
69F
330
1F
100
AcDbEntity
  8
0
100
AcDbLine
 10
-30.84052848675805
 20
74.73715134926351
 30
0.0
 11
-32.48387745452027
 21
79.79485941317917
 31
0.0
  0
LINE
  5
6A0
330
1F
100
AcDbEntity
  8
0
100
AcDbLine
 10
-31.02289019150331
 20
71.00589973275771
 30
0.0
 11
-29.89453894227026
 21
71.82569490185352
 31
0.0
  0
LINE
  5
6A1
330
1F
100
AcDbEntity
  8
0
100
AcDbLine
 10
-32.3711717227413
 20
70.02631586058917
 30
0.0
 11
-36.67351517571983
 21
73.15215134926351
 31
0.0
  0
LINE
  5
6A2
330
1F
100
AcDbEntity
  8
0
100
AcDbLine
 10
-30.84052848675803
 20
65.31548037191486
 30
0.0
 11
-36.15851745719067
 21
65.31548037191486
 31
0.0
  0
LINE
  5
6A3
330
1F
100
AcDbEntity
  8
0
100
AcDbLine
 10
-30.32553076822886
 20
66.90048037191482
 30
0.0
 11
-29.89453894227024
 21
68.22693681932481
 31
0.0
  0
LINE
  5
6A4
330
1F
100
AcDbEntity
  8
0
100
AcDbLine
 10
-30.32553076822886
 20
66.90048037191482
 30
0.0
 11
-33.97695211324384
 21
66.90048037191482
 31
0.0
  0
LINE
  5
6A5
330
1F
100
AcDbEntity
  8
0
100
AcDbLine
 10
-28.65896314281127
 20
66.90048037191482
 30
0.0
 11
-28.03125969250313
 21
68.83235294715624
 31
0.0
  0
LINE
  5
6A6
330
1F
100
AcDbEntity
  8
0
100
AcDbLine
 10
-27.77924201479153
 20
65.31548037191481
 30
0.0
 11
-29.17396086134038
 21
65.31548037191486
 31
0.0
  0
LINE
  5
6A7
330
1F
100
AcDbEntity
  8
0
100
AcDbLine
 10
-27.3482501888329
 20
63.98902392450487
 30
0.0
 11
-30.30231211057346
 21
61.8427723079991
 31
0.0
  0
LINE
  5
6A8
330
1F
100
AcDbEntity
  8
0
100
AcDbLine
 10
-25.99996865759491
 20
64.96860779667348
 30
0.0
 11
-26.62767210790303
 21
66.90048037191482
 31
0.0
  0
LINE
  5
6A9
330
1F
100
AcDbEntity
  8
0
100
AcDbLine
 10
-24.35661968983272
 20
64.20340296576927
 30
0.0
 11
-25.48497093906577
 21
63.38360779667348
 31
0.0
  0
LINE
  5
6AA
330
1F
100
AcDbEntity
  8
0
100
AcDbLine
 10
-23.22826844059959
 20
63.38360779667348
 30
0.0
 11
-24.3566196898327
 21
59.91089973275772
 31
0.0
  0
LINE
  5
6AB
330
1F
100
AcDbEntity
  8
0
100
AcDbLine
 10
-22.71327072207043
 20
64.96860779667343
 30
0.0
 11
-24.3566196898327
 21
66.16257071010642
 31
0.0
  0
LINE
  5
6AC
330
1F
100
AcDbEntity
  8
0
100
AcDbLine
 10
-20.93399736487385
 20
65.31548037191481
 30
0.0
 11
-21.36498919083249
 21
63.98902392450486
 31
0.0
  0
LINE
  5
6AD
330
1F
100
AcDbEntity
  8
0
100
AcDbLine
 10
-19.53927851832496
 20
65.31548037191481
 30
0.0
 11
-18.41092726909193
 21
61.8427723079991
 31
0.0
  0
LINE
  5
6AE
330
1F
100
AcDbEntity
  8
0
100
AcDbLine
 10
-20.05427623685413
 20
66.9004803719148
 30
0.0
 11
-22.08556727176233
 21
66.9004803719148
 31
0.0
  0
LINE
  5
6AF
330
1F
100
AcDbEntity
  8
0
100
AcDbLine
 10
-18.81870043739513
 20
68.22693681932481
 30
0.0
 11
-18.38770861143645
 21
66.9004803719148
 31
0.0
  0
LINE
  5
6B0
330
1F
100
AcDbEntity
  8
0
100
AcDbLine
 10
-17.69034918816212
 20
69.04673198842061
 30
0.0
 11
-14.73628726642151
 21
66.9004803719148
 31
0.0
  0
LINE
  5
6B1
330
1F
100
AcDbEntity
  8
0
100
AcDbLine
 10
-19.03863071940008
 20
70.02631586058919
 30
0.0
 11
-20.68197968716226
 21
68.83235294715624
 31
0.0
  0
LINE
  5
6B2
330
1F
100
AcDbEntity
  8
0
100
AcDbLine
 10
-18.8187004373951
 20
71.8256949018535
 30
0.0
 11
-17.69034918816214
 21
71.00589973275777
 31
0.0
  0
LINE
  5
6B3
330
1F
100
AcDbEntity
  8
0
100
AcDbLine
 10
-18.38770861143645
 20
73.15215134926353
 30
0.0
 11
-14.73628726642153
 21
73.15215134926353
 31
0.0
  0
LINE
  5
6B4
330
1F
100
AcDbEntity
  8
0
100
AcDbLine
 10
-20.0542762368541
 20
73.15215134926353
 30
0.0
 11
-20.68197968716226
 21
71.22027877402212
 31
0.0
  0
LINE
  5
6B5
330
1F
100
AcDbEntity
  8
0
100
AcDbLine
 10
-20.93399736487389
 20
74.73715134926353
 30
0.0
 11
-19.53927851832494
 21
74.73715134926353
 31
0.0
  0
LINE
  5
6B6
330
1F
100
AcDbEntity
  8
0
100
AcDbLine
 10
-21.36498919083253
 20
76.06360779667344
 30
0.0
 11
-18.41092726909181
 21
78.20985941317926
 31
0.0
  0
LINE
  5
6B7
330
1F
100
AcDbEntity
  8
0
100
AcDbLine
 10
-22.71327072207049
 20
75.08402392450488
 30
0.0
 11
-22.08556727176236
 21
73.15215134926353
 31
0.0
  0
LINE
  5
6B8
330
1F
100
AcDbEntity
  8
0
100
AcDbLine
 10
-24.35661968983272
 20
75.84922875540906
 30
0.0
 11
-23.22826844059961
 21
76.66902392450487
 31
0.0
  0
LINE
  5
6B9
330
1F
100
AcDbEntity
  8
0
100
AcDbLine
 10
-25.48497093906576
 20
76.66902392450483
 30
0.0
 11
-24.3566196898327
 21
80.14173198842057
 31
0.0
  0
LINE
  5
6BA
330
1F
100
AcDbEntity
  8
0
100
AcDbLine
 10
-29.89453894227026
 20
68.22693681932481
 30
0.0
 11
-31.02289019150334
 21
69.04673198842061
 31
0.0
  0
LINE
  5
6BB
330
1F
100
AcDbEntity
  8
0
100
AcDbLine
 10
-29.67460866026535
 20
70.02631586058917
 30
0.0
 11
-28.03125969250313
 21
71.22027877402212
 31
0.0
  0
LINE
  5
6BC
330
1F
100
AcDbEntity
  8
0
100
AcDbLine
 10
-31.02289019150334
 20
71.00589973275771
 30
0.0
 11
-33.9769521132439
 21
73.15215134926351
 31
0.0
  0
LINE
  5
6BD
330
1F
100
AcDbEntity
  8
0
100
AcDbLine
 10
-29.89453894227026
 20
71.82569490185352
 30
0.0
 11
-30.32553076822889
 21
73.15215134926351
 31
0.0
  0
LINE
  5
6BE
330
1F
100
AcDbEntity
  8
0
100
AcDbLine
 10
-28.65896314281124
 20
73.15215134926351
 30
0.0
 11
-26.62767210790301
 21
73.15215134926351
 31
0.0
  0
LINE
  5
6BF
330
1F
100
AcDbEntity
  8
0
100
AcDbLine
 10
-29.17396086134042
 20
74.73715134926351
 30
0.0
 11
-30.30231211057346
 21
78.20985941317921
 31
0.0
  0
LINE
  5
6C0
330
1F
100
AcDbEntity
  8
0
100
AcDbLine
 10
-25.99996865759489
 20
75.08402392450488
 30
0.0
 11
-24.3566196898327
 21
73.89006101107191
 31
0.0
  0
LINE
  5
6C1
330
1F
100
AcDbEntity
  8
0
100
AcDbLine
 10
-27.77924201479151
 20
74.73715134926351
 30
0.0
 11
-27.34825018883293
 21
76.06360779667344
 31
0.0
  0
LINE
  5
6C2
330
1F
100
AcDbEntity
  8
0
100
AcDbLine
 10
-20.68197968716226
 20
68.83235294715624
 30
0.0
 11
-20.05427623685413
 21
66.9004803719148
 31
0.0
  0
LINE
  5
6C3
330
1F
100
AcDbEntity
  8
0
100
AcDbLine
 10
-22.08556727176233
 20
66.90048037191482
 30
0.0
 11
-22.71327072207045
 21
64.96860779667343
 31
0.0
  0
LINE
  5
6C4
330
1F
100
AcDbEntity
  8
0
100
AcDbLine
 10
-24.35661968983272
 20
66.16257071010642
 30
0.0
 11
-25.99996865759489
 21
64.96860779667348
 31
0.0
  0
LINE
  5
6C5
330
1F
100
AcDbEntity
  8
0
100
AcDbLine
 10
-26.62767210790303
 20
66.90048037191482
 30
0.0
 11
-28.65896314281122
 21
66.90048037191482
 31
0.0
  0
LINE
  5
6C6
330
1F
100
AcDbEntity
  8
0
100
AcDbLine
 10
-28.03125969250313
 20
68.83235294715618
 30
0.0
 11
-29.67460866026537
 21
70.02631586058917
 31
0.0
  0
LINE
  5
6C7
330
1F
100
AcDbEntity
  8
0
100
AcDbLine
 10
-28.03125969250315
 20
71.22027877402212
 30
0.0
 11
-28.65896314281127
 21
73.15215134926351
 31
0.0
  0
LINE
  5
6C8
330
1F
100
AcDbEntity
  8
0
100
AcDbLine
 10
-26.62767210790301
 20
73.15215134926351
 30
0.0
 11
-25.99996865759491
 21
75.08402392450488
 31
0.0
  0
LINE
  5
6C9
330
1F
100
AcDbEntity
  8
0
100
AcDbLine
 10
-22.08556727176238
 20
73.15215134926353
 30
0.0
 11
-20.0542762368541
 21
73.15215134926353
 31
0.0
  0
LINE
  5
6CA
330
1F
100
AcDbEntity
  8
0
100
AcDbLine
 10
-20.68197968716224
 20
71.22027877402203
 30
0.0
 11
-19.0386307194001
 21
70.02631586058917
 31
0.0
  0
LINE
  5
6CB
330
1F
100
AcDbEntity
  8
0
100
AcDbLine
 10
-24.3566196898327
 20
73.89006101107191
 30
0.0
 11
-22.71327072207047
 21
75.08402392450488
 31
0.0
  0
LINE
  5
6CC
330
1F
100
AcDbEntity
  8
0
100
AcDbLine
 10
-17.57764345638309
 20
59.27818843583056
 30
0.0
 11
-21.87998690936163
 21
62.40402392450492
 31
0.0
  0
LINE
  5
6CD
330
1F
100
AcDbEntity
  8
0
100
AcDbLine
 10
-18.41092726909193
 20
61.8427723079991
 30
0.0
 11
-21.36498919083249
 21
63.98902392450487
 31
0.0
  0
LINE
  5
6CE
330
1F
100
AcDbEntity
  8
0
100
AcDbLine
 10
-12.55472192247474
 20
65.3154803719148
 30
0.0
 11
-17.87271089290735
 21
65.3154803719148
 31
0.0
  0
LINE
  5
6CF
330
1F
100
AcDbEntity
  8
0
100
AcDbLine
 10
-14.73628726642151
 20
66.9004803719148
 30
0.0
 11
-18.38770861143648
 21
66.9004803719148
 31
0.0
  0
LINE
  5
6D0
330
1F
100
AcDbEntity
  8
0
100
AcDbLine
 10
-25.18990350254152
 20
57.34631586058916
 30
0.0
 11
-26.83325247030372
 21
62.40402392450487
 31
0.0
  0
LINE
  5
6D1
330
1F
100
AcDbEntity
  8
0
100
AcDbLine
 10
-24.3566196898327
 20
59.91089973275772
 30
0.0
 11
-25.48497093906576
 21
63.38360779667348
 31
0.0
  0
LINE
  5
6D2
330
1F
100
AcDbEntity
  8
0
100
AcDbLine
 10
-32.48387745452026
 20
60.25777230799914
 30
0.0
 11
-30.84052848675803
 21
65.31548037191486
 31
0.0
  0
LINE
  5
6D3
330
1F
100
AcDbEntity
  8
0
100
AcDbLine
 10
-30.30231211057346
 20
61.8427723079991
 30
0.0
 11
-29.17396086134042
 21
65.31548037191486
 31
0.0
  0
LINE
  5
6D4
330
1F
100
AcDbEntity
  8
0
100
AcDbLine
 10
-36.67351517571983
 20
66.90048037191482
 30
0.0
 11
-32.37117172274128
 21
70.02631586058917
 31
0.0
  0
LINE
  5
6D5
330
1F
100
AcDbEntity
  8
0
100
AcDbLine
 10
-33.97695211324384
 20
66.90048037191482
 30
0.0
 11
-31.02289019150331
 21
69.04673198842061
 31
0.0
  0
LINE
  5
6D6
330
1F
100
AcDbEntity
  8
0
100
AcDbLine
 10
-24.3566196898327
 20
80.14173198842057
 30
0.0
 11
-23.22826844059966
 21
76.66902392450487
 31
0.0
  0
LINE
  5
6D7
330
1F
100
AcDbEntity
  8
0
100
AcDbLine
 10
-23.52333587712386
 20
82.70631586058916
 30
0.0
 11
-21.87998690936165
 21
77.64860779667344
 31
0.0
  0
LINE
  5
6D8
330
1F
100
AcDbEntity
  8
0
100
AcDbLine
 10
-36.15851745719066
 20
74.73715134926351
 30
0.0
 11
-30.84052848675807
 21
74.73715134926351
 31
0.0
  0
LINE
  5
6D9
330
1F
100
AcDbEntity
  8
0
100
AcDbLine
 10
-33.9769521132439
 20
73.15215134926351
 30
0.0
 11
-30.32553076822886
 21
73.15215134926351
 31
0.0
  0
LINE
  5
6DA
330
1F
100
AcDbEntity
  8
0
100
AcDbLine
 10
-16.22936192514506
 20
79.79485941317915
 30
0.0
 11
-17.87271089290727
 21
74.73715134926353
 31
0.0
  0
LINE
  5
6DB
330
1F
100
AcDbEntity
  8
0
100
AcDbLine
 10
-18.41092726909181
 20
78.20985941317926
 30
0.0
 11
-19.53927851832494
 21
74.73715134926353
 31
0.0
  0
LINE
  5
6DC
330
1F
100
AcDbEntity
  8
0
100
AcDbLine
 10
-31.13559592328229
 20
80.77444328534779
 30
0.0
 11
-26.83325247030374
 21
77.64860779667344
 31
0.0
  0
LINE
  5
6DD
330
1F
100
AcDbEntity
  8
0
100
AcDbLine
 10
-30.30231211057346
 20
78.20985941317921
 30
0.0
 11
-27.34825018883288
 21
76.06360779667344
 31
0.0
  0
LINE
  5
6DE
330
1F
100
AcDbEntity
  8
0
100
AcDbLine
 10
-12.03972420394558
 20
73.15215134926354
 30
0.0
 11
-16.34206765692413
 21
70.02631586058919
 31
0.0
  0
LINE
  5
6DF
330
1F
100
AcDbEntity
  8
0
100
AcDbLine
 10
-14.73628726642153
 20
73.15215134926353
 30
0.0
 11
-17.69034918816214
 21
71.00589973275777
 31
0.0
  0
LINE
  5
6E0
330
1F
100
AcDbEntity
  8
0
100
AcDbLine
 10
0.9692256635173706
 20
57.34631586058916
 30
0.0
 11
-2.200774336482627
 21
57.34631586058916
 31
0.0
  0
LINE
  5
6E1
330
1F
100
AcDbEntity
  8
0
100
AcDbLine
 10
0.9692256635173706
 20
54.17631586058917
 30
0.0
 11
0.9692256635173706
 21
57.34631586058916
 31
0.0
  0
LINE
  5
6E2
330
1F
100
AcDbEntity
  8
0
100
AcDbLine
 10
0.9692256635173706
 20
63.68631586058916
 30
0.0
 11
-2.200774336482627
 21
63.68631586058916
 31
0.0
  0
LINE
  5
6E3
330
1F
100
AcDbEntity
  8
0
100
AcDbLine
 10
0.9692256635173706
 20
63.68631586058916
 30
0.0
 11
0.9692256635173706
 21
66.85631586058916
 31
0.0
  0
LINE
  5
6E4
330
1F
100
AcDbEntity
  8
0
100
AcDbLine
 10
0.9692256635173706
 20
70.02631586058917
 30
0.0
 11
-2.200774336482627
 21
70.02631586058917
 31
0.0
  0
LINE
  5
6E5
330
1F
100
AcDbEntity
  8
0
100
AcDbLine
 10
0.9692256635173706
 20
66.85631586058916
 30
0.0
 11
0.9692256635173706
 21
70.02631586058917
 31
0.0
  0
LINE
  5
6E6
330
1F
100
AcDbEntity
  8
0
100
AcDbLine
 10
0.9692256635173706
 20
76.36631586058917
 30
0.0
 11
-2.200774336482627
 21
76.36631586058917
 31
0.0
  0
LINE
  5
6E7
330
1F
100
AcDbEntity
  8
0
100
AcDbLine
 10
0.9692256635173706
 20
76.36631586058917
 30
0.0
 11
0.9692256635173706
 21
79.53631586058915
 31
0.0
  0
LINE
  5
6E8
330
1F
100
AcDbEntity
  8
0
100
AcDbLine
 10
0.9692256635173706
 20
79.53631586058915
 30
0.0
 11
0.9692256635173706
 21
82.70631586058916
 31
0.0
  0
LINE
  5
6E9
330
1F
100
AcDbEntity
  8
0
100
AcDbLine
 10
10.47922566351737
 20
54.17631586058917
 30
0.0
 11
7.30922566351737
 21
54.17631586058917
 31
0.0
  0
LINE
  5
6EA
330
1F
100
AcDbEntity
  8
0
100
AcDbLine
 10
13.64922566351737
 20
54.17631586058917
 30
0.0
 11
10.47922566351737
 21
54.17631586058917
 31
0.0
  0
LINE
  5
6EB
330
1F
100
AcDbEntity
  8
0
100
AcDbLine
 10
13.64922566351737
 20
51.00631586058916
 30
0.0
 11
13.64922566351737
 21
54.17631586058917
 31
0.0
  0
LINE
  5
6EC
330
1F
100
AcDbEntity
  8
0
100
AcDbLine
 10
19.98922566351737
 20
51.00631586058916
 30
0.0
 11
19.98922566351737
 21
54.17631586058917
 31
0.0
  0
LINE
  5
6ED
330
1F
100
AcDbEntity
  8
0
100
AcDbLine
 10
26.32922566351737
 20
54.17631586058917
 30
0.0
 11
23.15922566351737
 21
54.17631586058917
 31
0.0
  0
LINE
  5
6EE
330
1F
100
AcDbEntity
  8
0
100
AcDbLine
 10
29.49922566351737
 20
51.00631586058916
 30
0.0
 11
29.49922566351737
 21
54.17631586058917
 31
0.0
  0
LINE
  5
6EF
330
1F
100
AcDbEntity
  8
0
100
AcDbLine
 10
-2.200774336482627
 20
73.19631586058915
 30
0.0
 11
-2.200774336482627
 21
76.36631586058917
 31
0.0
  0
LINE
  5
6F0
330
1F
100
AcDbEntity
  8
0
100
AcDbLine
 10
-2.200774336482627
 20
70.02631586058917
 30
0.0
 11
-2.200774336482627
 21
73.19631586058915
 31
0.0
  0
LINE
  5
6F1
330
1F
100
AcDbEntity
  8
0
100
AcDbLine
 10
-2.200774336482627
 20
60.51631586058916
 30
0.0
 11
-2.200774336482627
 21
63.68631586058916
 31
0.0
  0
LINE
  5
6F2
330
1F
100
AcDbEntity
  8
0
100
AcDbLine
 10
-2.200774336482627
 20
57.34631586058916
 30
0.0
 11
-2.200774336482627
 21
60.51631586058916
 31
0.0
  0
LINE
  5
6F3
330
1F
100
AcDbEntity
  8
0
100
AcDbLine
 10
19.98922566351737
 20
51.00631586058916
 30
0.0
 11
16.81922566351737
 21
51.00631586058916
 31
0.0
  0
LINE
  5
6F4
330
1F
100
AcDbEntity
  8
0
100
AcDbLine
 10
16.81922566351737
 20
51.00631586058916
 30
0.0
 11
13.64922566351737
 21
51.00631586058916
 31
0.0
  0
LINE
  5
6F5
330
1F
100
AcDbEntity
  8
0
100
AcDbLine
 10
32.66922566351737
 20
51.00631586058916
 30
0.0
 11
29.49922566351737
 21
51.00631586058916
 31
0.0
  0
LINE
  5
6F6
330
1F
100
AcDbEntity
  8
0
100
AcDbLine
 10
35.83922566351737
 20
51.00631586058916
 30
0.0
 11
32.66922566351737
 21
51.00631586058916
 31
0.0
  0
LINE
  5
6F7
330
1F
100
AcDbEntity
  8
0
100
AcDbLine
 10
35.83922566351737
 20
79.53631586058915
 30
0.0
 11
35.83922566351737
 21
82.70631586058916
 31
0.0
  0
LINE
  5
6F8
330
1F
100
AcDbEntity
  8
0
100
AcDbLine
 10
35.83922566351737
 20
82.70631586058916
 30
0.0
 11
32.66922566351737
 21
82.70631586058916
 31
0.0
  0
LINE
  5
6F9
330
1F
100
AcDbEntity
  8
0
100
AcDbLine
 10
35.83922566351737
 20
76.36631586058917
 30
0.0
 11
35.83922566351737
 21
79.53631586058915
 31
0.0
  0
LINE
  5
6FA
330
1F
100
AcDbEntity
  8
0
100
AcDbLine
 10
35.83922566351737
 20
76.36631586058917
 30
0.0
 11
32.66922566351737
 21
76.36631586058917
 31
0.0
  0
LINE
  5
6FB
330
1F
100
AcDbEntity
  8
0
100
AcDbLine
 10
35.83922566351737
 20
66.85631586058916
 30
0.0
 11
35.83922566351737
 21
70.02631586058917
 31
0.0
  0
LINE
  5
6FC
330
1F
100
AcDbEntity
  8
0
100
AcDbLine
 10
35.83922566351737
 20
70.02631586058917
 30
0.0
 11
32.66922566351737
 21
70.02631586058917
 31
0.0
  0
LINE
  5
6FD
330
1F
100
AcDbEntity
  8
0
100
AcDbLine
 10
35.83922566351737
 20
63.68631586058916
 30
0.0
 11
35.83922566351737
 21
66.85631586058916
 31
0.0
  0
LINE
  5
6FE
330
1F
100
AcDbEntity
  8
0
100
AcDbLine
 10
35.83922566351737
 20
63.68631586058916
 30
0.0
 11
32.66922566351737
 21
63.68631586058916
 31
0.0
  0
LINE
  5
6FF
330
1F
100
AcDbEntity
  8
0
100
AcDbLine
 10
35.83922566351737
 20
54.17631586058917
 30
0.0
 11
35.83922566351737
 21
57.34631586058916
 31
0.0
  0
LINE
  5
700
330
1F
100
AcDbEntity
  8
0
100
AcDbLine
 10
35.83922566351737
 20
57.34631586058916
 30
0.0
 11
32.66922566351737
 21
57.34631586058916
 31
0.0
  0
LINE
  5
701
330
1F
100
AcDbEntity
  8
0
100
AcDbLine
 10
35.83922566351737
 20
51.00631586058916
 30
0.0
 11
35.83922566351737
 21
54.17631586058917
 31
0.0
  0
LINE
  5
702
330
1F
100
AcDbEntity
  8
0
100
AcDbLine
 10
32.66922566351737
 20
73.19631586058915
 30
0.0
 11
32.66922566351737
 21
76.36631586058917
 31
0.0
  0
LINE
  5
703
330
1F
100
AcDbEntity
  8
0
100
AcDbLine
 10
32.66922566351737
 20
70.02631586058917
 30
0.0
 11
32.66922566351737
 21
73.19631586058915
 31
0.0
  0
LINE
  5
704
330
1F
100
AcDbEntity
  8
0
100
AcDbLine
 10
32.66922566351737
 20
60.51631586058916
 30
0.0
 11
32.66922566351737
 21
63.68631586058916
 31
0.0
  0
LINE
  5
705
330
1F
100
AcDbEntity
  8
0
100
AcDbLine
 10
32.66922566351737
 20
57.34631586058916
 30
0.0
 11
32.66922566351737
 21
60.51631586058916
 31
0.0
  0
LINE
  5
706
330
1F
100
AcDbEntity
  8
0
100
AcDbLine
 10
7.30922566351737
 20
85.87631586058916
 30
0.0
 11
4.13922566351737
 21
85.87631586058916
 31
0.0
  0
LINE
  5
707
330
1F
100
AcDbEntity
  8
0
100
AcDbLine
 10
13.64922566351737
 20
85.87631586058916
 30
0.0
 11
7.30922566351737
 21
85.87631586058916
 31
0.0
  0
LINE
  5
708
330
1F
100
AcDbEntity
  8
0
100
AcDbLine
 10
13.64922566351737
 20
85.87631586058916
 30
0.0
 11
13.64922566351737
 21
89.04631586058917
 31
0.0
  0
LINE
  5
709
330
1F
100
AcDbEntity
  8
0
100
AcDbLine
 10
16.81922566351737
 20
89.04631586058917
 30
0.0
 11
13.64922566351737
 21
89.04631586058917
 31
0.0
  0
LINE
  5
70A
330
1F
100
AcDbEntity
  8
0
100
AcDbLine
 10
19.98922566351737
 20
89.04631586058917
 30
0.0
 11
16.81922566351737
 21
89.04631586058917
 31
0.0
  0
LINE
  5
70B
330
1F
100
AcDbEntity
  8
0
100
AcDbLine
 10
19.98922566351737
 20
85.87631586058916
 30
0.0
 11
19.98922566351737
 21
89.04631586058917
 31
0.0
  0
LINE
  5
70C
330
1F
100
AcDbEntity
  8
0
100
AcDbLine
 10
26.32922566351737
 20
85.87631586058916
 30
0.0
 11
19.98922566351737
 21
85.87631586058916
 31
0.0
  0
LINE
  5
70D
330
1F
100
AcDbEntity
  8
0
100
AcDbLine
 10
32.66922566351737
 20
89.04631586058917
 30
0.0
 11
29.49922566351737
 21
89.04631586058917
 31
0.0
  0
LINE
  5
70E
330
1F
100
AcDbEntity
  8
0
100
AcDbLine
 10
32.66922566351737
 20
82.70631586058916
 30
0.0
 11
32.66922566351737
 21
85.87631586058916
 31
0.0
  0
LINE
  5
70F
330
1F
100
AcDbEntity
  8
0
100
AcDbLine
 10
4.13922566351737
 20
85.87631586058916
 30
0.0
 11
4.13922566351737
 21
89.04631586058917
 31
0.0
  0
LINE
  5
710
330
1F
100
AcDbEntity
  8
0
100
AcDbLine
 10
0.9692256635173706
 20
89.04631586058917
 30
0.0
 11
-2.200774336482627
 21
89.04631586058917
 31
0.0
  0
LINE
  5
711
330
1F
100
AcDbEntity
  8
0
100
AcDbLine
 10
-2.200774336482627
 20
85.87631586058916
 30
0.0
 11
-2.200774336482627
 21
89.04631586058917
 31
0.0
  0
LINE
  5
712
330
1F
100
AcDbEntity
  8
0
100
AcDbLine
 10
-2.200774336482627
 20
82.70631586058916
 30
0.0
 11
-2.200774336482627
 21
85.87631586058916
 31
0.0
  0
LINE
  5
713
330
1F
100
AcDbEntity
  8
0
100
AcDbLine
 10
-2.200774336482627
 20
82.70631586058916
 30
0.0
 11
0.9692256635173706
 21
82.70631586058916
 31
0.0
  0
LINE
  5
714
330
1F
100
AcDbEntity
  8
0
100
AcDbLine
 10
29.49922566351737
 20
54.17631586058917
 30
0.0
 11
26.32922566351737
 21
54.17631586058917
 31
0.0
  0
LINE
  5
715
330
1F
100
AcDbEntity
  8
0
100
AcDbLine
 10
4.13922566351737
 20
89.04631586058917
 30
0.0
 11
0.9692256635173706
 21
89.04631586058917
 31
0.0
  0
LINE
  5
716
330
1F
100
AcDbEntity
  8
0
100
AcDbLine
 10
26.32922566351737
 20
85.87631586058916
 30
0.0
 11
29.49922566351737
 21
85.87631586058916
 31
0.0
  0
LINE
  5
717
330
1F
100
AcDbEntity
  8
0
100
AcDbLine
 10
4.13922566351737
 20
51.00631586058916
 30
0.0
 11
0.9692256635173706
 21
51.00631586058916
 31
0.0
  0
LINE
  5
718
330
1F
100
AcDbEntity
  8
0
100
AcDbLine
 10
0.9692256635173706
 20
51.00631586058916
 30
0.0
 11
0.9692256635173706
 21
54.17631586058917
 31
0.0
  0
LINE
  5
719
330
1F
100
AcDbEntity
  8
0
100
AcDbLine
 10
32.66922566351737
 20
85.87631586058916
 30
0.0
 11
32.66922566351737
 21
89.04631586058917
 31
0.0
  0
LINE
  5
71A
330
1F
100
AcDbEntity
  8
0
100
AcDbLine
 10
29.49922566351737
 20
85.87631586058916
 30
0.0
 11
29.49922566351737
 21
89.04631586058917
 31
0.0
  0
LINE
  5
71B
330
1F
100
AcDbEntity
  8
0
100
AcDbLine
 10
7.30922566351737
 20
54.17631586058917
 30
0.0
 11
4.13922566351737
 21
54.17631586058917
 31
0.0
  0
LINE
  5
71C
330
1F
100
AcDbEntity
  8
0
100
AcDbLine
 10
4.13922566351737
 20
51.00631586058916
 30
0.0
 11
4.13922566351737
 21
54.17631586058917
 31
0.0
  0
LINE
  5
71D
330
1F
100
AcDbEntity
  8
0
100
AcDbLine
 10
23.15922566351737
 20
54.17631586058917
 30
0.0
 11
19.98922566351737
 21
54.17631586058917
 31
0.0
  0
LWPOLYLINE
  5
71E
330
1F
100
AcDbEntity
  8
0
100
AcDbPolyline
 90
        3
 70
     0
 43
0.0
 10
4.502330177630241
 20
73.15215134926351
 10
3.486684660176138
 20
70.02631586058917
 10
4.502330177630241
 20
66.90048037191482
  0
LWPOLYLINE
  5
71F
330
1F
100
AcDbEntity
  8
0
100
AcDbPolyline
 90
        3
 70
     0
 43
0.0
 10
5.017327896159393
 20
65.31548037191486
 10
6.032973413613504
 20
62.18964488324049
 10
8.691967898829801
 20
60.25777230799914
  0
LWPOLYLINE
  5
720
330
1F
100
AcDbEntity
  8
0
100
AcDbPolyline
 90
        3
 70
     0
 43
0.0
 10
10.04024943006777
 20
59.27818843583057
 10
12.69924391528409
 20
57.34631586058916
 10
15.98594185080853
 20
57.34631586058916
  0
LWPOLYLINE
  5
721
330
1F
100
AcDbEntity
  8
0
100
AcDbPolyline
 90
        3
 70
     0
 43
0.0
 10
17.65250947622617
 20
57.34631586058916
 10
20.93920741175063
 20
57.34631586058916
 10
23.59820189696697
 20
59.27818843583057
  0
LWPOLYLINE
  5
722
330
1F
100
AcDbEntity
  8
0
100
AcDbPolyline
 90
        3
 70
     0
 43
0.0
 10
24.94648342820494
 20
60.25777230799914
 10
27.60547791342121
 20
62.18964488324049
 10
28.62112343087536
 20
65.3154803719148
  0
LWPOLYLINE
  5
723
330
1F
100
AcDbEntity
  8
0
100
AcDbPolyline
 90
        3
 70
     0
 43
0.0
 10
29.13612114940449
 20
66.90048037191481
 10
30.15176666685861
 20
70.02631586058917
 10
29.13612114940449
 20
73.15215134926354
  0
LWPOLYLINE
  5
724
330
1F
100
AcDbEntity
  8
0
100
AcDbPolyline
 90
        3
 70
     0
 43
0.0
 10
28.62112343087531
 20
74.73715134926355
 10
27.60547791342124
 20
77.86298683793781
 10
24.946483428205
 20
79.79485941317915
  0
LWPOLYLINE
  5
725
330
1F
100
AcDbEntity
  8
0
100
AcDbPolyline
 90
        3
 70
     0
 43
0.0
 10
23.59820189696693
 20
80.77444328534781
 10
20.93920741175063
 20
82.70631586058916
 10
17.65250947622617
 20
82.70631586058916
  0
LWPOLYLINE
  5
726
330
1F
100
AcDbEntity
  8
0
100
AcDbPolyline
 90
        3
 70
     0
 43
0.0
 10
15.98594185080853
 20
82.70631586058916
 10
12.69924391528409
 20
82.70631586058916
 10
10.04024943006777
 20
80.77444328534779
  0
LWPOLYLINE
  5
727
330
1F
100
AcDbEntity
  8
0
100
AcDbPolyline
 90
        3
 70
     0
 43
0.0
 10
8.691967898829801
 20
79.79485941317918
 10
6.032973413613504
 20
77.86298683793782
 10
5.017327896159393
 20
74.73715134926351
  0
LINE
  5
728
330
1F
100
AcDbEntity
  8
0
100
AcDbLine
 10
13.82759516451717
 20
63.98902392450487
 30
0.0
 11
13.39660333855855
 21
65.31548037191486
 31
0.0
  0
LINE
  5
729
330
1F
100
AcDbEntity
  8
0
100
AcDbLine
 10
14.34259288304629
 20
62.40402392450492
 30
0.0
 11
10.04024943006778
 21
59.27818843583056
 31
0.0
  0
LINE
  5
72A
330
1F
100
AcDbEntity
  8
0
100
AcDbLine
 10
17.94757691275047
 20
63.38360779667348
 30
0.0
 11
16.81922566351737
 21
64.20340296576927
 31
0.0
  0
LINE
  5
72B
330
1F
100
AcDbEntity
  8
0
100
AcDbLine
 10
19.29585844398839
 20
62.40402392450487
 30
0.0
 11
17.65250947622617
 21
57.34631586058916
 31
0.0
  0
LINE
  5
72C
330
1F
100
AcDbEntity
  8
0
100
AcDbLine
 10
21.63656683502509
 20
65.31548037191481
 30
0.0
 11
20.24184798847618
 21
65.31548037191481
 31
0.0
  0
LINE
  5
72D
330
1F
100
AcDbEntity
  8
0
100
AcDbLine
 10
23.30313446044277
 20
65.31548037191481
 30
0.0
 11
24.94648342820495
 21
60.25777230799914
 31
0.0
  0
LINE
  5
72E
330
1F
100
AcDbEntity
  8
0
100
AcDbLine
 10
23.48549616518797
 20
69.04673198842061
 30
0.0
 11
22.35714491595496
 21
68.22693681932483
 31
0.0
  0
LINE
  5
72F
330
1F
100
AcDbEntity
  8
0
100
AcDbLine
 10
24.83377769642592
 20
70.02631586058919
 30
0.0
 11
29.13612114940449
 21
66.9004803719148
 31
0.0
  0
LINE
  5
730
330
1F
100
AcDbEntity
  8
0
100
AcDbLine
 10
22.78813674191361
 20
73.15215134926353
 30
0.0
 11
22.357144915955
 21
71.8256949018535
 31
0.0
  0
LINE
  5
731
330
1F
100
AcDbEntity
  8
0
100
AcDbLine
 10
23.30313446044277
 20
74.73715134926353
 30
0.0
 11
28.62112343087536
 21
74.73715134926354
 31
0.0
  0
LINE
  5
732
330
1F
100
AcDbEntity
  8
0
100
AcDbLine
 10
19.81085616251757
 20
76.06360779667349
 30
0.0
 11
20.24184798847616
 21
74.73715134926353
 31
0.0
  0
LINE
  5
733
330
1F
100
AcDbEntity
  8
0
100
AcDbLine
 10
19.29585844398841
 20
77.64860779667344
 30
0.0
 11
23.59820189696693
 21
80.77444328534779
 31
0.0
  0
LINE
  5
734
330
1F
100
AcDbEntity
  8
0
100
AcDbLine
 10
15.69087441428427
 20
76.66902392450487
 30
0.0
 11
16.81922566351737
 21
75.84922875540906
 31
0.0
  0
LINE
  5
735
330
1F
100
AcDbEntity
  8
0
100
AcDbLine
 10
14.34259288304631
 20
77.64860779667344
 30
0.0
 11
15.98594185080853
 21
82.70631586058916
 31
0.0
  0
LINE
  5
736
330
1F
100
AcDbEntity
  8
0
100
AcDbLine
 10
12.00188449200961
 20
74.73715134926351
 30
0.0
 11
13.39660333855855
 21
74.73715134926351
 31
0.0
  0
LINE
  5
737
330
1F
100
AcDbEntity
  8
0
100
AcDbLine
 10
10.33531686659201
 20
74.73715134926351
 30
0.0
 11
8.691967898829803
 21
79.79485941317917
 31
0.0
  0
LINE
  5
738
330
1F
100
AcDbEntity
  8
0
100
AcDbLine
 10
10.15295516184674
 20
71.00589973275771
 30
0.0
 11
11.28130641107981
 21
71.82569490185352
 31
0.0
  0
LINE
  5
739
330
1F
100
AcDbEntity
  8
0
100
AcDbLine
 10
8.804673630608752
 20
70.02631586058917
 30
0.0
 11
4.50233017763024
 21
73.15215134926351
 31
0.0
  0
LINE
  5
73A
330
1F
100
AcDbEntity
  8
0
100
AcDbLine
 10
10.33531686659204
 20
65.31548037191486
 30
0.0
 11
5.017327896159399
 21
65.31548037191486
 31
0.0
  0
LINE
  5
73B
330
1F
100
AcDbEntity
  8
0
100
AcDbLine
 10
10.85031458512118
 20
66.90048037191482
 30
0.0
 11
11.28130641107983
 21
68.22693681932481
 31
0.0
  0
LINE
  5
73C
330
1F
100
AcDbEntity
  8
0
100
AcDbLine
 10
10.85031458512118
 20
66.90048037191482
 30
0.0
 11
7.19889324010621
 21
66.90048037191482
 31
0.0
  0
LINE
  5
73D
330
1F
100
AcDbEntity
  8
0
100
AcDbLine
 10
12.5168822105388
 20
66.90048037191482
 30
0.0
 11
13.14458566084693
 21
68.83235294715624
 31
0.0
  0
LINE
  5
73E
330
1F
100
AcDbEntity
  8
0
100
AcDbLine
 10
13.39660333855853
 20
65.31548037191481
 30
0.0
 11
12.00188449200968
 21
65.31548037191486
 31
0.0
  0
LINE
  5
73F
330
1F
100
AcDbEntity
  8
0
100
AcDbLine
 10
13.82759516451714
 20
63.98902392450487
 30
0.0
 11
10.87353324277658
 21
61.8427723079991
 31
0.0
  0
LINE
  5
740
330
1F
100
AcDbEntity
  8
0
100
AcDbLine
 10
15.17587669575515
 20
64.96860779667348
 30
0.0
 11
14.54817324544702
 21
66.90048037191482
 31
0.0
  0
LINE
  5
741
330
1F
100
AcDbEntity
  8
0
100
AcDbLine
 10
16.81922566351733
 20
64.20340296576927
 30
0.0
 11
15.69087441428427
 21
63.38360779667348
 31
0.0
  0
LINE
  5
742
330
1F
100
AcDbEntity
  8
0
100
AcDbLine
 10
17.94757691275047
 20
63.38360779667348
 30
0.0
 11
16.81922566351737
 21
59.91089973275772
 31
0.0
  0
LINE
  5
743
330
1F
100
AcDbEntity
  8
0
100
AcDbLine
 10
18.46257463127961
 20
64.96860779667343
 30
0.0
 11
16.81922566351737
 21
66.16257071010642
 31
0.0
  0
LINE
  5
744
330
1F
100
AcDbEntity
  8
0
100
AcDbLine
 10
20.24184798847622
 20
65.31548037191481
 30
0.0
 11
19.81085616251757
 21
63.98902392450486
 31
0.0
  0
LINE
  5
745
330
1F
100
AcDbEntity
  8
0
100
AcDbLine
 10
21.63656683502511
 20
65.31548037191481
 30
0.0
 11
22.76491808425813
 21
61.8427723079991
 31
0.0
  0
LINE
  5
746
330
1F
100
AcDbEntity
  8
0
100
AcDbLine
 10
21.12156911649595
 20
66.9004803719148
 30
0.0
 11
19.09027808158772
 21
66.9004803719148
 31
0.0
  0
LINE
  5
747
330
1F
100
AcDbEntity
  8
0
100
AcDbLine
 10
22.35714491595493
 20
68.22693681932481
 30
0.0
 11
22.78813674191361
 21
66.9004803719148
 31
0.0
  0
LINE
  5
748
330
1F
100
AcDbEntity
  8
0
100
AcDbLine
 10
23.48549616518793
 20
69.04673198842061
 30
0.0
 11
26.43955808692855
 21
66.9004803719148
 31
0.0
  0
LINE
  5
749
330
1F
100
AcDbEntity
  8
0
100
AcDbLine
 10
22.13721463394998
 20
70.02631586058919
 30
0.0
 11
20.4938656661878
 21
68.83235294715624
 31
0.0
  0
LINE
  5
74A
330
1F
100
AcDbEntity
  8
0
100
AcDbLine
 10
22.35714491595496
 20
71.8256949018535
 30
0.0
 11
23.4854961651879
 21
71.00589973275777
 31
0.0
  0
LINE
  5
74B
330
1F
100
AcDbEntity
  8
0
100
AcDbLine
 10
22.78813674191361
 20
73.15215134926353
 30
0.0
 11
26.43955808692854
 21
73.15215134926353
 31
0.0
  0
LINE
  5
74C
330
1F
100
AcDbEntity
  8
0
100
AcDbLine
 10
21.12156911649597
 20
73.15215134926353
 30
0.0
 11
20.4938656661878
 21
71.22027877402212
 31
0.0
  0
LINE
  5
74D
330
1F
100
AcDbEntity
  8
0
100
AcDbLine
 10
20.24184798847616
 20
74.73715134926353
 30
0.0
 11
21.63656683502511
 21
74.73715134926353
 31
0.0
  0
LINE
  5
74E
330
1F
100
AcDbEntity
  8
0
100
AcDbLine
 10
19.81085616251753
 20
76.06360779667344
 30
0.0
 11
22.76491808425825
 21
78.20985941317926
 31
0.0
  0
LINE
  5
74F
330
1F
100
AcDbEntity
  8
0
100
AcDbLine
 10
18.46257463127955
 20
75.08402392450488
 30
0.0
 11
19.09027808158769
 21
73.15215134926353
 31
0.0
  0
LINE
  5
750
330
1F
100
AcDbEntity
  8
0
100
AcDbLine
 10
16.81922566351733
 20
75.84922875540906
 30
0.0
 11
17.94757691275044
 21
76.66902392450487
 31
0.0
  0
LINE
  5
751
330
1F
100
AcDbEntity
  8
0
100
AcDbLine
 10
15.6908744142843
 20
76.66902392450483
 30
0.0
 11
16.81922566351737
 21
80.14173198842057
 31
0.0
  0
LINE
  5
752
330
1F
100
AcDbEntity
  8
0
100
AcDbLine
 10
11.28130641107981
 20
68.22693681932481
 30
0.0
 11
10.15295516184674
 21
69.04673198842061
 31
0.0
  0
LINE
  5
753
330
1F
100
AcDbEntity
  8
0
100
AcDbLine
 10
11.50123669308471
 20
70.02631586058917
 30
0.0
 11
13.14458566084693
 21
71.22027877402212
 31
0.0
  0
LINE
  5
754
330
1F
100
AcDbEntity
  8
0
100
AcDbLine
 10
10.15295516184674
 20
71.00589973275771
 30
0.0
 11
7.198893240106183
 21
73.15215134926351
 31
0.0
  0
LINE
  5
755
330
1F
100
AcDbEntity
  8
0
100
AcDbLine
 10
11.28130641107981
 20
71.82569490185352
 30
0.0
 11
10.85031458512115
 21
73.15215134926351
 31
0.0
  0
LINE
  5
756
330
1F
100
AcDbEntity
  8
0
100
AcDbLine
 10
12.51688221053882
 20
73.15215134926351
 30
0.0
 11
14.54817324544705
 21
73.15215134926351
 31
0.0
  0
LINE
  5
757
330
1F
100
AcDbEntity
  8
0
100
AcDbLine
 10
12.00188449200961
 20
74.73715134926351
 30
0.0
 11
10.87353324277658
 21
78.20985941317921
 31
0.0
  0
LINE
  5
758
330
1F
100
AcDbEntity
  8
0
100
AcDbLine
 10
15.17587669575515
 20
75.08402392450488
 30
0.0
 11
16.81922566351737
 21
73.89006101107191
 31
0.0
  0
LINE
  5
759
330
1F
100
AcDbEntity
  8
0
100
AcDbLine
 10
13.39660333855855
 20
74.73715134926351
 30
0.0
 11
13.82759516451714
 21
76.06360779667344
 31
0.0
  0
LINE
  5
75A
330
1F
100
AcDbEntity
  8
0
100
AcDbLine
 10
20.4938656661878
 20
68.83235294715624
 30
0.0
 11
21.12156911649595
 21
66.9004803719148
 31
0.0
  0
LINE
  5
75B
330
1F
100
AcDbEntity
  8
0
100
AcDbLine
 10
19.09027808158772
 20
66.90048037191482
 30
0.0
 11
18.46257463127961
 21
64.96860779667343
 31
0.0
  0
LINE
  5
75C
330
1F
100
AcDbEntity
  8
0
100
AcDbLine
 10
16.81922566351733
 20
66.16257071010642
 30
0.0
 11
15.17587669575515
 21
64.96860779667348
 31
0.0
  0
LINE
  5
75D
330
1F
100
AcDbEntity
  8
0
100
AcDbLine
 10
14.54817324544702
 20
66.90048037191482
 30
0.0
 11
12.51688221053882
 21
66.90048037191482
 31
0.0
  0
LINE
  5
75E
330
1F
100
AcDbEntity
  8
0
100
AcDbLine
 10
13.14458566084693
 20
68.83235294715618
 30
0.0
 11
11.50123669308469
 21
70.02631586058917
 31
0.0
  0
LINE
  5
75F
330
1F
100
AcDbEntity
  8
0
100
AcDbLine
 10
13.1445856608469
 20
71.22027877402212
 30
0.0
 11
12.5168822105388
 21
73.15215134926351
 31
0.0
  0
LINE
  5
760
330
1F
100
AcDbEntity
  8
0
100
AcDbLine
 10
14.54817324544705
 20
73.15215134926351
 30
0.0
 11
15.17587669575515
 21
75.08402392450488
 31
0.0
  0
LINE
  5
761
330
1F
100
AcDbEntity
  8
0
100
AcDbLine
 10
19.09027808158769
 20
73.15215134926353
 30
0.0
 11
21.12156911649597
 21
73.15215134926353
 31
0.0
  0
LINE
  5
762
330
1F
100
AcDbEntity
  8
0
100
AcDbLine
 10
20.49386566618784
 20
71.22027877402203
 30
0.0
 11
22.13721463394996
 21
70.02631586058917
 31
0.0
  0
LINE
  5
763
330
1F
100
AcDbEntity
  8
0
100
AcDbLine
 10
16.81922566351737
 20
73.89006101107191
 30
0.0
 11
18.46257463127958
 21
75.08402392450488
 31
0.0
  0
LINE
  5
764
330
1F
100
AcDbEntity
  8
0
100
AcDbLine
 10
23.59820189696697
 20
59.27818843583056
 30
0.0
 11
19.29585844398841
 21
62.40402392450492
 31
0.0
  0
LINE
  5
765
330
1F
100
AcDbEntity
  8
0
100
AcDbLine
 10
22.76491808425813
 20
61.8427723079991
 30
0.0
 11
19.81085616251757
 21
63.98902392450487
 31
0.0
  0
LINE
  5
766
330
1F
100
AcDbEntity
  8
0
100
AcDbLine
 10
28.62112343087536
 20
65.3154803719148
 30
0.0
 11
23.3031344604427
 21
65.3154803719148
 31
0.0
  0
LINE
  5
767
330
1F
100
AcDbEntity
  8
0
100
AcDbLine
 10
26.43955808692855
 20
66.9004803719148
 30
0.0
 11
22.78813674191359
 21
66.9004803719148
 31
0.0
  0
LINE
  5
768
330
1F
100
AcDbEntity
  8
0
100
AcDbLine
 10
15.98594185080853
 20
57.34631586058916
 30
0.0
 11
14.34259288304635
 21
62.40402392450487
 31
0.0
  0
LINE
  5
769
330
1F
100
AcDbEntity
  8
0
100
AcDbLine
 10
16.81922566351737
 20
59.91089973275772
 30
0.0
 11
15.6908744142843
 21
63.38360779667348
 31
0.0
  0
LINE
  5
76A
330
1F
100
AcDbEntity
  8
0
100
AcDbLine
 10
8.691967898829803
 20
60.25777230799914
 30
0.0
 11
10.33531686659204
 21
65.31548037191486
 31
0.0
  0
LINE
  5
76B
330
1F
100
AcDbEntity
  8
0
100
AcDbLine
 10
10.87353324277658
 20
61.8427723079991
 30
0.0
 11
12.00188449200961
 21
65.31548037191486
 31
0.0
  0
LINE
  5
76C
330
1F
100
AcDbEntity
  8
0
100
AcDbLine
 10
4.50233017763024
 20
66.90048037191482
 30
0.0
 11
8.804673630608785
 21
70.02631586058917
 31
0.0
  0
LINE
  5
76D
330
1F
100
AcDbEntity
  8
0
100
AcDbLine
 10
7.19889324010621
 20
66.90048037191482
 30
0.0
 11
10.15295516184674
 21
69.04673198842061
 31
0.0
  0
LINE
  5
76E
330
1F
100
AcDbEntity
  8
0
100
AcDbLine
 10
16.81922566351737
 20
80.14173198842057
 30
0.0
 11
17.9475769127504
 21
76.66902392450487
 31
0.0
  0
LINE
  5
76F
330
1F
100
AcDbEntity
  8
0
100
AcDbLine
 10
17.65250947622617
 20
82.70631586058916
 30
0.0
 11
19.29585844398839
 21
77.64860779667344
 31
0.0
  0
LINE
  5
770
330
1F
100
AcDbEntity
  8
0
100
AcDbLine
 10
5.017327896159399
 20
74.73715134926351
 30
0.0
 11
10.33531686659197
 21
74.73715134926351
 31
0.0
  0
LINE
  5
771
330
1F
100
AcDbEntity
  8
0
100
AcDbLine
 10
7.198893240106183
 20
73.15215134926351
 30
0.0
 11
10.85031458512118
 21
73.15215134926351
 31
0.0
  0
LINE
  5
772
330
1F
100
AcDbEntity
  8
0
100
AcDbLine
 10
24.94648342820501
 20
79.79485941317915
 30
0.0
 11
23.3031344604428
 21
74.73715134926353
 31
0.0
  0
LINE
  5
773
330
1F
100
AcDbEntity
  8
0
100
AcDbLine
 10
22.76491808425825
 20
78.20985941317926
 30
0.0
 11
21.63656683502511
 21
74.73715134926353
 31
0.0
  0
LINE
  5
774
330
1F
100
AcDbEntity
  8
0
100
AcDbLine
 10
10.04024943006778
 20
80.77444328534779
 30
0.0
 11
14.34259288304631
 21
77.64860779667344
 31
0.0
  0
LINE
  5
775
330
1F
100
AcDbEntity
  8
0
100
AcDbLine
 10
10.87353324277658
 20
78.20985941317921
 30
0.0
 11
13.82759516451717
 21
76.06360779667344
 31
0.0
  0
LINE
  5
776
330
1F
100
AcDbEntity
  8
0
100
AcDbLine
 10
29.13612114940449
 20
73.15215134926354
 30
0.0
 11
24.83377769642592
 21
70.02631586058919
 31
0.0
  0
LINE
  5
777
330
1F
100
AcDbEntity
  8
0
100
AcDbLine
 10
26.43955808692854
 20
73.15215134926353
 30
0.0
 11
23.4854961651879
 21
71.00589973275777
 31
0.0
  0
ENDSEC
  0
SECTION
  2
OBJECTS
  0
DICTIONARY
  5
C
330
0
100
AcDbDictionary
281
     1
  3
ACAD_COLOR
350
73
  3
ACAD_GROUP
350
D
  3
ACAD_LAYOUT
350
1A
  3
ACAD_MATERIAL
350
72
  3
ACAD_MLINESTYLE
350
17
  3
ACAD_PLOTSETTINGS
350
19
  3
ACAD_PLOTSTYLENAME
350
E
  3
ACDBHEADERROUNDTRIPXREC
350
79B
  3
AcDbVariableDictionary
350
66
  0
DICTIONARY
  5
73
102
{ACAD_REACTORS
330
C
102
}
330
C
100
AcDbDictionary
281
     1
  0
DICTIONARY
  5
D
102
{ACAD_REACTORS
330
C
102
}
330
C
100
AcDbDictionary
281
     1
  0
DICTIONARY
  5
1A
102
{ACAD_REACTORS
330
C
102
}
330
C
100
AcDbDictionary
281
     1
  3
Layout1
350
59
  3
Layout2
350
5E
  3
Model
350
22
  0
DICTIONARY
  5
72
102
{ACAD_REACTORS
330
C
102
}
330
C
100
AcDbDictionary
281
     1
  0
DICTIONARY
  5
17
102
{ACAD_REACTORS
330
C
102
}
330
C
100
AcDbDictionary
281
     1
  3
Standard
350
18
  0
DICTIONARY
  5
19
102
{ACAD_REACTORS
330
C
102
}
330
C
100
AcDbDictionary
281
     1
  0
ACDBDICTIONARYWDFLT
  5
E
102
{ACAD_REACTORS
330
C
102
}
330
C
100
AcDbDictionary
281
     1
  3
Normal
350
F
100
AcDbDictionaryWithDefault
340
F
  0
DICTIONARY
  5
79B
102
{ACAD_REACTORS
330
C
102
}
330
C
100
AcDbDictionary
281
     1
  3
COLORDICT
350
79D
  3
MATERIALDICT
350
79C
  0
DICTIONARY
  5
66
102
{ACAD_REACTORS
330
C
102
}
330
C
100
AcDbDictionary
281
     1
  3
DIMASSOC
350
67
  3
HIDETEXT
350
6B
  3
PROJECTNAME
350
243
  0
LAYOUT
  5
59
102
{ACAD_XDICTIONARY
360
7A0
102
}
102
{ACAD_REACTORS
330
1A
102
}
330
1A
100
AcDbPlotSettings
  1

  2
None
  4

  6

 40
0.0
 41
0.0
 42
0.0
 43
0.0
 44
0.0
 45
0.0
 46
0.0
 47
0.0
 48
0.0
 49
0.0
140
0.0
141
0.0
142
1.0
143
1.0
 70
   688
 72
     0
 73
     0
 74
     5
  7

 75
    16
147
1.0
148
0.0
149
0.0
100
AcDbLayout
  1
Layout1
 70
     1
 71
     1
 10
0.0
 20
0.0
 11
12.0
 21
9.0
 12
0.0
 22
0.0
 32
0.0
 14
0.0
 24
0.0
 34
0.0
 15
0.0
 25
0.0
 35
0.0
146
0.0
 13
0.0
 23
0.0
 33
0.0
 16
1.0
 26
0.0
 36
0.0
 17
0.0
 27
1.0
 37
0.0
 76
     0
330
58
  0
LAYOUT
  5
5E
102
{ACAD_XDICTIONARY
360
7A2
102
}
102
{ACAD_REACTORS
330
1A
102
}
330
1A
100
AcDbPlotSettings
  1

  2
None
  4

  6

 40
0.0
 41
0.0
 42
0.0
 43
0.0
 44
0.0
 45
0.0
 46
0.0
 47
0.0
 48
0.0
 49
0.0
140
0.0
141
0.0
142
1.0
143
1.0
 70
   688
 72
     0
 73
     0
 74
     5
  7

 75
    16
147
1.0
148
0.0
149
0.0
100
AcDbLayout
  1
Layout2
 70
     1
 71
     2
 10
0.0
 20
0.0
 11
12.0
 21
9.0
 12
0.0
 22
0.0
 32
0.0
 14
0.0
 24
0.0
 34
0.0
 15
0.0
 25
0.0
 35
0.0
146
0.0
 13
0.0
 23
0.0
 33
0.0
 16
1.0
 26
0.0
 36
0.0
 17
0.0
 27
1.0
 37
0.0
 76
     0
330
5D
  0
LAYOUT
  5
22
102
{ACAD_XDICTIONARY
360
79E
102
}
102
{ACAD_REACTORS
330
1A
102
}
330
1A
100
AcDbPlotSettings
  1

  2
none_device
  4
ANSI_A_(8.50_x_11.00_Inches)
  6

 40
6.349999904632567
 41
19.04999923706055
 42
6.350006103515625
 43
19.04998779296875
 44
215.8999938964844
 45
279.3999938964844
 46
0.0
 47
0.0
 48
0.0
 49
0.0
140
0.0
141
0.0
142
1.0
143
2.584895464708373
 70
 11952
 72
     0
 73
     1
 74
     0
  7

 75
     0
147
0.3868628397755418
148
0.0
149
0.0
100
AcDbLayout
  1
Model
 70
     1
 71
     0
 10
0.0
 20
0.0
 11
12.0
 21
9.0
 12
0.0
 22
0.0
 32
0.0
 14
0.0
 24
0.0
 34
0.0
 15
0.0
 25
0.0
 35
0.0
146
0.0
 13
0.0
 23
0.0
 33
0.0
 16
1.0
 26
0.0
 36
0.0
 17
0.0
 27
1.0
 37
0.0
 76
     0
330
1F
  0
MLINESTYLE
  5
18
102
{ACAD_REACTORS
330
17
102
}
330
17
100
AcDbMlineStyle
  2
STANDARD
 70
     0
  3

 62
   256
 51
90.0
 52
90.0
 71
     2
 49
0.5
 62
   256
  6
BYLAYER
 49
-0.5
 62
   256
  6
BYLAYER
  0
ACDBPLACEHOLDER
  5
F
102
{ACAD_REACTORS
330
E
102
}
330
E
  0
XRECORD
  5
79D
102
{ACAD_REACTORS
330
79B
102
}
330
79B
100
AcDbXrecord
280
     1
340
73
  0
XRECORD
  5
79C
102
{ACAD_REACTORS
330
79B
102
}
330
79B
100
AcDbXrecord
280
     1
340
72
  0
DICTIONARYVAR
  5
67
102
{ACAD_REACTORS
330
66
102
}
330
66
100
DictionaryVariables
280
     0
  1
2
  0
DICTIONARYVAR
  5
6B
102
{ACAD_REACTORS
330
66
102
}
330
66
100
DictionaryVariables
280
     0
  1
1
  0
DICTIONARYVAR
  5
243
102
{ACAD_REACTORS
330
66
102
}
330
66
100
DictionaryVariables
280
     0
  1

  0
DICTIONARY
  5
7A0
330
59
100
AcDbDictionary
280
     1
281
     1
  3
ACAD_XREC_ROUNDTRIP
360
7A1
  0
DICTIONARY
  5
7A2
330
5E
100
AcDbDictionary
280
     1
281
     1
  3
ACAD_XREC_ROUNDTRIP
360
7A3
  0
DICTIONARY
  5
79E
330
22
100
AcDbDictionary
280
     1
281
     1
  3
ACAD_XREC_ROUNDTRIP
360
79F
  0
XRECORD
  5
7A1
102
{ACAD_REACTORS
330
7A0
102
}
330
7A0
100
AcDbXrecord
280
     1
102
SHADEPLOT
 70
     0
102
SHADEPLOTRESLEVEL
 70
     2
102
SHADEPLOTCUSTOMDPI
 70
   300
  0
XRECORD
  5
7A3
102
{ACAD_REACTORS
330
7A2
102
}
330
7A2
100
AcDbXrecord
280
     1
102
SHADEPLOT
 70
     0
102
SHADEPLOTRESLEVEL
 70
     2
102
SHADEPLOTCUSTOMDPI
 70
   300
  0
XRECORD
  5
79F
102
{ACAD_REACTORS
330
79E
102
}
330
79E
100
AcDbXrecord
280
     1
102
SHADEPLOT
 70
     0
102
SHADEPLOTRESLEVEL
 70
     2
102
SHADEPLOTCUSTOMDPI
 70
   300
  0
ENDSEC
  0
EOF
